  0
SECTION
  2
BLOCKS
  0
ENDSEC
  0
SECTION
  2
ENTITIES
  0
LINE
  8
0
 10
33.1309
 20
-0.0950928
 11
33.15
 21
-0.0865936
  0
LINE
  8
0
 10
33.15
 20
-0.0865936
 11
33.1669
 21
-0.0743103
  0
LINE
  8
0
 10
33.1669
 20
-0.0743103
 11
33.1809
 21
-0.0587769
  0
LINE
  8
0
 10
33.1809
 20
-0.0587769
 11
33.1913
 21
-0.0406647
  0
LINE
  8
0
 10
33.1913
 20
-0.0406647
 11
33.1978
 21
-0.0207825
  0
LINE
  8
0
 10
33.1978
 20
-0.0207825
 11
33.2
 21
0
  0
LINE
  8
0
 10
33.2
 20
0
 11
33.2
 21
33.1
  0
LINE
  8
0
 10
33.2
 20
33.1
 11
33.1978
 21
33.1208
  0
LINE
  8
0
 10
33.1978
 20
33.1208
 11
33.1913
 21
33.1407
  0
LINE
  8
0
 10
33.1913
 20
33.1407
 11
33.1809
 21
33.1588
  0
LINE
  8
0
 10
33.1809
 20
33.1588
 11
33.1669
 21
33.1743
  0
LINE
  8
0
 10
33.1669
 20
33.1743
 11
33.15
 21
33.1866
  0
LINE
  8
0
 10
33.15
 20
33.1866
 11
33.1309
 21
33.1951
  0
LINE
  8
0
 10
33.1309
 20
33.1951
 11
33.1104
 21
33.1994
  0
LINE
  8
0
 10
33.1104
 20
33.1994
 11
-0.0104523
 21
33.1994
  0
LINE
  8
0
 10
-0.0104523
 20
33.1994
 11
-0.030899
 21
33.1951
  0
LINE
  8
0
 10
-0.030899
 20
33.1951
 11
-0.0499878
 21
33.1866
  0
LINE
  8
0
 10
-0.0499878
 20
33.1866
 11
-0.0669098
 21
33.1743
  0
LINE
  8
0
 10
-0.0669098
 20
33.1743
 11
-0.0808868
 21
33.1588
  0
LINE
  8
0
 10
-0.0808868
 20
33.1588
 11
-0.0913544
 21
33.1407
  0
LINE
  8
0
 10
-0.0913544
 20
33.1407
 11
-0.0978088
 21
33.1208
  0
LINE
  8
0
 10
-0.0978088
 20
33.1208
 11
-0.0999908
 21
33.1
  0
LINE
  8
0
 10
-0.0999908
 20
33.1
 11
0
 21
5
  0
LINE
  8
0
 10
0
 20
5
 11
0.109253
 21
3.96043
  0
LINE
  8
0
 10
0.109253
 20
3.96043
 11
0.432266
 21
2.96631
  0
LINE
  8
0
 10
0.432266
 20
2.96631
 11
0.95491
 21
2.06107
  0
LINE
  8
0
 10
0.95491
 20
2.06107
 11
1.65434
 21
1.28427
  0
LINE
  8
0
 10
1.65434
 20
1.28427
 11
2.49998
 21
0.669861
  0
LINE
  8
0
 10
2.49998
 20
0.669861
 11
3.45491
 21
0.244705
  0
LINE
  8
0
 10
3.45491
 20
0.244705
 11
4.47736
 21
0.0273895
  0
LINE
  8
0
 10
4.47736
 20
0.0273895
 11
33.1104
 21
-0.0994415
  0
LINE
  8
0
 10
33.1104
 20
-0.0994415
 11
33.1309
 21
-0.0950928
  0
LINE
  8
0
 10
15.2112
 20
9.55978
 11
13.9127
 21
9.83578
  0
LINE
  8
0
 10
13.9127
 20
9.83578
 11
12.7
 21
10.3757
  0
LINE
  8
0
 10
12.7
 20
10.3757
 11
11.626
 21
11.156
  0
LINE
  8
0
 10
11.626
 20
11.156
 11
10.7377
 21
12.1426
  0
LINE
  8
0
 10
10.7377
 20
12.1426
 11
10.074
 21
13.2922
  0
LINE
  8
0
 10
10.074
 20
13.2922
 11
9.66376
 21
14.5547
  0
LINE
  8
0
 10
9.66376
 20
14.5547
 11
9.52499
 21
15.875
  0
LINE
  8
0
 10
9.52499
 20
15.875
 11
9.66376
 21
17.1952
  0
LINE
  8
0
 10
9.66376
 20
17.1952
 11
10.074
 21
18.4578
  0
LINE
  8
0
 10
10.074
 20
18.4578
 11
10.7377
 21
19.6074
  0
LINE
  8
0
 10
10.7377
 20
19.6074
 11
11.626
 21
20.594
  0
LINE
  8
0
 10
11.626
 20
20.594
 11
12.7
 21
21.3743
  0
LINE
  8
0
 10
12.7
 20
21.3743
 11
13.9127
 21
21.9142
  0
LINE
  8
0
 10
13.9127
 20
21.9142
 11
15.2112
 21
22.1902
  0
LINE
  8
0
 10
15.2112
 20
22.1902
 11
16.5387
 21
22.1902
  0
LINE
  8
0
 10
16.5387
 20
22.1902
 11
17.8372
 21
21.9142
  0
LINE
  8
0
 10
17.8372
 20
21.9142
 11
19.05
 21
21.3743
  0
LINE
  8
0
 10
19.05
 20
21.3743
 11
20.124
 21
20.594
  0
LINE
  8
0
 10
20.124
 20
20.594
 11
21.0123
 21
19.6074
  0
LINE
  8
0
 10
21.0123
 20
19.6074
 11
21.676
 21
18.4578
  0
LINE
  8
0
 10
21.676
 20
18.4578
 11
22.0862
 21
17.1952
  0
LINE
  8
0
 10
22.0862
 20
17.1952
 11
22.225
 21
15.875
  0
LINE
  8
0
 10
22.225
 20
15.875
 11
22.0862
 21
14.5547
  0
LINE
  8
0
 10
22.0862
 20
14.5547
 11
21.676
 21
13.2922
  0
LINE
  8
0
 10
21.676
 20
13.2922
 11
21.0123
 21
12.1426
  0
LINE
  8
0
 10
21.0123
 20
12.1426
 11
20.124
 21
11.156
  0
LINE
  8
0
 10
20.124
 20
11.156
 11
19.05
 21
10.3757
  0
LINE
  8
0
 10
19.05
 20
10.3757
 11
17.8372
 21
9.83578
  0
LINE
  8
0
 10
17.8372
 20
9.83578
 11
16.5387
 21
9.55978
  0
LINE
  8
0
 10
16.5387
 20
9.55978
 11
15.2112
 21
9.55978
  0
ENDSEC
  0
SECTION
  2
OBJECTS
  0
DICTIONARY
  0
ENDSEC
  0
EOF
