  0
SECTION
  2
BLOCKS
  0
ENDSEC
  0
SECTION
  2
ENTITIES
  0
LINE
  8
0
 10
45.8309
 20
-0.0950928
 11
45.85
 21
-0.0865936
  0
LINE
  8
0
 10
45.85
 20
-0.0865936
 11
45.8669
 21
-0.0743103
  0
LINE
  8
0
 10
45.8669
 20
-0.0743103
 11
45.8809
 21
-0.0587769
  0
LINE
  8
0
 10
45.8809
 20
-0.0587769
 11
45.8913
 21
-0.0406647
  0
LINE
  8
0
 10
45.8913
 20
-0.0406647
 11
45.8978
 21
-0.0207825
  0
LINE
  8
0
 10
45.8978
 20
-0.0207825
 11
45.9
 21
0
  0
LINE
  8
0
 10
45.9
 20
0
 11
45.9
 21
45.8
  0
LINE
  8
0
 10
45.9
 20
45.8
 11
45.8978
 21
45.8208
  0
LINE
  8
0
 10
45.8978
 20
45.8208
 11
45.8913
 21
45.8407
  0
LINE
  8
0
 10
45.8913
 20
45.8407
 11
45.8809
 21
45.8588
  0
LINE
  8
0
 10
45.8809
 20
45.8588
 11
45.8669
 21
45.8743
  0
LINE
  8
0
 10
45.8669
 20
45.8743
 11
45.85
 21
45.8866
  0
LINE
  8
0
 10
45.85
 20
45.8866
 11
45.8309
 21
45.8951
  0
LINE
  8
0
 10
45.8309
 20
45.8951
 11
45.8104
 21
45.8994
  0
LINE
  8
0
 10
45.8104
 20
45.8994
 11
-0.0104523
 21
45.8994
  0
LINE
  8
0
 10
-0.0104523
 20
45.8994
 11
-0.030899
 21
45.8951
  0
LINE
  8
0
 10
-0.030899
 20
45.8951
 11
-0.0499878
 21
45.8866
  0
LINE
  8
0
 10
-0.0499878
 20
45.8866
 11
-0.0669098
 21
45.8743
  0
LINE
  8
0
 10
-0.0669098
 20
45.8743
 11
-0.0808868
 21
45.8588
  0
LINE
  8
0
 10
-0.0808868
 20
45.8588
 11
-0.0913544
 21
45.8407
  0
LINE
  8
0
 10
-0.0913544
 20
45.8407
 11
-0.0978088
 21
45.8208
  0
LINE
  8
0
 10
-0.0978088
 20
45.8208
 11
-0.0999908
 21
45.8
  0
LINE
  8
0
 10
-0.0999908
 20
45.8
 11
0
 21
5
  0
LINE
  8
0
 10
0
 20
5
 11
0.109253
 21
3.96043
  0
LINE
  8
0
 10
0.109253
 20
3.96043
 11
0.432266
 21
2.96631
  0
LINE
  8
0
 10
0.432266
 20
2.96631
 11
0.95491
 21
2.06107
  0
LINE
  8
0
 10
0.95491
 20
2.06107
 11
1.65434
 21
1.28427
  0
LINE
  8
0
 10
1.65434
 20
1.28427
 11
2.49998
 21
0.669861
  0
LINE
  8
0
 10
2.49998
 20
0.669861
 11
3.45491
 21
0.244705
  0
LINE
  8
0
 10
3.45491
 20
0.244705
 11
4.47736
 21
0.0273895
  0
LINE
  8
0
 10
4.47736
 20
0.0273895
 11
45.8104
 21
-0.0994415
  0
LINE
  8
0
 10
45.8104
 20
-0.0994415
 11
45.8309
 21
-0.0950928
  0
LINE
  8
0
 10
21.5612
 20
15.9098
 11
20.2627
 21
16.1858
  0
LINE
  8
0
 10
20.2627
 20
16.1858
 11
19.05
 21
16.7257
  0
LINE
  8
0
 10
19.05
 20
16.7257
 11
17.976
 21
17.506
  0
LINE
  8
0
 10
17.976
 20
17.506
 11
17.0877
 21
18.4926
  0
LINE
  8
0
 10
17.0877
 20
18.4926
 11
16.424
 21
19.6422
  0
LINE
  8
0
 10
16.424
 20
19.6422
 11
16.0137
 21
20.9048
  0
LINE
  8
0
 10
16.0137
 20
20.9048
 11
15.875
 21
22.225
  0
LINE
  8
0
 10
15.875
 20
22.225
 11
16.0137
 21
23.5452
  0
LINE
  8
0
 10
16.0137
 20
23.5452
 11
16.424
 21
24.8078
  0
LINE
  8
0
 10
16.424
 20
24.8078
 11
17.0877
 21
25.9574
  0
LINE
  8
0
 10
17.0877
 20
25.9574
 11
17.976
 21
26.944
  0
LINE
  8
0
 10
17.976
 20
26.944
 11
19.05
 21
27.7243
  0
LINE
  8
0
 10
19.05
 20
27.7243
 11
20.2627
 21
28.2642
  0
LINE
  8
0
 10
20.2627
 20
28.2642
 11
21.5612
 21
28.5402
  0
LINE
  8
0
 10
21.5612
 20
28.5402
 11
22.8887
 21
28.5402
  0
LINE
  8
0
 10
22.8887
 20
28.5402
 11
24.1873
 21
28.2642
  0
LINE
  8
0
 10
24.1873
 20
28.2642
 11
25.4
 21
27.7243
  0
LINE
  8
0
 10
25.4
 20
27.7243
 11
26.474
 21
26.944
  0
LINE
  8
0
 10
26.474
 20
26.944
 11
27.3622
 21
25.9574
  0
LINE
  8
0
 10
27.3622
 20
25.9574
 11
28.026
 21
24.8078
  0
LINE
  8
0
 10
28.026
 20
24.8078
 11
28.4362
 21
23.5452
  0
LINE
  8
0
 10
28.4362
 20
23.5452
 11
28.575
 21
22.225
  0
LINE
  8
0
 10
28.575
 20
22.225
 11
28.4362
 21
20.9048
  0
LINE
  8
0
 10
28.4362
 20
20.9048
 11
28.026
 21
19.6422
  0
LINE
  8
0
 10
28.026
 20
19.6422
 11
27.3622
 21
18.4926
  0
LINE
  8
0
 10
27.3622
 20
18.4926
 11
26.474
 21
17.506
  0
LINE
  8
0
 10
26.474
 20
17.506
 11
25.4
 21
16.7257
  0
LINE
  8
0
 10
25.4
 20
16.7257
 11
24.1873
 21
16.1858
  0
LINE
  8
0
 10
24.1873
 20
16.1858
 11
22.8887
 21
15.9098
  0
LINE
  8
0
 10
22.8887
 20
15.9098
 11
21.5612
 21
15.9098
  0
ENDSEC
  0
SECTION
  2
OBJECTS
  0
DICTIONARY
  0
ENDSEC
  0
EOF
