  0
SECTION
  2
BLOCKS
  0
ENDSEC
  0
SECTION
  2
ENTITIES
  0
LINE
  8
0
 10
33.4139
 20
-38.0901
 11
33.7267
 21
-38.0606
  0
LINE
  8
0
 10
33.7267
 20
-38.0606
 11
34.0369
 21
-38.0114
  0
LINE
  8
0
 10
34.0369
 20
-38.0114
 11
34.3434
 21
-37.9429
  0
LINE
  8
0
 10
34.3434
 20
-37.9429
 11
34.6451
 21
-37.8553
  0
LINE
  8
0
 10
34.6451
 20
-37.8553
 11
34.9406
 21
-37.7489
  0
LINE
  8
0
 10
34.9406
 20
-37.7489
 11
35.2289
 21
-37.6241
  0
LINE
  8
0
 10
35.2289
 20
-37.6241
 11
35.5088
 21
-37.4815
  0
LINE
  8
0
 10
35.5088
 20
-37.4815
 11
35.7791
 21
-37.3216
  0
LINE
  8
0
 10
35.7791
 20
-37.3216
 11
36.0389
 21
-37.1451
  0
LINE
  8
0
 10
36.0389
 20
-37.1451
 11
36.2871
 21
-36.9525
  0
LINE
  8
0
 10
36.2871
 20
-36.9525
 11
36.5227
 21
-36.7448
  0
LINE
  8
0
 10
36.5227
 20
-36.7448
 11
36.7448
 21
-36.5227
  0
LINE
  8
0
 10
36.7448
 20
-36.5227
 11
36.9525
 21
-36.2871
  0
LINE
  8
0
 10
36.9525
 20
-36.2871
 11
37.1451
 21
-36.0389
  0
LINE
  8
0
 10
37.1451
 20
-36.0389
 11
37.3216
 21
-35.7791
  0
LINE
  8
0
 10
37.3216
 20
-35.7791
 11
37.4815
 21
-35.5088
  0
LINE
  8
0
 10
37.4815
 20
-35.5088
 11
37.6241
 21
-35.2289
  0
LINE
  8
0
 10
37.6241
 20
-35.2289
 11
37.7489
 21
-34.9406
  0
LINE
  8
0
 10
37.7489
 20
-34.9406
 11
37.8553
 21
-34.6451
  0
LINE
  8
0
 10
37.8553
 20
-34.6451
 11
37.9429
 21
-34.3434
  0
LINE
  8
0
 10
37.9429
 20
-34.3434
 11
38.0114
 21
-34.0369
  0
LINE
  8
0
 10
38.0114
 20
-34.0369
 11
38.0606
 21
-33.7267
  0
LINE
  8
0
 10
38.0606
 20
-33.7267
 11
38.0901
 21
-33.4139
  0
LINE
  8
0
 10
38.0901
 20
-33.4139
 11
38.1
 21
-33.1
  0
LINE
  8
0
 10
38.1
 20
-33.1
 11
38.1
 21
33.1
  0
LINE
  8
0
 10
38.1
 20
33.1
 11
38.0901
 21
33.4139
  0
LINE
  8
0
 10
38.0901
 20
33.4139
 11
38.0606
 21
33.7267
  0
LINE
  8
0
 10
38.0606
 20
33.7267
 11
38.0114
 21
34.0369
  0
LINE
  8
0
 10
38.0114
 20
34.0369
 11
37.9429
 21
34.3434
  0
LINE
  8
0
 10
37.9429
 20
34.3434
 11
37.8553
 21
34.6451
  0
LINE
  8
0
 10
37.8553
 20
34.6451
 11
37.7489
 21
34.9406
  0
LINE
  8
0
 10
37.7489
 20
34.9406
 11
37.6241
 21
35.2289
  0
LINE
  8
0
 10
37.6241
 20
35.2289
 11
37.4815
 21
35.5088
  0
LINE
  8
0
 10
37.4815
 20
35.5088
 11
37.3216
 21
35.7791
  0
LINE
  8
0
 10
37.3216
 20
35.7791
 11
37.1451
 21
36.0389
  0
LINE
  8
0
 10
37.1451
 20
36.0389
 11
36.9525
 21
36.2871
  0
LINE
  8
0
 10
36.9525
 20
36.2871
 11
36.7448
 21
36.5227
  0
LINE
  8
0
 10
36.7448
 20
36.5227
 11
36.5227
 21
36.7448
  0
LINE
  8
0
 10
36.5227
 20
36.7448
 11
36.2871
 21
36.9525
  0
LINE
  8
0
 10
36.2871
 20
36.9525
 11
36.0389
 21
37.1451
  0
LINE
  8
0
 10
36.0389
 20
37.1451
 11
35.7791
 21
37.3216
  0
LINE
  8
0
 10
35.7791
 20
37.3216
 11
35.5088
 21
37.4815
  0
LINE
  8
0
 10
35.5088
 20
37.4815
 11
35.2289
 21
37.6241
  0
LINE
  8
0
 10
35.2289
 20
37.6241
 11
34.9406
 21
37.7489
  0
LINE
  8
0
 10
34.9406
 20
37.7489
 11
34.6451
 21
37.8553
  0
LINE
  8
0
 10
34.6451
 20
37.8553
 11
34.3434
 21
37.9429
  0
LINE
  8
0
 10
34.3434
 20
37.9429
 11
34.0369
 21
38.0114
  0
LINE
  8
0
 10
34.0369
 20
38.0114
 11
33.7267
 21
38.0606
  0
LINE
  8
0
 10
33.7267
 20
38.0606
 11
33.4139
 21
38.0901
  0
LINE
  8
0
 10
33.4139
 20
38.0901
 11
33.1
 21
38.1
  0
LINE
  8
0
 10
33.1
 20
38.1
 11
-33.1
 21
38.1
  0
LINE
  8
0
 10
-33.1
 20
38.1
 11
-33.4139
 21
38.0901
  0
LINE
  8
0
 10
-33.4139
 20
38.0901
 11
-33.7267
 21
38.0606
  0
LINE
  8
0
 10
-33.7267
 20
38.0606
 11
-34.0369
 21
38.0114
  0
LINE
  8
0
 10
-34.0369
 20
38.0114
 11
-34.3434
 21
37.9429
  0
LINE
  8
0
 10
-34.3434
 20
37.9429
 11
-34.6451
 21
37.8553
  0
LINE
  8
0
 10
-34.6451
 20
37.8553
 11
-34.9406
 21
37.7489
  0
LINE
  8
0
 10
-34.9406
 20
37.7489
 11
-35.2289
 21
37.6241
  0
LINE
  8
0
 10
-35.2289
 20
37.6241
 11
-35.5088
 21
37.4815
  0
LINE
  8
0
 10
-35.5088
 20
37.4815
 11
-35.7791
 21
37.3216
  0
LINE
  8
0
 10
-35.7791
 20
37.3216
 11
-36.0389
 21
37.1451
  0
LINE
  8
0
 10
-36.0389
 20
37.1451
 11
-36.2871
 21
36.9525
  0
LINE
  8
0
 10
-36.2871
 20
36.9525
 11
-36.5227
 21
36.7448
  0
LINE
  8
0
 10
-36.5227
 20
36.7448
 11
-36.7448
 21
36.5227
  0
LINE
  8
0
 10
-36.7448
 20
36.5227
 11
-36.9525
 21
36.2871
  0
LINE
  8
0
 10
-36.9525
 20
36.2871
 11
-37.1451
 21
36.0389
  0
LINE
  8
0
 10
-37.1451
 20
36.0389
 11
-37.3216
 21
35.7791
  0
LINE
  8
0
 10
-37.3216
 20
35.7791
 11
-37.4815
 21
35.5088
  0
LINE
  8
0
 10
-37.4815
 20
35.5088
 11
-37.6241
 21
35.2289
  0
LINE
  8
0
 10
-37.6241
 20
35.2289
 11
-37.7489
 21
34.9406
  0
LINE
  8
0
 10
-37.7489
 20
34.9406
 11
-37.8553
 21
34.6451
  0
LINE
  8
0
 10
-37.8553
 20
34.6451
 11
-37.9429
 21
34.3434
  0
LINE
  8
0
 10
-37.9429
 20
34.3434
 11
-38.0114
 21
34.0369
  0
LINE
  8
0
 10
-38.0114
 20
34.0369
 11
-38.0606
 21
33.7267
  0
LINE
  8
0
 10
-38.0606
 20
33.7267
 11
-38.0901
 21
33.4139
  0
LINE
  8
0
 10
-38.0901
 20
33.4139
 11
-38.1
 21
33.1
  0
LINE
  8
0
 10
-38.1
 20
33.1
 11
-38.1
 21
-33.1
  0
LINE
  8
0
 10
-38.1
 20
-33.1
 11
-38.0901
 21
-33.4139
  0
LINE
  8
0
 10
-38.0901
 20
-33.4139
 11
-38.0606
 21
-33.7267
  0
LINE
  8
0
 10
-38.0606
 20
-33.7267
 11
-38.0114
 21
-34.0369
  0
LINE
  8
0
 10
-38.0114
 20
-34.0369
 11
-37.9429
 21
-34.3434
  0
LINE
  8
0
 10
-37.9429
 20
-34.3434
 11
-37.8553
 21
-34.6451
  0
LINE
  8
0
 10
-37.8553
 20
-34.6451
 11
-37.7489
 21
-34.9406
  0
LINE
  8
0
 10
-37.7489
 20
-34.9406
 11
-37.6241
 21
-35.2289
  0
LINE
  8
0
 10
-37.6241
 20
-35.2289
 11
-37.4815
 21
-35.5088
  0
LINE
  8
0
 10
-37.4815
 20
-35.5088
 11
-37.3216
 21
-35.7791
  0
LINE
  8
0
 10
-37.3216
 20
-35.7791
 11
-37.1451
 21
-36.0389
  0
LINE
  8
0
 10
-37.1451
 20
-36.0389
 11
-36.9525
 21
-36.2871
  0
LINE
  8
0
 10
-36.9525
 20
-36.2871
 11
-36.7448
 21
-36.5227
  0
LINE
  8
0
 10
-36.7448
 20
-36.5227
 11
-36.5227
 21
-36.7448
  0
LINE
  8
0
 10
-36.5227
 20
-36.7448
 11
-36.2871
 21
-36.9525
  0
LINE
  8
0
 10
-36.2871
 20
-36.9525
 11
-36.0389
 21
-37.1451
  0
LINE
  8
0
 10
-36.0389
 20
-37.1451
 11
-35.7791
 21
-37.3216
  0
LINE
  8
0
 10
-35.7791
 20
-37.3216
 11
-35.5088
 21
-37.4815
  0
LINE
  8
0
 10
-35.5088
 20
-37.4815
 11
-35.2289
 21
-37.6241
  0
LINE
  8
0
 10
-35.2289
 20
-37.6241
 11
-34.9406
 21
-37.7489
  0
LINE
  8
0
 10
-34.9406
 20
-37.7489
 11
-34.6451
 21
-37.8553
  0
LINE
  8
0
 10
-34.6451
 20
-37.8553
 11
-34.3434
 21
-37.9429
  0
LINE
  8
0
 10
-34.3434
 20
-37.9429
 11
-34.0369
 21
-38.0114
  0
LINE
  8
0
 10
-34.0369
 20
-38.0114
 11
-33.7267
 21
-38.0606
  0
LINE
  8
0
 10
-33.7267
 20
-38.0606
 11
-33.4139
 21
-38.0901
  0
LINE
  8
0
 10
-33.4139
 20
-38.0901
 11
-33.1
 21
-38.1
  0
LINE
  8
0
 10
-33.1
 20
-38.1
 11
33.1
 21
-38.1
  0
LINE
  8
0
 10
33.1
 20
-38.1
 11
33.4139
 21
-38.0901
  0
LINE
  8
0
 10
29.3695
 20
25.6578
 11
29.1213
 21
25.6813
  0
LINE
  8
0
 10
29.1213
 20
25.6813
 11
28.8751
 21
25.7203
  0
LINE
  8
0
 10
28.8751
 20
25.7203
 11
28.6318
 21
25.7747
  0
LINE
  8
0
 10
28.6318
 20
25.7747
 11
28.3923
 21
25.8442
  0
LINE
  8
0
 10
28.3923
 20
25.8442
 11
28.1577
 21
25.9287
  0
LINE
  8
0
 10
28.1577
 20
25.9287
 11
27.9289
 21
26.0277
  0
LINE
  8
0
 10
27.9289
 20
26.0277
 11
27.7068
 21
26.1409
  0
LINE
  8
0
 10
27.7068
 20
26.1409
 11
27.4922
 21
26.2678
  0
LINE
  8
0
 10
27.4922
 20
26.2678
 11
27.286
 21
26.408
  0
LINE
  8
0
 10
27.286
 20
26.408
 11
27.089
 21
26.5608
  0
LINE
  8
0
 10
27.089
 20
26.5608
 11
26.9019
 21
26.7256
  0
LINE
  8
0
 10
26.9019
 20
26.7256
 11
26.7256
 21
26.9019
  0
LINE
  8
0
 10
26.7256
 20
26.9019
 11
26.5608
 21
27.089
  0
LINE
  8
0
 10
26.5608
 20
27.089
 11
26.408
 21
27.286
  0
LINE
  8
0
 10
26.408
 20
27.286
 11
26.2678
 21
27.4922
  0
LINE
  8
0
 10
26.2678
 20
27.4922
 11
26.1409
 21
27.7068
  0
LINE
  8
0
 10
26.1409
 20
27.7068
 11
26.0277
 21
27.9289
  0
LINE
  8
0
 10
26.0277
 20
27.9289
 11
25.9287
 21
28.1577
  0
LINE
  8
0
 10
25.9287
 20
28.1577
 11
25.8442
 21
28.3923
  0
LINE
  8
0
 10
25.8442
 20
28.3923
 11
25.7747
 21
28.6318
  0
LINE
  8
0
 10
25.7747
 20
28.6318
 11
25.7203
 21
28.8751
  0
LINE
  8
0
 10
25.7203
 20
28.8751
 11
25.6813
 21
29.1213
  0
LINE
  8
0
 10
25.6813
 20
29.1213
 11
25.6578
 21
29.3695
  0
LINE
  8
0
 10
25.6578
 20
29.3695
 11
25.65
 21
29.6187
  0
LINE
  8
0
 10
25.65
 20
29.6187
 11
25.6578
 21
29.8679
  0
LINE
  8
0
 10
25.6578
 20
29.8679
 11
25.6813
 21
30.1162
  0
LINE
  8
0
 10
25.6813
 20
30.1162
 11
25.7203
 21
30.3624
  0
LINE
  8
0
 10
25.7203
 20
30.3624
 11
25.7747
 21
30.6057
  0
LINE
  8
0
 10
25.7747
 20
30.6057
 11
25.8442
 21
30.8452
  0
LINE
  8
0
 10
25.8442
 20
30.8452
 11
25.9287
 21
31.0797
  0
LINE
  8
0
 10
25.9287
 20
31.0797
 11
26.0277
 21
31.3085
  0
LINE
  8
0
 10
26.0277
 20
31.3085
 11
26.1409
 21
31.5307
  0
LINE
  8
0
 10
26.1409
 20
31.5307
 11
26.2678
 21
31.7453
  0
LINE
  8
0
 10
26.2678
 20
31.7453
 11
26.408
 21
31.9515
  0
LINE
  8
0
 10
26.408
 20
31.9515
 11
26.5608
 21
32.1485
  0
LINE
  8
0
 10
26.5608
 20
32.1485
 11
26.7256
 21
32.3355
  0
LINE
  8
0
 10
26.7256
 20
32.3355
 11
26.9019
 21
32.5118
  0
LINE
  8
0
 10
26.9019
 20
32.5118
 11
27.089
 21
32.6767
  0
LINE
  8
0
 10
27.089
 20
32.6767
 11
27.286
 21
32.8295
  0
LINE
  8
0
 10
27.286
 20
32.8295
 11
27.4922
 21
32.9697
  0
LINE
  8
0
 10
27.4922
 20
32.9697
 11
27.7068
 21
33.0966
  0
LINE
  8
0
 10
27.7068
 20
33.0966
 11
27.9289
 21
33.2098
  0
LINE
  8
0
 10
27.9289
 20
33.2098
 11
28.1577
 21
33.3088
  0
LINE
  8
0
 10
28.1577
 20
33.3088
 11
28.3923
 21
33.3932
  0
LINE
  8
0
 10
28.3923
 20
33.3932
 11
28.6318
 21
33.4628
  0
LINE
  8
0
 10
28.6318
 20
33.4628
 11
28.8751
 21
33.5172
  0
LINE
  8
0
 10
28.8751
 20
33.5172
 11
29.1213
 21
33.5562
  0
LINE
  8
0
 10
29.1213
 20
33.5562
 11
29.3695
 21
33.5797
  0
LINE
  8
0
 10
29.3695
 20
33.5797
 11
29.6187
 21
33.5875
  0
LINE
  8
0
 10
29.6187
 20
33.5875
 11
29.8679
 21
33.5797
  0
LINE
  8
0
 10
29.8679
 20
33.5797
 11
30.1162
 21
33.5562
  0
LINE
  8
0
 10
30.1162
 20
33.5562
 11
30.3624
 21
33.5172
  0
LINE
  8
0
 10
30.3624
 20
33.5172
 11
30.6057
 21
33.4628
  0
LINE
  8
0
 10
30.6057
 20
33.4628
 11
30.8452
 21
33.3932
  0
LINE
  8
0
 10
30.8452
 20
33.3932
 11
31.0797
 21
33.3088
  0
LINE
  8
0
 10
31.0797
 20
33.3088
 11
31.3085
 21
33.2098
  0
LINE
  8
0
 10
31.3085
 20
33.2098
 11
31.5307
 21
33.0966
  0
LINE
  8
0
 10
31.5307
 20
33.0966
 11
31.7453
 21
32.9697
  0
LINE
  8
0
 10
31.7453
 20
32.9697
 11
31.9515
 21
32.8295
  0
LINE
  8
0
 10
31.9515
 20
32.8295
 11
32.1485
 21
32.6767
  0
LINE
  8
0
 10
32.1485
 20
32.6767
 11
32.3355
 21
32.5118
  0
LINE
  8
0
 10
32.3355
 20
32.5118
 11
32.5118
 21
32.3355
  0
LINE
  8
0
 10
32.5118
 20
32.3355
 11
32.6767
 21
32.1485
  0
LINE
  8
0
 10
32.6767
 20
32.1485
 11
32.8295
 21
31.9515
  0
LINE
  8
0
 10
32.8295
 20
31.9515
 11
32.9697
 21
31.7453
  0
LINE
  8
0
 10
32.9697
 20
31.7453
 11
33.0966
 21
31.5307
  0
LINE
  8
0
 10
33.0966
 20
31.5307
 11
33.2098
 21
31.3085
  0
LINE
  8
0
 10
33.2098
 20
31.3085
 11
33.3088
 21
31.0797
  0
LINE
  8
0
 10
33.3088
 20
31.0797
 11
33.3932
 21
30.8452
  0
LINE
  8
0
 10
33.3932
 20
30.8452
 11
33.4628
 21
30.6057
  0
LINE
  8
0
 10
33.4628
 20
30.6057
 11
33.5172
 21
30.3624
  0
LINE
  8
0
 10
33.5172
 20
30.3624
 11
33.5562
 21
30.1162
  0
LINE
  8
0
 10
33.5562
 20
30.1162
 11
33.5797
 21
29.8679
  0
LINE
  8
0
 10
33.5797
 20
29.8679
 11
33.5875
 21
29.6187
  0
LINE
  8
0
 10
33.5875
 20
29.6187
 11
33.5797
 21
29.3695
  0
LINE
  8
0
 10
33.5797
 20
29.3695
 11
33.5562
 21
29.1213
  0
LINE
  8
0
 10
33.5562
 20
29.1213
 11
33.5172
 21
28.8751
  0
LINE
  8
0
 10
33.5172
 20
28.8751
 11
33.4628
 21
28.6318
  0
LINE
  8
0
 10
33.4628
 20
28.6318
 11
33.3932
 21
28.3923
  0
LINE
  8
0
 10
33.3932
 20
28.3923
 11
33.3088
 21
28.1577
  0
LINE
  8
0
 10
33.3088
 20
28.1577
 11
33.2098
 21
27.9289
  0
LINE
  8
0
 10
33.2098
 20
27.9289
 11
33.0966
 21
27.7068
  0
LINE
  8
0
 10
33.0966
 20
27.7068
 11
32.9697
 21
27.4922
  0
LINE
  8
0
 10
32.9697
 20
27.4922
 11
32.8295
 21
27.286
  0
LINE
  8
0
 10
32.8295
 20
27.286
 11
32.6767
 21
27.089
  0
LINE
  8
0
 10
32.6767
 20
27.089
 11
32.5118
 21
26.9019
  0
LINE
  8
0
 10
32.5118
 20
26.9019
 11
32.3355
 21
26.7256
  0
LINE
  8
0
 10
32.3355
 20
26.7256
 11
32.1485
 21
26.5608
  0
LINE
  8
0
 10
32.1485
 20
26.5608
 11
31.9515
 21
26.408
  0
LINE
  8
0
 10
31.9515
 20
26.408
 11
31.7453
 21
26.2678
  0
LINE
  8
0
 10
31.7453
 20
26.2678
 11
31.5307
 21
26.1409
  0
LINE
  8
0
 10
31.5307
 20
26.1409
 11
31.3085
 21
26.0277
  0
LINE
  8
0
 10
31.3085
 20
26.0277
 11
31.0797
 21
25.9287
  0
LINE
  8
0
 10
31.0797
 20
25.9287
 11
30.8452
 21
25.8442
  0
LINE
  8
0
 10
30.8452
 20
25.8442
 11
30.6057
 21
25.7747
  0
LINE
  8
0
 10
30.6057
 20
25.7747
 11
30.3624
 21
25.7203
  0
LINE
  8
0
 10
30.3624
 20
25.7203
 11
30.1162
 21
25.6813
  0
LINE
  8
0
 10
30.1162
 20
25.6813
 11
29.8679
 21
25.6578
  0
LINE
  8
0
 10
29.8679
 20
25.6578
 11
29.6187
 21
25.65
  0
LINE
  8
0
 10
29.6187
 20
25.65
 11
29.3695
 21
25.6578
  0
LINE
  8
0
 10
-29.8679
 20
25.6578
 11
-30.1162
 21
25.6813
  0
LINE
  8
0
 10
-30.1162
 20
25.6813
 11
-30.3624
 21
25.7203
  0
LINE
  8
0
 10
-30.3624
 20
25.7203
 11
-30.6057
 21
25.7747
  0
LINE
  8
0
 10
-30.6057
 20
25.7747
 11
-30.8452
 21
25.8442
  0
LINE
  8
0
 10
-30.8452
 20
25.8442
 11
-31.0797
 21
25.9287
  0
LINE
  8
0
 10
-31.0797
 20
25.9287
 11
-31.3085
 21
26.0277
  0
LINE
  8
0
 10
-31.3085
 20
26.0277
 11
-31.5307
 21
26.1409
  0
LINE
  8
0
 10
-31.5307
 20
26.1409
 11
-31.7453
 21
26.2678
  0
LINE
  8
0
 10
-31.7453
 20
26.2678
 11
-31.9515
 21
26.408
  0
LINE
  8
0
 10
-31.9515
 20
26.408
 11
-32.1485
 21
26.5608
  0
LINE
  8
0
 10
-32.1485
 20
26.5608
 11
-32.3355
 21
26.7256
  0
LINE
  8
0
 10
-32.3355
 20
26.7256
 11
-32.5118
 21
26.9019
  0
LINE
  8
0
 10
-32.5118
 20
26.9019
 11
-32.6767
 21
27.089
  0
LINE
  8
0
 10
-32.6767
 20
27.089
 11
-32.8295
 21
27.286
  0
LINE
  8
0
 10
-32.8295
 20
27.286
 11
-32.9697
 21
27.4922
  0
LINE
  8
0
 10
-32.9697
 20
27.4922
 11
-33.0966
 21
27.7068
  0
LINE
  8
0
 10
-33.0966
 20
27.7068
 11
-33.2098
 21
27.9289
  0
LINE
  8
0
 10
-33.2098
 20
27.9289
 11
-33.3088
 21
28.1577
  0
LINE
  8
0
 10
-33.3088
 20
28.1577
 11
-33.3932
 21
28.3923
  0
LINE
  8
0
 10
-33.3932
 20
28.3923
 11
-33.4628
 21
28.6318
  0
LINE
  8
0
 10
-33.4628
 20
28.6318
 11
-33.5172
 21
28.8751
  0
LINE
  8
0
 10
-33.5172
 20
28.8751
 11
-33.5562
 21
29.1213
  0
LINE
  8
0
 10
-33.5562
 20
29.1213
 11
-33.5797
 21
29.3695
  0
LINE
  8
0
 10
-33.5797
 20
29.3695
 11
-33.5875
 21
29.6187
  0
LINE
  8
0
 10
-33.5875
 20
29.6187
 11
-33.5797
 21
29.8679
  0
LINE
  8
0
 10
-33.5797
 20
29.8679
 11
-33.5562
 21
30.1162
  0
LINE
  8
0
 10
-33.5562
 20
30.1162
 11
-33.5172
 21
30.3624
  0
LINE
  8
0
 10
-33.5172
 20
30.3624
 11
-33.4628
 21
30.6057
  0
LINE
  8
0
 10
-33.4628
 20
30.6057
 11
-33.3932
 21
30.8452
  0
LINE
  8
0
 10
-33.3932
 20
30.8452
 11
-33.3088
 21
31.0797
  0
LINE
  8
0
 10
-33.3088
 20
31.0797
 11
-33.2098
 21
31.3085
  0
LINE
  8
0
 10
-33.2098
 20
31.3085
 11
-33.0966
 21
31.5307
  0
LINE
  8
0
 10
-33.0966
 20
31.5307
 11
-32.9697
 21
31.7453
  0
LINE
  8
0
 10
-32.9697
 20
31.7453
 11
-32.8295
 21
31.9515
  0
LINE
  8
0
 10
-32.8295
 20
31.9515
 11
-32.6767
 21
32.1485
  0
LINE
  8
0
 10
-32.6767
 20
32.1485
 11
-32.5118
 21
32.3355
  0
LINE
  8
0
 10
-32.5118
 20
32.3355
 11
-32.3355
 21
32.5118
  0
LINE
  8
0
 10
-32.3355
 20
32.5118
 11
-32.1485
 21
32.6767
  0
LINE
  8
0
 10
-32.1485
 20
32.6767
 11
-31.9515
 21
32.8295
  0
LINE
  8
0
 10
-31.9515
 20
32.8295
 11
-31.7453
 21
32.9697
  0
LINE
  8
0
 10
-31.7453
 20
32.9697
 11
-31.5307
 21
33.0966
  0
LINE
  8
0
 10
-31.5307
 20
33.0966
 11
-31.3085
 21
33.2098
  0
LINE
  8
0
 10
-31.3085
 20
33.2098
 11
-31.0797
 21
33.3088
  0
LINE
  8
0
 10
-31.0797
 20
33.3088
 11
-30.8452
 21
33.3932
  0
LINE
  8
0
 10
-30.8452
 20
33.3932
 11
-30.6057
 21
33.4628
  0
LINE
  8
0
 10
-30.6057
 20
33.4628
 11
-30.3624
 21
33.5172
  0
LINE
  8
0
 10
-30.3624
 20
33.5172
 11
-30.1162
 21
33.5562
  0
LINE
  8
0
 10
-30.1162
 20
33.5562
 11
-29.8679
 21
33.5797
  0
LINE
  8
0
 10
-29.8679
 20
33.5797
 11
-29.6187
 21
33.5875
  0
LINE
  8
0
 10
-29.6187
 20
33.5875
 11
-29.3695
 21
33.5797
  0
LINE
  8
0
 10
-29.3695
 20
33.5797
 11
-29.1213
 21
33.5562
  0
LINE
  8
0
 10
-29.1213
 20
33.5562
 11
-28.8751
 21
33.5172
  0
LINE
  8
0
 10
-28.8751
 20
33.5172
 11
-28.6318
 21
33.4628
  0
LINE
  8
0
 10
-28.6318
 20
33.4628
 11
-28.3923
 21
33.3932
  0
LINE
  8
0
 10
-28.3923
 20
33.3932
 11
-28.1577
 21
33.3088
  0
LINE
  8
0
 10
-28.1577
 20
33.3088
 11
-27.9289
 21
33.2098
  0
LINE
  8
0
 10
-27.9289
 20
33.2098
 11
-27.7068
 21
33.0966
  0
LINE
  8
0
 10
-27.7068
 20
33.0966
 11
-27.4922
 21
32.9697
  0
LINE
  8
0
 10
-27.4922
 20
32.9697
 11
-27.286
 21
32.8295
  0
LINE
  8
0
 10
-27.286
 20
32.8295
 11
-27.089
 21
32.6767
  0
LINE
  8
0
 10
-27.089
 20
32.6767
 11
-26.9019
 21
32.5118
  0
LINE
  8
0
 10
-26.9019
 20
32.5118
 11
-26.7256
 21
32.3355
  0
LINE
  8
0
 10
-26.7256
 20
32.3355
 11
-26.5608
 21
32.1485
  0
LINE
  8
0
 10
-26.5608
 20
32.1485
 11
-26.408
 21
31.9515
  0
LINE
  8
0
 10
-26.408
 20
31.9515
 11
-26.2678
 21
31.7453
  0
LINE
  8
0
 10
-26.2678
 20
31.7453
 11
-26.1409
 21
31.5307
  0
LINE
  8
0
 10
-26.1409
 20
31.5307
 11
-26.0277
 21
31.3085
  0
LINE
  8
0
 10
-26.0277
 20
31.3085
 11
-25.9287
 21
31.0797
  0
LINE
  8
0
 10
-25.9287
 20
31.0797
 11
-25.8442
 21
30.8452
  0
LINE
  8
0
 10
-25.8442
 20
30.8452
 11
-25.7747
 21
30.6057
  0
LINE
  8
0
 10
-25.7747
 20
30.6057
 11
-25.7203
 21
30.3624
  0
LINE
  8
0
 10
-25.7203
 20
30.3624
 11
-25.6813
 21
30.1162
  0
LINE
  8
0
 10
-25.6813
 20
30.1162
 11
-25.6578
 21
29.8679
  0
LINE
  8
0
 10
-25.6578
 20
29.8679
 11
-25.65
 21
29.6187
  0
LINE
  8
0
 10
-25.65
 20
29.6187
 11
-25.6578
 21
29.3695
  0
LINE
  8
0
 10
-25.6578
 20
29.3695
 11
-25.6813
 21
29.1213
  0
LINE
  8
0
 10
-25.6813
 20
29.1213
 11
-25.7203
 21
28.8751
  0
LINE
  8
0
 10
-25.7203
 20
28.8751
 11
-25.7747
 21
28.6318
  0
LINE
  8
0
 10
-25.7747
 20
28.6318
 11
-25.8442
 21
28.3923
  0
LINE
  8
0
 10
-25.8442
 20
28.3923
 11
-25.9287
 21
28.1577
  0
LINE
  8
0
 10
-25.9287
 20
28.1577
 11
-26.0277
 21
27.9289
  0
LINE
  8
0
 10
-26.0277
 20
27.9289
 11
-26.1409
 21
27.7068
  0
LINE
  8
0
 10
-26.1409
 20
27.7068
 11
-26.2678
 21
27.4922
  0
LINE
  8
0
 10
-26.2678
 20
27.4922
 11
-26.408
 21
27.286
  0
LINE
  8
0
 10
-26.408
 20
27.286
 11
-26.5608
 21
27.089
  0
LINE
  8
0
 10
-26.5608
 20
27.089
 11
-26.7256
 21
26.9019
  0
LINE
  8
0
 10
-26.7256
 20
26.9019
 11
-26.9019
 21
26.7256
  0
LINE
  8
0
 10
-26.9019
 20
26.7256
 11
-27.089
 21
26.5608
  0
LINE
  8
0
 10
-27.089
 20
26.5608
 11
-27.286
 21
26.408
  0
LINE
  8
0
 10
-27.286
 20
26.408
 11
-27.4922
 21
26.2678
  0
LINE
  8
0
 10
-27.4922
 20
26.2678
 11
-27.7068
 21
26.1409
  0
LINE
  8
0
 10
-27.7068
 20
26.1409
 11
-27.9289
 21
26.0277
  0
LINE
  8
0
 10
-27.9289
 20
26.0277
 11
-28.1577
 21
25.9287
  0
LINE
  8
0
 10
-28.1577
 20
25.9287
 11
-28.3923
 21
25.8442
  0
LINE
  8
0
 10
-28.3923
 20
25.8442
 11
-28.6318
 21
25.7747
  0
LINE
  8
0
 10
-28.6318
 20
25.7747
 11
-28.8751
 21
25.7203
  0
LINE
  8
0
 10
-28.8751
 20
25.7203
 11
-29.1213
 21
25.6813
  0
LINE
  8
0
 10
-29.1213
 20
25.6813
 11
-29.3695
 21
25.6578
  0
LINE
  8
0
 10
-29.3695
 20
25.6578
 11
-29.6187
 21
25.65
  0
LINE
  8
0
 10
-29.6187
 20
25.65
 11
-29.8679
 21
25.6578
  0
LINE
  8
0
 10
14.4932
 20
27.6227
 11
14.3681
 21
27.6345
  0
LINE
  8
0
 10
14.3681
 20
27.6345
 11
14.244
 21
27.6542
  0
LINE
  8
0
 10
14.244
 20
27.6542
 11
14.1214
 21
27.6816
  0
LINE
  8
0
 10
14.1214
 20
27.6816
 11
14.0007
 21
27.7166
  0
LINE
  8
0
 10
14.0007
 20
27.7166
 11
13.8825
 21
27.7592
  0
LINE
  8
0
 10
13.8825
 20
27.7592
 11
13.7672
 21
27.8091
  0
LINE
  8
0
 10
13.7672
 20
27.8091
 11
13.6552
 21
27.8661
  0
LINE
  8
0
 10
13.6552
 20
27.8661
 11
13.5471
 21
27.9301
  0
LINE
  8
0
 10
13.5471
 20
27.9301
 11
13.4432
 21
28.0007
  0
LINE
  8
0
 10
13.4432
 20
28.0007
 11
13.3439
 21
28.0777
  0
LINE
  8
0
 10
13.3439
 20
28.0777
 11
13.2496
 21
28.1608
  0
LINE
  8
0
 10
13.2496
 20
28.1608
 11
13.1608
 21
28.2496
  0
LINE
  8
0
 10
13.1608
 20
28.2496
 11
13.0777
 21
28.3439
  0
LINE
  8
0
 10
13.0777
 20
28.3439
 11
13.0007
 21
28.4432
  0
LINE
  8
0
 10
13.0007
 20
28.4432
 11
12.9301
 21
28.5471
  0
LINE
  8
0
 10
12.9301
 20
28.5471
 11
12.8661
 21
28.6552
  0
LINE
  8
0
 10
12.8661
 20
28.6552
 11
12.8091
 21
28.7672
  0
LINE
  8
0
 10
12.8091
 20
28.7672
 11
12.7592
 21
28.8825
  0
LINE
  8
0
 10
12.7592
 20
28.8825
 11
12.7166
 21
29.0007
  0
LINE
  8
0
 10
12.7166
 20
29.0007
 11
12.6816
 21
29.1214
  0
LINE
  8
0
 10
12.6816
 20
29.1214
 11
12.6542
 21
29.244
  0
LINE
  8
0
 10
12.6542
 20
29.244
 11
12.6345
 21
29.3681
  0
LINE
  8
0
 10
12.6345
 20
29.3681
 11
12.6227
 21
29.4932
  0
LINE
  8
0
 10
12.6227
 20
29.4932
 11
12.6187
 21
29.6187
  0
LINE
  8
0
 10
12.6187
 20
29.6187
 11
12.6227
 21
29.7443
  0
LINE
  8
0
 10
12.6227
 20
29.7443
 11
12.6345
 21
29.8694
  0
LINE
  8
0
 10
12.6345
 20
29.8694
 11
12.6542
 21
29.9935
  0
LINE
  8
0
 10
12.6542
 20
29.9935
 11
12.6816
 21
30.1161
  0
LINE
  8
0
 10
12.6816
 20
30.1161
 11
12.7166
 21
30.2368
  0
LINE
  8
0
 10
12.7166
 20
30.2368
 11
12.7592
 21
30.355
  0
LINE
  8
0
 10
12.7592
 20
30.355
 11
12.8091
 21
30.4703
  0
LINE
  8
0
 10
12.8091
 20
30.4703
 11
12.8661
 21
30.5822
  0
LINE
  8
0
 10
12.8661
 20
30.5822
 11
12.9301
 21
30.6904
  0
LINE
  8
0
 10
12.9301
 20
30.6904
 11
13.0007
 21
30.7943
  0
LINE
  8
0
 10
13.0007
 20
30.7943
 11
13.0777
 21
30.8936
  0
LINE
  8
0
 10
13.0777
 20
30.8936
 11
13.1608
 21
30.9878
  0
LINE
  8
0
 10
13.1608
 20
30.9878
 11
13.2496
 21
31.0767
  0
LINE
  8
0
 10
13.2496
 20
31.0767
 11
13.3439
 21
31.1598
  0
LINE
  8
0
 10
13.3439
 20
31.1598
 11
13.4432
 21
31.2368
  0
LINE
  8
0
 10
13.4432
 20
31.2368
 11
13.5471
 21
31.3074
  0
LINE
  8
0
 10
13.5471
 20
31.3074
 11
13.6552
 21
31.3714
  0
LINE
  8
0
 10
13.6552
 20
31.3714
 11
13.7672
 21
31.4284
  0
LINE
  8
0
 10
13.7672
 20
31.4284
 11
13.8825
 21
31.4783
  0
LINE
  8
0
 10
13.8825
 20
31.4783
 11
14.0007
 21
31.5209
  0
LINE
  8
0
 10
14.0007
 20
31.5209
 11
14.1214
 21
31.5559
  0
LINE
  8
0
 10
14.1214
 20
31.5559
 11
14.244
 21
31.5833
  0
LINE
  8
0
 10
14.244
 20
31.5833
 11
14.3681
 21
31.603
  0
LINE
  8
0
 10
14.3681
 20
31.603
 11
14.4932
 21
31.6148
  0
LINE
  8
0
 10
14.4932
 20
31.6148
 11
14.6187
 21
31.6187
  0
LINE
  8
0
 10
14.6187
 20
31.6187
 11
14.7443
 21
31.6148
  0
LINE
  8
0
 10
14.7443
 20
31.6148
 11
14.8694
 21
31.603
  0
LINE
  8
0
 10
14.8694
 20
31.603
 11
14.9935
 21
31.5833
  0
LINE
  8
0
 10
14.9935
 20
31.5833
 11
15.1161
 21
31.5559
  0
LINE
  8
0
 10
15.1161
 20
31.5559
 11
15.2368
 21
31.5209
  0
LINE
  8
0
 10
15.2368
 20
31.5209
 11
15.355
 21
31.4783
  0
LINE
  8
0
 10
15.355
 20
31.4783
 11
15.4703
 21
31.4284
  0
LINE
  8
0
 10
15.4703
 20
31.4284
 11
15.5822
 21
31.3714
  0
LINE
  8
0
 10
15.5822
 20
31.3714
 11
15.6904
 21
31.3074
  0
LINE
  8
0
 10
15.6904
 20
31.3074
 11
15.7943
 21
31.2368
  0
LINE
  8
0
 10
15.7943
 20
31.2368
 11
15.8936
 21
31.1598
  0
LINE
  8
0
 10
15.8936
 20
31.1598
 11
15.9878
 21
31.0767
  0
LINE
  8
0
 10
15.9878
 20
31.0767
 11
16.0767
 21
30.9878
  0
LINE
  8
0
 10
16.0767
 20
30.9878
 11
16.1598
 21
30.8936
  0
LINE
  8
0
 10
16.1598
 20
30.8936
 11
16.2368
 21
30.7943
  0
LINE
  8
0
 10
16.2368
 20
30.7943
 11
16.3074
 21
30.6904
  0
LINE
  8
0
 10
16.3074
 20
30.6904
 11
16.3714
 21
30.5822
  0
LINE
  8
0
 10
16.3714
 20
30.5822
 11
16.4284
 21
30.4703
  0
LINE
  8
0
 10
16.4284
 20
30.4703
 11
16.4783
 21
30.355
  0
LINE
  8
0
 10
16.4783
 20
30.355
 11
16.5209
 21
30.2368
  0
LINE
  8
0
 10
16.5209
 20
30.2368
 11
16.5559
 21
30.1161
  0
LINE
  8
0
 10
16.5559
 20
30.1161
 11
16.5833
 21
29.9935
  0
LINE
  8
0
 10
16.5833
 20
29.9935
 11
16.603
 21
29.8694
  0
LINE
  8
0
 10
16.603
 20
29.8694
 11
16.6148
 21
29.7443
  0
LINE
  8
0
 10
16.6148
 20
29.7443
 11
16.6187
 21
29.6187
  0
LINE
  8
0
 10
16.6187
 20
29.6187
 11
16.6148
 21
29.4932
  0
LINE
  8
0
 10
16.6148
 20
29.4932
 11
16.603
 21
29.3681
  0
LINE
  8
0
 10
16.603
 20
29.3681
 11
16.5833
 21
29.244
  0
LINE
  8
0
 10
16.5833
 20
29.244
 11
16.5559
 21
29.1214
  0
LINE
  8
0
 10
16.5559
 20
29.1214
 11
16.5209
 21
29.0007
  0
LINE
  8
0
 10
16.5209
 20
29.0007
 11
16.4783
 21
28.8825
  0
LINE
  8
0
 10
16.4783
 20
28.8825
 11
16.4284
 21
28.7672
  0
LINE
  8
0
 10
16.4284
 20
28.7672
 11
16.3714
 21
28.6552
  0
LINE
  8
0
 10
16.3714
 20
28.6552
 11
16.3074
 21
28.5471
  0
LINE
  8
0
 10
16.3074
 20
28.5471
 11
16.2368
 21
28.4432
  0
LINE
  8
0
 10
16.2368
 20
28.4432
 11
16.1598
 21
28.3439
  0
LINE
  8
0
 10
16.1598
 20
28.3439
 11
16.0767
 21
28.2496
  0
LINE
  8
0
 10
16.0767
 20
28.2496
 11
15.9878
 21
28.1608
  0
LINE
  8
0
 10
15.9878
 20
28.1608
 11
15.8936
 21
28.0777
  0
LINE
  8
0
 10
15.8936
 20
28.0777
 11
15.7943
 21
28.0007
  0
LINE
  8
0
 10
15.7943
 20
28.0007
 11
15.6904
 21
27.9301
  0
LINE
  8
0
 10
15.6904
 20
27.9301
 11
15.5822
 21
27.8661
  0
LINE
  8
0
 10
15.5822
 20
27.8661
 11
15.4703
 21
27.8091
  0
LINE
  8
0
 10
15.4703
 20
27.8091
 11
15.355
 21
27.7592
  0
LINE
  8
0
 10
15.355
 20
27.7592
 11
15.2368
 21
27.7166
  0
LINE
  8
0
 10
15.2368
 20
27.7166
 11
15.1161
 21
27.6816
  0
LINE
  8
0
 10
15.1161
 20
27.6816
 11
14.9935
 21
27.6542
  0
LINE
  8
0
 10
14.9935
 20
27.6542
 11
14.8694
 21
27.6345
  0
LINE
  8
0
 10
14.8694
 20
27.6345
 11
14.7443
 21
27.6227
  0
LINE
  8
0
 10
14.7443
 20
27.6227
 11
14.6187
 21
27.6187
  0
LINE
  8
0
 10
14.6187
 20
27.6187
 11
14.4932
 21
27.6227
  0
LINE
  8
0
 10
-14.7443
 20
27.6227
 11
-14.8694
 21
27.6345
  0
LINE
  8
0
 10
-14.8694
 20
27.6345
 11
-14.9935
 21
27.6542
  0
LINE
  8
0
 10
-14.9935
 20
27.6542
 11
-15.1161
 21
27.6816
  0
LINE
  8
0
 10
-15.1161
 20
27.6816
 11
-15.2368
 21
27.7166
  0
LINE
  8
0
 10
-15.2368
 20
27.7166
 11
-15.355
 21
27.7592
  0
LINE
  8
0
 10
-15.355
 20
27.7592
 11
-15.4703
 21
27.8091
  0
LINE
  8
0
 10
-15.4703
 20
27.8091
 11
-15.5822
 21
27.8661
  0
LINE
  8
0
 10
-15.5822
 20
27.8661
 11
-15.6904
 21
27.9301
  0
LINE
  8
0
 10
-15.6904
 20
27.9301
 11
-15.7943
 21
28.0007
  0
LINE
  8
0
 10
-15.7943
 20
28.0007
 11
-15.8936
 21
28.0777
  0
LINE
  8
0
 10
-15.8936
 20
28.0777
 11
-15.9878
 21
28.1608
  0
LINE
  8
0
 10
-15.9878
 20
28.1608
 11
-16.0767
 21
28.2496
  0
LINE
  8
0
 10
-16.0767
 20
28.2496
 11
-16.1598
 21
28.3439
  0
LINE
  8
0
 10
-16.1598
 20
28.3439
 11
-16.2368
 21
28.4432
  0
LINE
  8
0
 10
-16.2368
 20
28.4432
 11
-16.3074
 21
28.5471
  0
LINE
  8
0
 10
-16.3074
 20
28.5471
 11
-16.3714
 21
28.6552
  0
LINE
  8
0
 10
-16.3714
 20
28.6552
 11
-16.4284
 21
28.7672
  0
LINE
  8
0
 10
-16.4284
 20
28.7672
 11
-16.4783
 21
28.8825
  0
LINE
  8
0
 10
-16.4783
 20
28.8825
 11
-16.5209
 21
29.0007
  0
LINE
  8
0
 10
-16.5209
 20
29.0007
 11
-16.5559
 21
29.1214
  0
LINE
  8
0
 10
-16.5559
 20
29.1214
 11
-16.5833
 21
29.244
  0
LINE
  8
0
 10
-16.5833
 20
29.244
 11
-16.603
 21
29.3681
  0
LINE
  8
0
 10
-16.603
 20
29.3681
 11
-16.6148
 21
29.4932
  0
LINE
  8
0
 10
-16.6148
 20
29.4932
 11
-16.6187
 21
29.6187
  0
LINE
  8
0
 10
-16.6187
 20
29.6187
 11
-16.6148
 21
29.7443
  0
LINE
  8
0
 10
-16.6148
 20
29.7443
 11
-16.603
 21
29.8694
  0
LINE
  8
0
 10
-16.603
 20
29.8694
 11
-16.5833
 21
29.9935
  0
LINE
  8
0
 10
-16.5833
 20
29.9935
 11
-16.5559
 21
30.1161
  0
LINE
  8
0
 10
-16.5559
 20
30.1161
 11
-16.5209
 21
30.2368
  0
LINE
  8
0
 10
-16.5209
 20
30.2368
 11
-16.4783
 21
30.355
  0
LINE
  8
0
 10
-16.4783
 20
30.355
 11
-16.4284
 21
30.4703
  0
LINE
  8
0
 10
-16.4284
 20
30.4703
 11
-16.3714
 21
30.5822
  0
LINE
  8
0
 10
-16.3714
 20
30.5822
 11
-16.3074
 21
30.6904
  0
LINE
  8
0
 10
-16.3074
 20
30.6904
 11
-16.2368
 21
30.7943
  0
LINE
  8
0
 10
-16.2368
 20
30.7943
 11
-16.1598
 21
30.8936
  0
LINE
  8
0
 10
-16.1598
 20
30.8936
 11
-16.0767
 21
30.9878
  0
LINE
  8
0
 10
-16.0767
 20
30.9878
 11
-15.9878
 21
31.0767
  0
LINE
  8
0
 10
-15.9878
 20
31.0767
 11
-15.8936
 21
31.1598
  0
LINE
  8
0
 10
-15.8936
 20
31.1598
 11
-15.7943
 21
31.2368
  0
LINE
  8
0
 10
-15.7943
 20
31.2368
 11
-15.6904
 21
31.3074
  0
LINE
  8
0
 10
-15.6904
 20
31.3074
 11
-15.5822
 21
31.3714
  0
LINE
  8
0
 10
-15.5822
 20
31.3714
 11
-15.4703
 21
31.4284
  0
LINE
  8
0
 10
-15.4703
 20
31.4284
 11
-15.355
 21
31.4783
  0
LINE
  8
0
 10
-15.355
 20
31.4783
 11
-15.2368
 21
31.5209
  0
LINE
  8
0
 10
-15.2368
 20
31.5209
 11
-15.1161
 21
31.5559
  0
LINE
  8
0
 10
-15.1161
 20
31.5559
 11
-14.9935
 21
31.5833
  0
LINE
  8
0
 10
-14.9935
 20
31.5833
 11
-14.8694
 21
31.603
  0
LINE
  8
0
 10
-14.8694
 20
31.603
 11
-14.7443
 21
31.6148
  0
LINE
  8
0
 10
-14.7443
 20
31.6148
 11
-14.6187
 21
31.6187
  0
LINE
  8
0
 10
-14.6187
 20
31.6187
 11
-14.4932
 21
31.6148
  0
LINE
  8
0
 10
-14.4932
 20
31.6148
 11
-14.3681
 21
31.603
  0
LINE
  8
0
 10
-14.3681
 20
31.603
 11
-14.244
 21
31.5833
  0
LINE
  8
0
 10
-14.244
 20
31.5833
 11
-14.1214
 21
31.5559
  0
LINE
  8
0
 10
-14.1214
 20
31.5559
 11
-14.0007
 21
31.5209
  0
LINE
  8
0
 10
-14.0007
 20
31.5209
 11
-13.8825
 21
31.4783
  0
LINE
  8
0
 10
-13.8825
 20
31.4783
 11
-13.7672
 21
31.4284
  0
LINE
  8
0
 10
-13.7672
 20
31.4284
 11
-13.6552
 21
31.3714
  0
LINE
  8
0
 10
-13.6552
 20
31.3714
 11
-13.5471
 21
31.3074
  0
LINE
  8
0
 10
-13.5471
 20
31.3074
 11
-13.4432
 21
31.2368
  0
LINE
  8
0
 10
-13.4432
 20
31.2368
 11
-13.3439
 21
31.1598
  0
LINE
  8
0
 10
-13.3439
 20
31.1598
 11
-13.2496
 21
31.0767
  0
LINE
  8
0
 10
-13.2496
 20
31.0767
 11
-13.1608
 21
30.9878
  0
LINE
  8
0
 10
-13.1608
 20
30.9878
 11
-13.0777
 21
30.8936
  0
LINE
  8
0
 10
-13.0777
 20
30.8936
 11
-13.0007
 21
30.7943
  0
LINE
  8
0
 10
-13.0007
 20
30.7943
 11
-12.9301
 21
30.6904
  0
LINE
  8
0
 10
-12.9301
 20
30.6904
 11
-12.8661
 21
30.5822
  0
LINE
  8
0
 10
-12.8661
 20
30.5822
 11
-12.8091
 21
30.4703
  0
LINE
  8
0
 10
-12.8091
 20
30.4703
 11
-12.7592
 21
30.355
  0
LINE
  8
0
 10
-12.7592
 20
30.355
 11
-12.7166
 21
30.2368
  0
LINE
  8
0
 10
-12.7166
 20
30.2368
 11
-12.6816
 21
30.1161
  0
LINE
  8
0
 10
-12.6816
 20
30.1161
 11
-12.6542
 21
29.9935
  0
LINE
  8
0
 10
-12.6542
 20
29.9935
 11
-12.6345
 21
29.8694
  0
LINE
  8
0
 10
-12.6345
 20
29.8694
 11
-12.6227
 21
29.7443
  0
LINE
  8
0
 10
-12.6227
 20
29.7443
 11
-12.6187
 21
29.6187
  0
LINE
  8
0
 10
-12.6187
 20
29.6187
 11
-12.6227
 21
29.4932
  0
LINE
  8
0
 10
-12.6227
 20
29.4932
 11
-12.6345
 21
29.3681
  0
LINE
  8
0
 10
-12.6345
 20
29.3681
 11
-12.6542
 21
29.244
  0
LINE
  8
0
 10
-12.6542
 20
29.244
 11
-12.6816
 21
29.1214
  0
LINE
  8
0
 10
-12.6816
 20
29.1214
 11
-12.7166
 21
29.0007
  0
LINE
  8
0
 10
-12.7166
 20
29.0007
 11
-12.7592
 21
28.8825
  0
LINE
  8
0
 10
-12.7592
 20
28.8825
 11
-12.8091
 21
28.7672
  0
LINE
  8
0
 10
-12.8091
 20
28.7672
 11
-12.8661
 21
28.6552
  0
LINE
  8
0
 10
-12.8661
 20
28.6552
 11
-12.9301
 21
28.5471
  0
LINE
  8
0
 10
-12.9301
 20
28.5471
 11
-13.0007
 21
28.4432
  0
LINE
  8
0
 10
-13.0007
 20
28.4432
 11
-13.0777
 21
28.3439
  0
LINE
  8
0
 10
-13.0777
 20
28.3439
 11
-13.1608
 21
28.2496
  0
LINE
  8
0
 10
-13.1608
 20
28.2496
 11
-13.2496
 21
28.1608
  0
LINE
  8
0
 10
-13.2496
 20
28.1608
 11
-13.3439
 21
28.0777
  0
LINE
  8
0
 10
-13.3439
 20
28.0777
 11
-13.4432
 21
28.0007
  0
LINE
  8
0
 10
-13.4432
 20
28.0007
 11
-13.5471
 21
27.9301
  0
LINE
  8
0
 10
-13.5471
 20
27.9301
 11
-13.6552
 21
27.8661
  0
LINE
  8
0
 10
-13.6552
 20
27.8661
 11
-13.7672
 21
27.8091
  0
LINE
  8
0
 10
-13.7672
 20
27.8091
 11
-13.8825
 21
27.7592
  0
LINE
  8
0
 10
-13.8825
 20
27.7592
 11
-14.0007
 21
27.7166
  0
LINE
  8
0
 10
-14.0007
 20
27.7166
 11
-14.1214
 21
27.6816
  0
LINE
  8
0
 10
-14.1214
 20
27.6816
 11
-14.244
 21
27.6542
  0
LINE
  8
0
 10
-14.244
 20
27.6542
 11
-14.3681
 21
27.6345
  0
LINE
  8
0
 10
-14.3681
 20
27.6345
 11
-14.4932
 21
27.6227
  0
LINE
  8
0
 10
-14.4932
 20
27.6227
 11
-14.6187
 21
27.6187
  0
LINE
  8
0
 10
-14.6187
 20
27.6187
 11
-14.7443
 21
27.6227
  0
LINE
  8
0
 10
-29.8679
 20
-33.5797
 11
-30.1162
 21
-33.5562
  0
LINE
  8
0
 10
-30.1162
 20
-33.5562
 11
-30.3624
 21
-33.5172
  0
LINE
  8
0
 10
-30.3624
 20
-33.5172
 11
-30.6057
 21
-33.4628
  0
LINE
  8
0
 10
-30.6057
 20
-33.4628
 11
-30.8452
 21
-33.3932
  0
LINE
  8
0
 10
-30.8452
 20
-33.3932
 11
-31.0797
 21
-33.3088
  0
LINE
  8
0
 10
-31.0797
 20
-33.3088
 11
-31.3085
 21
-33.2098
  0
LINE
  8
0
 10
-31.3085
 20
-33.2098
 11
-31.5307
 21
-33.0966
  0
LINE
  8
0
 10
-31.5307
 20
-33.0966
 11
-31.7453
 21
-32.9697
  0
LINE
  8
0
 10
-31.7453
 20
-32.9697
 11
-31.9515
 21
-32.8295
  0
LINE
  8
0
 10
-31.9515
 20
-32.8295
 11
-32.1485
 21
-32.6767
  0
LINE
  8
0
 10
-32.1485
 20
-32.6767
 11
-32.3355
 21
-32.5118
  0
LINE
  8
0
 10
-32.3355
 20
-32.5118
 11
-32.5118
 21
-32.3355
  0
LINE
  8
0
 10
-32.5118
 20
-32.3355
 11
-32.6767
 21
-32.1485
  0
LINE
  8
0
 10
-32.6767
 20
-32.1485
 11
-32.8295
 21
-31.9515
  0
LINE
  8
0
 10
-32.8295
 20
-31.9515
 11
-32.9697
 21
-31.7453
  0
LINE
  8
0
 10
-32.9697
 20
-31.7453
 11
-33.0966
 21
-31.5307
  0
LINE
  8
0
 10
-33.0966
 20
-31.5307
 11
-33.2098
 21
-31.3085
  0
LINE
  8
0
 10
-33.2098
 20
-31.3085
 11
-33.3088
 21
-31.0797
  0
LINE
  8
0
 10
-33.3088
 20
-31.0797
 11
-33.3932
 21
-30.8452
  0
LINE
  8
0
 10
-33.3932
 20
-30.8452
 11
-33.4628
 21
-30.6057
  0
LINE
  8
0
 10
-33.4628
 20
-30.6057
 11
-33.5172
 21
-30.3624
  0
LINE
  8
0
 10
-33.5172
 20
-30.3624
 11
-33.5562
 21
-30.1162
  0
LINE
  8
0
 10
-33.5562
 20
-30.1162
 11
-33.5797
 21
-29.8679
  0
LINE
  8
0
 10
-33.5797
 20
-29.8679
 11
-33.5875
 21
-29.6187
  0
LINE
  8
0
 10
-33.5875
 20
-29.6187
 11
-33.5797
 21
-29.3695
  0
LINE
  8
0
 10
-33.5797
 20
-29.3695
 11
-33.5562
 21
-29.1213
  0
LINE
  8
0
 10
-33.5562
 20
-29.1213
 11
-33.5172
 21
-28.8751
  0
LINE
  8
0
 10
-33.5172
 20
-28.8751
 11
-33.4628
 21
-28.6318
  0
LINE
  8
0
 10
-33.4628
 20
-28.6318
 11
-33.3932
 21
-28.3923
  0
LINE
  8
0
 10
-33.3932
 20
-28.3923
 11
-33.3088
 21
-28.1577
  0
LINE
  8
0
 10
-33.3088
 20
-28.1577
 11
-33.2098
 21
-27.9289
  0
LINE
  8
0
 10
-33.2098
 20
-27.9289
 11
-33.0966
 21
-27.7068
  0
LINE
  8
0
 10
-33.0966
 20
-27.7068
 11
-32.9697
 21
-27.4922
  0
LINE
  8
0
 10
-32.9697
 20
-27.4922
 11
-32.8295
 21
-27.286
  0
LINE
  8
0
 10
-32.8295
 20
-27.286
 11
-32.6767
 21
-27.089
  0
LINE
  8
0
 10
-32.6767
 20
-27.089
 11
-32.5118
 21
-26.9019
  0
LINE
  8
0
 10
-32.5118
 20
-26.9019
 11
-32.3355
 21
-26.7256
  0
LINE
  8
0
 10
-32.3355
 20
-26.7256
 11
-32.1485
 21
-26.5608
  0
LINE
  8
0
 10
-32.1485
 20
-26.5608
 11
-31.9515
 21
-26.408
  0
LINE
  8
0
 10
-31.9515
 20
-26.408
 11
-31.7453
 21
-26.2678
  0
LINE
  8
0
 10
-31.7453
 20
-26.2678
 11
-31.5307
 21
-26.1409
  0
LINE
  8
0
 10
-31.5307
 20
-26.1409
 11
-31.3085
 21
-26.0277
  0
LINE
  8
0
 10
-31.3085
 20
-26.0277
 11
-31.0797
 21
-25.9287
  0
LINE
  8
0
 10
-31.0797
 20
-25.9287
 11
-30.8452
 21
-25.8442
  0
LINE
  8
0
 10
-30.8452
 20
-25.8442
 11
-30.6057
 21
-25.7747
  0
LINE
  8
0
 10
-30.6057
 20
-25.7747
 11
-30.3624
 21
-25.7203
  0
LINE
  8
0
 10
-30.3624
 20
-25.7203
 11
-30.1162
 21
-25.6813
  0
LINE
  8
0
 10
-30.1162
 20
-25.6813
 11
-29.8679
 21
-25.6578
  0
LINE
  8
0
 10
-29.8679
 20
-25.6578
 11
-29.6187
 21
-25.65
  0
LINE
  8
0
 10
-29.6187
 20
-25.65
 11
-29.3695
 21
-25.6578
  0
LINE
  8
0
 10
-29.3695
 20
-25.6578
 11
-29.1213
 21
-25.6813
  0
LINE
  8
0
 10
-29.1213
 20
-25.6813
 11
-28.8751
 21
-25.7203
  0
LINE
  8
0
 10
-28.8751
 20
-25.7203
 11
-28.6318
 21
-25.7747
  0
LINE
  8
0
 10
-28.6318
 20
-25.7747
 11
-28.3923
 21
-25.8442
  0
LINE
  8
0
 10
-28.3923
 20
-25.8442
 11
-28.1577
 21
-25.9287
  0
LINE
  8
0
 10
-28.1577
 20
-25.9287
 11
-27.9289
 21
-26.0277
  0
LINE
  8
0
 10
-27.9289
 20
-26.0277
 11
-27.7068
 21
-26.1409
  0
LINE
  8
0
 10
-27.7068
 20
-26.1409
 11
-27.4922
 21
-26.2678
  0
LINE
  8
0
 10
-27.4922
 20
-26.2678
 11
-27.286
 21
-26.408
  0
LINE
  8
0
 10
-27.286
 20
-26.408
 11
-27.089
 21
-26.5608
  0
LINE
  8
0
 10
-27.089
 20
-26.5608
 11
-26.9019
 21
-26.7256
  0
LINE
  8
0
 10
-26.9019
 20
-26.7256
 11
-26.7256
 21
-26.9019
  0
LINE
  8
0
 10
-26.7256
 20
-26.9019
 11
-26.5608
 21
-27.089
  0
LINE
  8
0
 10
-26.5608
 20
-27.089
 11
-26.408
 21
-27.286
  0
LINE
  8
0
 10
-26.408
 20
-27.286
 11
-26.2678
 21
-27.4922
  0
LINE
  8
0
 10
-26.2678
 20
-27.4922
 11
-26.1409
 21
-27.7068
  0
LINE
  8
0
 10
-26.1409
 20
-27.7068
 11
-26.0277
 21
-27.9289
  0
LINE
  8
0
 10
-26.0277
 20
-27.9289
 11
-25.9287
 21
-28.1577
  0
LINE
  8
0
 10
-25.9287
 20
-28.1577
 11
-25.8442
 21
-28.3923
  0
LINE
  8
0
 10
-25.8442
 20
-28.3923
 11
-25.7747
 21
-28.6318
  0
LINE
  8
0
 10
-25.7747
 20
-28.6318
 11
-25.7203
 21
-28.8751
  0
LINE
  8
0
 10
-25.7203
 20
-28.8751
 11
-25.6813
 21
-29.1213
  0
LINE
  8
0
 10
-25.6813
 20
-29.1213
 11
-25.6578
 21
-29.3695
  0
LINE
  8
0
 10
-25.6578
 20
-29.3695
 11
-25.65
 21
-29.6187
  0
LINE
  8
0
 10
-25.65
 20
-29.6187
 11
-25.6578
 21
-29.8679
  0
LINE
  8
0
 10
-25.6578
 20
-29.8679
 11
-25.6813
 21
-30.1162
  0
LINE
  8
0
 10
-25.6813
 20
-30.1162
 11
-25.7203
 21
-30.3624
  0
LINE
  8
0
 10
-25.7203
 20
-30.3624
 11
-25.7747
 21
-30.6057
  0
LINE
  8
0
 10
-25.7747
 20
-30.6057
 11
-25.8442
 21
-30.8452
  0
LINE
  8
0
 10
-25.8442
 20
-30.8452
 11
-25.9287
 21
-31.0797
  0
LINE
  8
0
 10
-25.9287
 20
-31.0797
 11
-26.0277
 21
-31.3085
  0
LINE
  8
0
 10
-26.0277
 20
-31.3085
 11
-26.1409
 21
-31.5307
  0
LINE
  8
0
 10
-26.1409
 20
-31.5307
 11
-26.2678
 21
-31.7453
  0
LINE
  8
0
 10
-26.2678
 20
-31.7453
 11
-26.408
 21
-31.9515
  0
LINE
  8
0
 10
-26.408
 20
-31.9515
 11
-26.5608
 21
-32.1485
  0
LINE
  8
0
 10
-26.5608
 20
-32.1485
 11
-26.7256
 21
-32.3355
  0
LINE
  8
0
 10
-26.7256
 20
-32.3355
 11
-26.9019
 21
-32.5118
  0
LINE
  8
0
 10
-26.9019
 20
-32.5118
 11
-27.089
 21
-32.6767
  0
LINE
  8
0
 10
-27.089
 20
-32.6767
 11
-27.286
 21
-32.8295
  0
LINE
  8
0
 10
-27.286
 20
-32.8295
 11
-27.4922
 21
-32.9697
  0
LINE
  8
0
 10
-27.4922
 20
-32.9697
 11
-27.7068
 21
-33.0966
  0
LINE
  8
0
 10
-27.7068
 20
-33.0966
 11
-27.9289
 21
-33.2098
  0
LINE
  8
0
 10
-27.9289
 20
-33.2098
 11
-28.1577
 21
-33.3088
  0
LINE
  8
0
 10
-28.1577
 20
-33.3088
 11
-28.3923
 21
-33.3932
  0
LINE
  8
0
 10
-28.3923
 20
-33.3932
 11
-28.6318
 21
-33.4628
  0
LINE
  8
0
 10
-28.6318
 20
-33.4628
 11
-28.8751
 21
-33.5172
  0
LINE
  8
0
 10
-28.8751
 20
-33.5172
 11
-29.1213
 21
-33.5562
  0
LINE
  8
0
 10
-29.1213
 20
-33.5562
 11
-29.3695
 21
-33.5797
  0
LINE
  8
0
 10
-29.3695
 20
-33.5797
 11
-29.6187
 21
-33.5875
  0
LINE
  8
0
 10
-29.6187
 20
-33.5875
 11
-29.8679
 21
-33.5797
  0
LINE
  8
0
 10
29.3695
 20
-33.5797
 11
29.1213
 21
-33.5562
  0
LINE
  8
0
 10
29.1213
 20
-33.5562
 11
28.8751
 21
-33.5172
  0
LINE
  8
0
 10
28.8751
 20
-33.5172
 11
28.6318
 21
-33.4628
  0
LINE
  8
0
 10
28.6318
 20
-33.4628
 11
28.3923
 21
-33.3932
  0
LINE
  8
0
 10
28.3923
 20
-33.3932
 11
28.1577
 21
-33.3088
  0
LINE
  8
0
 10
28.1577
 20
-33.3088
 11
27.9289
 21
-33.2098
  0
LINE
  8
0
 10
27.9289
 20
-33.2098
 11
27.7068
 21
-33.0966
  0
LINE
  8
0
 10
27.7068
 20
-33.0966
 11
27.4922
 21
-32.9697
  0
LINE
  8
0
 10
27.4922
 20
-32.9697
 11
27.286
 21
-32.8295
  0
LINE
  8
0
 10
27.286
 20
-32.8295
 11
27.089
 21
-32.6767
  0
LINE
  8
0
 10
27.089
 20
-32.6767
 11
26.9019
 21
-32.5118
  0
LINE
  8
0
 10
26.9019
 20
-32.5118
 11
26.7256
 21
-32.3355
  0
LINE
  8
0
 10
26.7256
 20
-32.3355
 11
26.5608
 21
-32.1485
  0
LINE
  8
0
 10
26.5608
 20
-32.1485
 11
26.408
 21
-31.9515
  0
LINE
  8
0
 10
26.408
 20
-31.9515
 11
26.2678
 21
-31.7453
  0
LINE
  8
0
 10
26.2678
 20
-31.7453
 11
26.1409
 21
-31.5307
  0
LINE
  8
0
 10
26.1409
 20
-31.5307
 11
26.0277
 21
-31.3085
  0
LINE
  8
0
 10
26.0277
 20
-31.3085
 11
25.9287
 21
-31.0797
  0
LINE
  8
0
 10
25.9287
 20
-31.0797
 11
25.8442
 21
-30.8452
  0
LINE
  8
0
 10
25.8442
 20
-30.8452
 11
25.7747
 21
-30.6057
  0
LINE
  8
0
 10
25.7747
 20
-30.6057
 11
25.7203
 21
-30.3624
  0
LINE
  8
0
 10
25.7203
 20
-30.3624
 11
25.6813
 21
-30.1162
  0
LINE
  8
0
 10
25.6813
 20
-30.1162
 11
25.6578
 21
-29.8679
  0
LINE
  8
0
 10
25.6578
 20
-29.8679
 11
25.65
 21
-29.6187
  0
LINE
  8
0
 10
25.65
 20
-29.6187
 11
25.6578
 21
-29.3695
  0
LINE
  8
0
 10
25.6578
 20
-29.3695
 11
25.6813
 21
-29.1213
  0
LINE
  8
0
 10
25.6813
 20
-29.1213
 11
25.7203
 21
-28.8751
  0
LINE
  8
0
 10
25.7203
 20
-28.8751
 11
25.7747
 21
-28.6318
  0
LINE
  8
0
 10
25.7747
 20
-28.6318
 11
25.8442
 21
-28.3923
  0
LINE
  8
0
 10
25.8442
 20
-28.3923
 11
25.9287
 21
-28.1577
  0
LINE
  8
0
 10
25.9287
 20
-28.1577
 11
26.0277
 21
-27.9289
  0
LINE
  8
0
 10
26.0277
 20
-27.9289
 11
26.1409
 21
-27.7068
  0
LINE
  8
0
 10
26.1409
 20
-27.7068
 11
26.2678
 21
-27.4922
  0
LINE
  8
0
 10
26.2678
 20
-27.4922
 11
26.408
 21
-27.286
  0
LINE
  8
0
 10
26.408
 20
-27.286
 11
26.5608
 21
-27.089
  0
LINE
  8
0
 10
26.5608
 20
-27.089
 11
26.7256
 21
-26.9019
  0
LINE
  8
0
 10
26.7256
 20
-26.9019
 11
26.9019
 21
-26.7256
  0
LINE
  8
0
 10
26.9019
 20
-26.7256
 11
27.089
 21
-26.5608
  0
LINE
  8
0
 10
27.089
 20
-26.5608
 11
27.286
 21
-26.408
  0
LINE
  8
0
 10
27.286
 20
-26.408
 11
27.4922
 21
-26.2678
  0
LINE
  8
0
 10
27.4922
 20
-26.2678
 11
27.7068
 21
-26.1409
  0
LINE
  8
0
 10
27.7068
 20
-26.1409
 11
27.9289
 21
-26.0277
  0
LINE
  8
0
 10
27.9289
 20
-26.0277
 11
28.1577
 21
-25.9287
  0
LINE
  8
0
 10
28.1577
 20
-25.9287
 11
28.3923
 21
-25.8442
  0
LINE
  8
0
 10
28.3923
 20
-25.8442
 11
28.6318
 21
-25.7747
  0
LINE
  8
0
 10
28.6318
 20
-25.7747
 11
28.8751
 21
-25.7203
  0
LINE
  8
0
 10
28.8751
 20
-25.7203
 11
29.1213
 21
-25.6813
  0
LINE
  8
0
 10
29.1213
 20
-25.6813
 11
29.3695
 21
-25.6578
  0
LINE
  8
0
 10
29.3695
 20
-25.6578
 11
29.6187
 21
-25.65
  0
LINE
  8
0
 10
29.6187
 20
-25.65
 11
29.8679
 21
-25.6578
  0
LINE
  8
0
 10
29.8679
 20
-25.6578
 11
30.1162
 21
-25.6813
  0
LINE
  8
0
 10
30.1162
 20
-25.6813
 11
30.3624
 21
-25.7203
  0
LINE
  8
0
 10
30.3624
 20
-25.7203
 11
30.6057
 21
-25.7747
  0
LINE
  8
0
 10
30.6057
 20
-25.7747
 11
30.8452
 21
-25.8442
  0
LINE
  8
0
 10
30.8452
 20
-25.8442
 11
31.0797
 21
-25.9287
  0
LINE
  8
0
 10
31.0797
 20
-25.9287
 11
31.3085
 21
-26.0277
  0
LINE
  8
0
 10
31.3085
 20
-26.0277
 11
31.5307
 21
-26.1409
  0
LINE
  8
0
 10
31.5307
 20
-26.1409
 11
31.7453
 21
-26.2678
  0
LINE
  8
0
 10
31.7453
 20
-26.2678
 11
31.9515
 21
-26.408
  0
LINE
  8
0
 10
31.9515
 20
-26.408
 11
32.1485
 21
-26.5608
  0
LINE
  8
0
 10
32.1485
 20
-26.5608
 11
32.3355
 21
-26.7256
  0
LINE
  8
0
 10
32.3355
 20
-26.7256
 11
32.5118
 21
-26.9019
  0
LINE
  8
0
 10
32.5118
 20
-26.9019
 11
32.6767
 21
-27.089
  0
LINE
  8
0
 10
32.6767
 20
-27.089
 11
32.8295
 21
-27.286
  0
LINE
  8
0
 10
32.8295
 20
-27.286
 11
32.9697
 21
-27.4922
  0
LINE
  8
0
 10
32.9697
 20
-27.4922
 11
33.0966
 21
-27.7068
  0
LINE
  8
0
 10
33.0966
 20
-27.7068
 11
33.2098
 21
-27.9289
  0
LINE
  8
0
 10
33.2098
 20
-27.9289
 11
33.3088
 21
-28.1577
  0
LINE
  8
0
 10
33.3088
 20
-28.1577
 11
33.3932
 21
-28.3923
  0
LINE
  8
0
 10
33.3932
 20
-28.3923
 11
33.4628
 21
-28.6318
  0
LINE
  8
0
 10
33.4628
 20
-28.6318
 11
33.5172
 21
-28.8751
  0
LINE
  8
0
 10
33.5172
 20
-28.8751
 11
33.5562
 21
-29.1213
  0
LINE
  8
0
 10
33.5562
 20
-29.1213
 11
33.5797
 21
-29.3695
  0
LINE
  8
0
 10
33.5797
 20
-29.3695
 11
33.5875
 21
-29.6187
  0
LINE
  8
0
 10
33.5875
 20
-29.6187
 11
33.5797
 21
-29.8679
  0
LINE
  8
0
 10
33.5797
 20
-29.8679
 11
33.5562
 21
-30.1162
  0
LINE
  8
0
 10
33.5562
 20
-30.1162
 11
33.5172
 21
-30.3624
  0
LINE
  8
0
 10
33.5172
 20
-30.3624
 11
33.4628
 21
-30.6057
  0
LINE
  8
0
 10
33.4628
 20
-30.6057
 11
33.3932
 21
-30.8452
  0
LINE
  8
0
 10
33.3932
 20
-30.8452
 11
33.3088
 21
-31.0797
  0
LINE
  8
0
 10
33.3088
 20
-31.0797
 11
33.2098
 21
-31.3085
  0
LINE
  8
0
 10
33.2098
 20
-31.3085
 11
33.0966
 21
-31.5307
  0
LINE
  8
0
 10
33.0966
 20
-31.5307
 11
32.9697
 21
-31.7453
  0
LINE
  8
0
 10
32.9697
 20
-31.7453
 11
32.8295
 21
-31.9515
  0
LINE
  8
0
 10
32.8295
 20
-31.9515
 11
32.6767
 21
-32.1485
  0
LINE
  8
0
 10
32.6767
 20
-32.1485
 11
32.5118
 21
-32.3355
  0
LINE
  8
0
 10
32.5118
 20
-32.3355
 11
32.3355
 21
-32.5118
  0
LINE
  8
0
 10
32.3355
 20
-32.5118
 11
32.1485
 21
-32.6767
  0
LINE
  8
0
 10
32.1485
 20
-32.6767
 11
31.9515
 21
-32.8295
  0
LINE
  8
0
 10
31.9515
 20
-32.8295
 11
31.7453
 21
-32.9697
  0
LINE
  8
0
 10
31.7453
 20
-32.9697
 11
31.5307
 21
-33.0966
  0
LINE
  8
0
 10
31.5307
 20
-33.0966
 11
31.3085
 21
-33.2098
  0
LINE
  8
0
 10
31.3085
 20
-33.2098
 11
31.0797
 21
-33.3088
  0
LINE
  8
0
 10
31.0797
 20
-33.3088
 11
30.8452
 21
-33.3932
  0
LINE
  8
0
 10
30.8452
 20
-33.3932
 11
30.6057
 21
-33.4628
  0
LINE
  8
0
 10
30.6057
 20
-33.4628
 11
30.3624
 21
-33.5172
  0
LINE
  8
0
 10
30.3624
 20
-33.5172
 11
30.1162
 21
-33.5562
  0
LINE
  8
0
 10
30.1162
 20
-33.5562
 11
29.8679
 21
-33.5797
  0
LINE
  8
0
 10
29.8679
 20
-33.5797
 11
29.6187
 21
-33.5875
  0
LINE
  8
0
 10
29.6187
 20
-33.5875
 11
29.3695
 21
-33.5797
  0
LINE
  8
0
 10
-14.7443
 20
-31.6148
 11
-14.8694
 21
-31.603
  0
LINE
  8
0
 10
-14.8694
 20
-31.603
 11
-14.9935
 21
-31.5833
  0
LINE
  8
0
 10
-14.9935
 20
-31.5833
 11
-15.1161
 21
-31.5559
  0
LINE
  8
0
 10
-15.1161
 20
-31.5559
 11
-15.2368
 21
-31.5209
  0
LINE
  8
0
 10
-15.2368
 20
-31.5209
 11
-15.355
 21
-31.4783
  0
LINE
  8
0
 10
-15.355
 20
-31.4783
 11
-15.4703
 21
-31.4284
  0
LINE
  8
0
 10
-15.4703
 20
-31.4284
 11
-15.5822
 21
-31.3714
  0
LINE
  8
0
 10
-15.5822
 20
-31.3714
 11
-15.6904
 21
-31.3074
  0
LINE
  8
0
 10
-15.6904
 20
-31.3074
 11
-15.7943
 21
-31.2368
  0
LINE
  8
0
 10
-15.7943
 20
-31.2368
 11
-15.8936
 21
-31.1598
  0
LINE
  8
0
 10
-15.8936
 20
-31.1598
 11
-15.9878
 21
-31.0767
  0
LINE
  8
0
 10
-15.9878
 20
-31.0767
 11
-16.0767
 21
-30.9878
  0
LINE
  8
0
 10
-16.0767
 20
-30.9878
 11
-16.1598
 21
-30.8936
  0
LINE
  8
0
 10
-16.1598
 20
-30.8936
 11
-16.2368
 21
-30.7943
  0
LINE
  8
0
 10
-16.2368
 20
-30.7943
 11
-16.3074
 21
-30.6904
  0
LINE
  8
0
 10
-16.3074
 20
-30.6904
 11
-16.3714
 21
-30.5822
  0
LINE
  8
0
 10
-16.3714
 20
-30.5822
 11
-16.4284
 21
-30.4703
  0
LINE
  8
0
 10
-16.4284
 20
-30.4703
 11
-16.4783
 21
-30.355
  0
LINE
  8
0
 10
-16.4783
 20
-30.355
 11
-16.5209
 21
-30.2368
  0
LINE
  8
0
 10
-16.5209
 20
-30.2368
 11
-16.5559
 21
-30.1161
  0
LINE
  8
0
 10
-16.5559
 20
-30.1161
 11
-16.5833
 21
-29.9935
  0
LINE
  8
0
 10
-16.5833
 20
-29.9935
 11
-16.603
 21
-29.8694
  0
LINE
  8
0
 10
-16.603
 20
-29.8694
 11
-16.6148
 21
-29.7443
  0
LINE
  8
0
 10
-16.6148
 20
-29.7443
 11
-16.6187
 21
-29.6187
  0
LINE
  8
0
 10
-16.6187
 20
-29.6187
 11
-16.6148
 21
-29.4932
  0
LINE
  8
0
 10
-16.6148
 20
-29.4932
 11
-16.603
 21
-29.3681
  0
LINE
  8
0
 10
-16.603
 20
-29.3681
 11
-16.5833
 21
-29.244
  0
LINE
  8
0
 10
-16.5833
 20
-29.244
 11
-16.5559
 21
-29.1214
  0
LINE
  8
0
 10
-16.5559
 20
-29.1214
 11
-16.5209
 21
-29.0007
  0
LINE
  8
0
 10
-16.5209
 20
-29.0007
 11
-16.4783
 21
-28.8825
  0
LINE
  8
0
 10
-16.4783
 20
-28.8825
 11
-16.4284
 21
-28.7672
  0
LINE
  8
0
 10
-16.4284
 20
-28.7672
 11
-16.3714
 21
-28.6552
  0
LINE
  8
0
 10
-16.3714
 20
-28.6552
 11
-16.3074
 21
-28.5471
  0
LINE
  8
0
 10
-16.3074
 20
-28.5471
 11
-16.2368
 21
-28.4432
  0
LINE
  8
0
 10
-16.2368
 20
-28.4432
 11
-16.1598
 21
-28.3439
  0
LINE
  8
0
 10
-16.1598
 20
-28.3439
 11
-16.0767
 21
-28.2496
  0
LINE
  8
0
 10
-16.0767
 20
-28.2496
 11
-15.9878
 21
-28.1608
  0
LINE
  8
0
 10
-15.9878
 20
-28.1608
 11
-15.8936
 21
-28.0777
  0
LINE
  8
0
 10
-15.8936
 20
-28.0777
 11
-15.7943
 21
-28.0007
  0
LINE
  8
0
 10
-15.7943
 20
-28.0007
 11
-15.6904
 21
-27.9301
  0
LINE
  8
0
 10
-15.6904
 20
-27.9301
 11
-15.5822
 21
-27.8661
  0
LINE
  8
0
 10
-15.5822
 20
-27.8661
 11
-15.4703
 21
-27.8091
  0
LINE
  8
0
 10
-15.4703
 20
-27.8091
 11
-15.355
 21
-27.7592
  0
LINE
  8
0
 10
-15.355
 20
-27.7592
 11
-15.2368
 21
-27.7166
  0
LINE
  8
0
 10
-15.2368
 20
-27.7166
 11
-15.1161
 21
-27.6816
  0
LINE
  8
0
 10
-15.1161
 20
-27.6816
 11
-14.9935
 21
-27.6542
  0
LINE
  8
0
 10
-14.9935
 20
-27.6542
 11
-14.8694
 21
-27.6345
  0
LINE
  8
0
 10
-14.8694
 20
-27.6345
 11
-14.7443
 21
-27.6227
  0
LINE
  8
0
 10
-14.7443
 20
-27.6227
 11
-14.6187
 21
-27.6187
  0
LINE
  8
0
 10
-14.6187
 20
-27.6187
 11
-14.4932
 21
-27.6227
  0
LINE
  8
0
 10
-14.4932
 20
-27.6227
 11
-14.3681
 21
-27.6345
  0
LINE
  8
0
 10
-14.3681
 20
-27.6345
 11
-14.244
 21
-27.6542
  0
LINE
  8
0
 10
-14.244
 20
-27.6542
 11
-14.1214
 21
-27.6816
  0
LINE
  8
0
 10
-14.1214
 20
-27.6816
 11
-14.0007
 21
-27.7166
  0
LINE
  8
0
 10
-14.0007
 20
-27.7166
 11
-13.8825
 21
-27.7592
  0
LINE
  8
0
 10
-13.8825
 20
-27.7592
 11
-13.7672
 21
-27.8091
  0
LINE
  8
0
 10
-13.7672
 20
-27.8091
 11
-13.6552
 21
-27.8661
  0
LINE
  8
0
 10
-13.6552
 20
-27.8661
 11
-13.5471
 21
-27.9301
  0
LINE
  8
0
 10
-13.5471
 20
-27.9301
 11
-13.4432
 21
-28.0007
  0
LINE
  8
0
 10
-13.4432
 20
-28.0007
 11
-13.3439
 21
-28.0777
  0
LINE
  8
0
 10
-13.3439
 20
-28.0777
 11
-13.2496
 21
-28.1608
  0
LINE
  8
0
 10
-13.2496
 20
-28.1608
 11
-13.1608
 21
-28.2496
  0
LINE
  8
0
 10
-13.1608
 20
-28.2496
 11
-13.0777
 21
-28.3439
  0
LINE
  8
0
 10
-13.0777
 20
-28.3439
 11
-13.0007
 21
-28.4432
  0
LINE
  8
0
 10
-13.0007
 20
-28.4432
 11
-12.9301
 21
-28.5471
  0
LINE
  8
0
 10
-12.9301
 20
-28.5471
 11
-12.8661
 21
-28.6552
  0
LINE
  8
0
 10
-12.8661
 20
-28.6552
 11
-12.8091
 21
-28.7672
  0
LINE
  8
0
 10
-12.8091
 20
-28.7672
 11
-12.7592
 21
-28.8825
  0
LINE
  8
0
 10
-12.7592
 20
-28.8825
 11
-12.7166
 21
-29.0007
  0
LINE
  8
0
 10
-12.7166
 20
-29.0007
 11
-12.6816
 21
-29.1214
  0
LINE
  8
0
 10
-12.6816
 20
-29.1214
 11
-12.6542
 21
-29.244
  0
LINE
  8
0
 10
-12.6542
 20
-29.244
 11
-12.6345
 21
-29.3681
  0
LINE
  8
0
 10
-12.6345
 20
-29.3681
 11
-12.6227
 21
-29.4932
  0
LINE
  8
0
 10
-12.6227
 20
-29.4932
 11
-12.6187
 21
-29.6187
  0
LINE
  8
0
 10
-12.6187
 20
-29.6187
 11
-12.6227
 21
-29.7443
  0
LINE
  8
0
 10
-12.6227
 20
-29.7443
 11
-12.6345
 21
-29.8694
  0
LINE
  8
0
 10
-12.6345
 20
-29.8694
 11
-12.6542
 21
-29.9935
  0
LINE
  8
0
 10
-12.6542
 20
-29.9935
 11
-12.6816
 21
-30.1161
  0
LINE
  8
0
 10
-12.6816
 20
-30.1161
 11
-12.7166
 21
-30.2368
  0
LINE
  8
0
 10
-12.7166
 20
-30.2368
 11
-12.7592
 21
-30.355
  0
LINE
  8
0
 10
-12.7592
 20
-30.355
 11
-12.8091
 21
-30.4703
  0
LINE
  8
0
 10
-12.8091
 20
-30.4703
 11
-12.8661
 21
-30.5822
  0
LINE
  8
0
 10
-12.8661
 20
-30.5822
 11
-12.9301
 21
-30.6904
  0
LINE
  8
0
 10
-12.9301
 20
-30.6904
 11
-13.0007
 21
-30.7943
  0
LINE
  8
0
 10
-13.0007
 20
-30.7943
 11
-13.0777
 21
-30.8936
  0
LINE
  8
0
 10
-13.0777
 20
-30.8936
 11
-13.1608
 21
-30.9878
  0
LINE
  8
0
 10
-13.1608
 20
-30.9878
 11
-13.2496
 21
-31.0767
  0
LINE
  8
0
 10
-13.2496
 20
-31.0767
 11
-13.3439
 21
-31.1598
  0
LINE
  8
0
 10
-13.3439
 20
-31.1598
 11
-13.4432
 21
-31.2368
  0
LINE
  8
0
 10
-13.4432
 20
-31.2368
 11
-13.5471
 21
-31.3074
  0
LINE
  8
0
 10
-13.5471
 20
-31.3074
 11
-13.6552
 21
-31.3714
  0
LINE
  8
0
 10
-13.6552
 20
-31.3714
 11
-13.7672
 21
-31.4284
  0
LINE
  8
0
 10
-13.7672
 20
-31.4284
 11
-13.8825
 21
-31.4783
  0
LINE
  8
0
 10
-13.8825
 20
-31.4783
 11
-14.0007
 21
-31.5209
  0
LINE
  8
0
 10
-14.0007
 20
-31.5209
 11
-14.1214
 21
-31.5559
  0
LINE
  8
0
 10
-14.1214
 20
-31.5559
 11
-14.244
 21
-31.5833
  0
LINE
  8
0
 10
-14.244
 20
-31.5833
 11
-14.3681
 21
-31.603
  0
LINE
  8
0
 10
-14.3681
 20
-31.603
 11
-14.4932
 21
-31.6148
  0
LINE
  8
0
 10
-14.4932
 20
-31.6148
 11
-14.6187
 21
-31.6187
  0
LINE
  8
0
 10
-14.6187
 20
-31.6187
 11
-14.7443
 21
-31.6148
  0
LINE
  8
0
 10
14.4932
 20
-31.6148
 11
14.3681
 21
-31.603
  0
LINE
  8
0
 10
14.3681
 20
-31.603
 11
14.244
 21
-31.5833
  0
LINE
  8
0
 10
14.244
 20
-31.5833
 11
14.1214
 21
-31.5559
  0
LINE
  8
0
 10
14.1214
 20
-31.5559
 11
14.0007
 21
-31.5209
  0
LINE
  8
0
 10
14.0007
 20
-31.5209
 11
13.8825
 21
-31.4783
  0
LINE
  8
0
 10
13.8825
 20
-31.4783
 11
13.7672
 21
-31.4284
  0
LINE
  8
0
 10
13.7672
 20
-31.4284
 11
13.6552
 21
-31.3714
  0
LINE
  8
0
 10
13.6552
 20
-31.3714
 11
13.5471
 21
-31.3074
  0
LINE
  8
0
 10
13.5471
 20
-31.3074
 11
13.4432
 21
-31.2368
  0
LINE
  8
0
 10
13.4432
 20
-31.2368
 11
13.3439
 21
-31.1598
  0
LINE
  8
0
 10
13.3439
 20
-31.1598
 11
13.2496
 21
-31.0767
  0
LINE
  8
0
 10
13.2496
 20
-31.0767
 11
13.1608
 21
-30.9878
  0
LINE
  8
0
 10
13.1608
 20
-30.9878
 11
13.0777
 21
-30.8936
  0
LINE
  8
0
 10
13.0777
 20
-30.8936
 11
13.0007
 21
-30.7943
  0
LINE
  8
0
 10
13.0007
 20
-30.7943
 11
12.9301
 21
-30.6904
  0
LINE
  8
0
 10
12.9301
 20
-30.6904
 11
12.8661
 21
-30.5822
  0
LINE
  8
0
 10
12.8661
 20
-30.5822
 11
12.8091
 21
-30.4703
  0
LINE
  8
0
 10
12.8091
 20
-30.4703
 11
12.7592
 21
-30.355
  0
LINE
  8
0
 10
12.7592
 20
-30.355
 11
12.7166
 21
-30.2368
  0
LINE
  8
0
 10
12.7166
 20
-30.2368
 11
12.6816
 21
-30.1161
  0
LINE
  8
0
 10
12.6816
 20
-30.1161
 11
12.6542
 21
-29.9935
  0
LINE
  8
0
 10
12.6542
 20
-29.9935
 11
12.6345
 21
-29.8694
  0
LINE
  8
0
 10
12.6345
 20
-29.8694
 11
12.6227
 21
-29.7443
  0
LINE
  8
0
 10
12.6227
 20
-29.7443
 11
12.6187
 21
-29.6187
  0
LINE
  8
0
 10
12.6187
 20
-29.6187
 11
12.6227
 21
-29.4932
  0
LINE
  8
0
 10
12.6227
 20
-29.4932
 11
12.6345
 21
-29.3681
  0
LINE
  8
0
 10
12.6345
 20
-29.3681
 11
12.6542
 21
-29.244
  0
LINE
  8
0
 10
12.6542
 20
-29.244
 11
12.6816
 21
-29.1214
  0
LINE
  8
0
 10
12.6816
 20
-29.1214
 11
12.7166
 21
-29.0007
  0
LINE
  8
0
 10
12.7166
 20
-29.0007
 11
12.7592
 21
-28.8825
  0
LINE
  8
0
 10
12.7592
 20
-28.8825
 11
12.8091
 21
-28.7672
  0
LINE
  8
0
 10
12.8091
 20
-28.7672
 11
12.8661
 21
-28.6552
  0
LINE
  8
0
 10
12.8661
 20
-28.6552
 11
12.9301
 21
-28.5471
  0
LINE
  8
0
 10
12.9301
 20
-28.5471
 11
13.0007
 21
-28.4432
  0
LINE
  8
0
 10
13.0007
 20
-28.4432
 11
13.0777
 21
-28.3439
  0
LINE
  8
0
 10
13.0777
 20
-28.3439
 11
13.1608
 21
-28.2496
  0
LINE
  8
0
 10
13.1608
 20
-28.2496
 11
13.2496
 21
-28.1608
  0
LINE
  8
0
 10
13.2496
 20
-28.1608
 11
13.3439
 21
-28.0777
  0
LINE
  8
0
 10
13.3439
 20
-28.0777
 11
13.4432
 21
-28.0007
  0
LINE
  8
0
 10
13.4432
 20
-28.0007
 11
13.5471
 21
-27.9301
  0
LINE
  8
0
 10
13.5471
 20
-27.9301
 11
13.6552
 21
-27.8661
  0
LINE
  8
0
 10
13.6552
 20
-27.8661
 11
13.7672
 21
-27.8091
  0
LINE
  8
0
 10
13.7672
 20
-27.8091
 11
13.8825
 21
-27.7592
  0
LINE
  8
0
 10
13.8825
 20
-27.7592
 11
14.0007
 21
-27.7166
  0
LINE
  8
0
 10
14.0007
 20
-27.7166
 11
14.1214
 21
-27.6816
  0
LINE
  8
0
 10
14.1214
 20
-27.6816
 11
14.244
 21
-27.6542
  0
LINE
  8
0
 10
14.244
 20
-27.6542
 11
14.3681
 21
-27.6345
  0
LINE
  8
0
 10
14.3681
 20
-27.6345
 11
14.4932
 21
-27.6227
  0
LINE
  8
0
 10
14.4932
 20
-27.6227
 11
14.6187
 21
-27.6187
  0
LINE
  8
0
 10
14.6187
 20
-27.6187
 11
14.7443
 21
-27.6227
  0
LINE
  8
0
 10
14.7443
 20
-27.6227
 11
14.8694
 21
-27.6345
  0
LINE
  8
0
 10
14.8694
 20
-27.6345
 11
14.9935
 21
-27.6542
  0
LINE
  8
0
 10
14.9935
 20
-27.6542
 11
15.1161
 21
-27.6816
  0
LINE
  8
0
 10
15.1161
 20
-27.6816
 11
15.2368
 21
-27.7166
  0
LINE
  8
0
 10
15.2368
 20
-27.7166
 11
15.355
 21
-27.7592
  0
LINE
  8
0
 10
15.355
 20
-27.7592
 11
15.4703
 21
-27.8091
  0
LINE
  8
0
 10
15.4703
 20
-27.8091
 11
15.5822
 21
-27.8661
  0
LINE
  8
0
 10
15.5822
 20
-27.8661
 11
15.6904
 21
-27.9301
  0
LINE
  8
0
 10
15.6904
 20
-27.9301
 11
15.7943
 21
-28.0007
  0
LINE
  8
0
 10
15.7943
 20
-28.0007
 11
15.8936
 21
-28.0777
  0
LINE
  8
0
 10
15.8936
 20
-28.0777
 11
15.9878
 21
-28.1608
  0
LINE
  8
0
 10
15.9878
 20
-28.1608
 11
16.0767
 21
-28.2496
  0
LINE
  8
0
 10
16.0767
 20
-28.2496
 11
16.1598
 21
-28.3439
  0
LINE
  8
0
 10
16.1598
 20
-28.3439
 11
16.2368
 21
-28.4432
  0
LINE
  8
0
 10
16.2368
 20
-28.4432
 11
16.3074
 21
-28.5471
  0
LINE
  8
0
 10
16.3074
 20
-28.5471
 11
16.3714
 21
-28.6552
  0
LINE
  8
0
 10
16.3714
 20
-28.6552
 11
16.4284
 21
-28.7672
  0
LINE
  8
0
 10
16.4284
 20
-28.7672
 11
16.4783
 21
-28.8825
  0
LINE
  8
0
 10
16.4783
 20
-28.8825
 11
16.5209
 21
-29.0007
  0
LINE
  8
0
 10
16.5209
 20
-29.0007
 11
16.5559
 21
-29.1214
  0
LINE
  8
0
 10
16.5559
 20
-29.1214
 11
16.5833
 21
-29.244
  0
LINE
  8
0
 10
16.5833
 20
-29.244
 11
16.603
 21
-29.3681
  0
LINE
  8
0
 10
16.603
 20
-29.3681
 11
16.6148
 21
-29.4932
  0
LINE
  8
0
 10
16.6148
 20
-29.4932
 11
16.6187
 21
-29.6187
  0
LINE
  8
0
 10
16.6187
 20
-29.6187
 11
16.6148
 21
-29.7443
  0
LINE
  8
0
 10
16.6148
 20
-29.7443
 11
16.603
 21
-29.8694
  0
LINE
  8
0
 10
16.603
 20
-29.8694
 11
16.5833
 21
-29.9935
  0
LINE
  8
0
 10
16.5833
 20
-29.9935
 11
16.5559
 21
-30.1161
  0
LINE
  8
0
 10
16.5559
 20
-30.1161
 11
16.5209
 21
-30.2368
  0
LINE
  8
0
 10
16.5209
 20
-30.2368
 11
16.4783
 21
-30.355
  0
LINE
  8
0
 10
16.4783
 20
-30.355
 11
16.4284
 21
-30.4703
  0
LINE
  8
0
 10
16.4284
 20
-30.4703
 11
16.3714
 21
-30.5822
  0
LINE
  8
0
 10
16.3714
 20
-30.5822
 11
16.3074
 21
-30.6904
  0
LINE
  8
0
 10
16.3074
 20
-30.6904
 11
16.2368
 21
-30.7943
  0
LINE
  8
0
 10
16.2368
 20
-30.7943
 11
16.1598
 21
-30.8936
  0
LINE
  8
0
 10
16.1598
 20
-30.8936
 11
16.0767
 21
-30.9878
  0
LINE
  8
0
 10
16.0767
 20
-30.9878
 11
15.9878
 21
-31.0767
  0
LINE
  8
0
 10
15.9878
 20
-31.0767
 11
15.8936
 21
-31.1598
  0
LINE
  8
0
 10
15.8936
 20
-31.1598
 11
15.7943
 21
-31.2368
  0
LINE
  8
0
 10
15.7943
 20
-31.2368
 11
15.6904
 21
-31.3074
  0
LINE
  8
0
 10
15.6904
 20
-31.3074
 11
15.5822
 21
-31.3714
  0
LINE
  8
0
 10
15.5822
 20
-31.3714
 11
15.4703
 21
-31.4284
  0
LINE
  8
0
 10
15.4703
 20
-31.4284
 11
15.355
 21
-31.4783
  0
LINE
  8
0
 10
15.355
 20
-31.4783
 11
15.2368
 21
-31.5209
  0
LINE
  8
0
 10
15.2368
 20
-31.5209
 11
15.1161
 21
-31.5559
  0
LINE
  8
0
 10
15.1161
 20
-31.5559
 11
14.9935
 21
-31.5833
  0
LINE
  8
0
 10
14.9935
 20
-31.5833
 11
14.8694
 21
-31.603
  0
LINE
  8
0
 10
14.8694
 20
-31.603
 11
14.7443
 21
-31.6148
  0
LINE
  8
0
 10
14.7443
 20
-31.6148
 11
14.6187
 21
-31.6187
  0
LINE
  8
0
 10
14.6187
 20
-31.6187
 11
14.4932
 21
-31.6148
  0
ENDSEC
  0
SECTION
  2
OBJECTS
  0
DICTIONARY
  0
ENDSEC
  0
EOF
