  0
SECTION
  2
HEADER
  9
$ACADVER
  1
AC1014
  9
$HANDSEED
  5
FFFF
  9
$MEASUREMENT
 70
     1
  0
ENDSEC
  0
SECTION
  2
TABLES
  0
TABLE
  2
VPORT
  5
8
330
0
100
AcDbSymbolTable
 70
     4
  0
VPORT
  5
2E
330
8
100
AcDbSymbolTableRecord
100
AcDbViewportTableRecord
  2
*ACTIVE
 70
     0
 10
0.0
 20
0.0
 11
1.0
 21
1.0
 12
210.0
 22
148.5
 13
0.0
 23
0.0
 14
10.0
 24
10.0
 15
10.0
 25
10.0
 16
0.0
 26
0.0
 36
1.0
 17
0.0
 27
0.0
 37
0.0
 40
341.0
 41
1.24
 42
50.0
 43
0.0
 44
0.0
 50
0.0
 51
0.0
 71
     0
 72
   100
 73
     1
 74
     3
 75
     0
 76
     0
 77
     0
 78
     0
  0
ENDTAB
  0
TABLE
  2
LTYPE
  5
5
330
0
100
AcDbSymbolTable
 70
     1
  0
LTYPE
  5
14
330
5
100
AcDbSymbolTableRecord
100
AcDbLinetypeTableRecord
  2
BYBLOCK
 70
     0
  3

 72
    65
 73
     0
 40
0.0
  0
LTYPE
  5
15
330
5
100
AcDbSymbolTableRecord
100
AcDbLinetypeTableRecord
  2
BYLAYER
 70
     0
  3

 72
    65
 73
     0
 40
0.0
  0
LTYPE
  5
16
330
5
100
AcDbSymbolTableRecord
100
AcDbLinetypeTableRecord
  2
CONTINUOUS
 70
     0
  3
Solid line
 72
    65
 73
     0
 40
0.0
  0
ENDTAB
  0
TABLE
  2
LAYER
  5
2
100
AcDbSymbolTable
 70
2
  0
LAYER
  5
50
100
AcDbSymbolTableRecord
100
AcDbLayerTableRecord
  2
0
 70
0
  6
CONTINUOUS
  0
LAYER
  5
51
100
AcDbSymbolTableRecord
100
AcDbLayerTableRecord
  2
Layer_1
 70
0
  6
CONTINUOUS
  0
ENDTAB
  0
TABLE
  2
STYLE
  5
3
330
0
100
AcDbSymbolTable
 70
     1
  0
STYLE
  5
11
330
3
100
AcDbSymbolTableRecord
100
AcDbTextStyleTableRecord
  2
STANDARD
 70
     0
 40
0.0
 41
1.0
 50
0.0
 71
     0
 42
2.5
  3
txt
  4

  0
ENDTAB
  0
TABLE
  2
VIEW
  5
6
330
0
100
AcDbSymbolTable
 70
     0
  0
ENDTAB
  0
TABLE
  2
UCS
  5
7
330
0
100
AcDbSymbolTable
 70
     0
  0
ENDTAB
  0
TABLE
  2
APPID
  5
9
330
0
100
AcDbSymbolTable
 70
     2
  0
APPID
  5
12
330
9
100
AcDbSymbolTableRecord
100
AcDbRegAppTableRecord
  2
ACAD
 70
     0
  0
ENDTAB
  0
TABLE
  2
DIMSTYLE
  5
A
330
0
100
AcDbSymbolTable
 70
     1
  0
DIMSTYLE
105
27
330
A
100
AcDbSymbolTableRecord
100
AcDbDimStyleTableRecord
  2
ISO-25
 70
     0
  3

  4

  5

  6

  7

 40
1.0
 41
2.5
 42
0.625
 43
3.75
 44
1.25
 45
0.0
 46
0.0
 47
0.0
 48
0.0
140
2.5
141
2.5
142
0.0
143
0.03937007874016
144
1.0
145
0.0
146
1.0
147
0.625
 71
     0
 72
     0
 73
     0
 74
     0
 75
     0
 76
     0
 77
     1
 78
     8
170
     0
171
     3
172
     1
173
     0
174
     0
175
     0
176
     0
177
     0
178
     0
270
     2
271
     2
272
     2
273
     2
274
     3
340
11
275
     0
280
     0
281
     0
282
     0
283
     0
284
     8
285
     0
286
     0
287
     3
288
     0
  0
ENDTAB
  0
TABLE
  2
BLOCK_RECORD
  5
1
330
0
100
AcDbSymbolTable
 70
     1
  0
BLOCK_RECORD
  5
1F
330
1
100
AcDbSymbolTableRecord
100
AcDbBlockTableRecord
  2
*MODEL_SPACE
  0
BLOCK_RECORD
  5
1B
330
1
100
AcDbSymbolTableRecord
100
AcDbBlockTableRecord
  2
*PAPER_SPACE
  0
ENDTAB
  0
ENDSEC
  0
SECTION
  2
BLOCKS
  0
BLOCK
  5
20
330
1F
100
AcDbEntity
  8
0
100
AcDbBlockBegin
  2
*MODEL_SPACE
 70
     0
 10
0.0
 20
0.0
 30
0.0
  3
*MODEL_SPACE
  1

  0
ENDBLK
  5
21
330
1F
100
AcDbEntity
  8
0
100
AcDbBlockEnd
  0
BLOCK
  5
1C
330
1B
100
AcDbEntity
 67
     1
  8
0
100
AcDbBlockBegin
  2
*PAPER_SPACE
  1

  0
ENDBLK
  5
1D
330
1B
100
AcDbEntity
 67
     1
  8
0
100
AcDbBlockEnd
  0
ENDSEC
  0
SECTION
  2
ENTITIES
  0
SPLINE
  5
100
100
AcDbEntity
  8
Layer_1
 62
7
100
AcDbSpline
 70
8
 71
3
 72
8
 73
4
 74
0
 40
0
 40
0
 40
0
 40
0
 40
1
 40
1
 40
1
 40
1
 10
363.177614
 20
312.235969
 30
0.0
 10
379.798950
 20
312.235969
 30
0.0
 10
385.767686
 20
312.156553
 30
0.0
 10
385.905481
 20
311.933565
 30
0.0
  0
SPLINE
  5
101
100
AcDbEntity
  8
Layer_1
 62
7
100
AcDbSpline
 70
8
 71
3
 72
8
 73
4
 74
0
 40
0
 40
0
 40
0
 40
0
 40
1
 40
1
 40
1
 40
1
 10
385.905481
 20
311.933565
 30
0.0
 10
386.008298
 20
311.767243
 30
0.0
 10
381.968904
 20
303.373337
 30
0.0
 10
376.929094
 20
293.280440
 30
0.0
  0
LWPOLYLINE
  5
102
100
AcDbEntity
  8
Layer_1
 62
7
100
AcDbPolyline
 90
3
 70
0
 10
331.311171
 20
293.582844
 30
0.0
 10
340.636622
 20
312.235969
 30
0.0
 10
363.177614
 20
312.235969
 30
0.0
  0
LWPOLYLINE
  5
103
100
AcDbEntity
  8
Layer_1
 62
7
100
AcDbPolyline
 90
6
 70
0
 10
376.929094
 20
293.280440
 30
0.0
 10
367.765780
 20
274.929719
 30
0.0
 10
344.875750
 20
274.929719
 30
0.0
 10
321.985746
 20
274.929719
 30
0.0
 10
331.311171
 20
293.582844
 30
0.0
 10
331.311171
 20
293.582844
 30
0.0
  0
LWPOLYLINE
  5
104
100
AcDbEntity
  8
Layer_1
 62
7
100
AcDbPolyline
 90
16
 70
1
 10
33.382072
 20
198.241662
 30
0.0
 10
33.382072
 20
205.210845
 30
0.0
 10
30.490358
 20
207.927269
 30
0.0
 10
29.620493
 20
207.927269
 30
0.0
 10
29.620493
 20
198.174863
 30
0.0
 10
26.188057
 20
198.174863
 30
0.0
 10
26.188057
 20
211.155811
 30
0.0
 10
31.689360
 20
211.155811
 30
0.0
 10
36.838020
 20
206.368667
 30
0.0
 10
44.079052
 20
206.368667
 30
0.0
 10
44.079052
 20
198.174863
 30
0.0
 10
40.646615
 20
198.174863
 30
0.0
 10
40.646615
 20
203.474115
 30
0.0
 10
36.885039
 20
203.474115
 30
0.0
 10
36.885039
 20
198.174863
 30
0.0
 10
33.405580
 20
198.174863
 30
0.0
  0
LWPOLYLINE
  5
105
100
AcDbEntity
  8
Layer_1
 62
7
100
AcDbPolyline
 90
17
 70
1
 10
51.630030
 20
211.155840
 30
0.0
 10
46.481492
 20
206.257495
 30
0.0
 10
46.481492
 20
200.869117
 30
0.0
 10
49.913738
 20
201.893282
 30
0.0
 10
49.913738
 20
205.166192
 30
0.0
 10
52.570348
 20
207.748980
 30
0.0
 10
52.758747
 20
207.860549
 30
0.0
 10
53.910513
 20
207.860549
 30
0.0
 10
56.755186
 20
205.166192
 30
0.0
 10
56.755186
 20
201.893282
 30
0.0
 10
56.238090
 20
201.425626
 30
0.0
 10
50.431166
 20
201.425626
 30
0.0
 10
49.326165
 20
198.174762
 30
0.0
 10
57.343093
 20
198.174762
 30
0.0
 10
60.187766
 20
200.869117
 30
0.0
 10
60.187766
 20
206.257495
 30
0.0
 10
55.038892
 20
211.155840
 30
0.0
  0
LWPOLYLINE
  5
106
100
AcDbEntity
  8
Layer_1
 62
7
100
AcDbPolyline
 90
17
 70
1
 10
67.747060
 20
211.155840
 30
0.0
 10
62.598522
 20
206.257495
 30
0.0
 10
62.598522
 20
200.869117
 30
0.0
 10
66.031107
 20
201.893282
 30
0.0
 10
66.031107
 20
205.166192
 30
0.0
 10
68.687715
 20
207.748980
 30
0.0
 10
68.875775
 20
207.860549
 30
0.0
 10
70.027546
 20
207.860549
 30
0.0
 10
72.872216
 20
205.166192
 30
0.0
 10
72.872216
 20
201.893282
 30
0.0
 10
72.355125
 20
201.425626
 30
0.0
 10
66.548198
 20
201.425626
 30
0.0
 10
65.443195
 20
198.174762
 30
0.0
 10
73.460123
 20
198.174762
 30
0.0
 10
76.304796
 20
200.869117
 30
0.0
 10
76.304796
 20
206.257495
 30
0.0
 10
71.156258
 20
211.155840
 30
0.0
  0
LWPOLYLINE
  5
107
100
AcDbEntity
  8
Layer_1
 62
7
100
AcDbPolyline
 90
18
 70
1
 10
92.398400
 20
200.779958
 30
0.0
 10
89.553711
 20
198.174863
 30
0.0
 10
85.439488
 20
198.174863
 30
0.0
 10
85.439488
 20
201.336602
 30
0.0
 10
88.448748
 20
201.336602
 30
0.0
 10
88.965963
 20
201.781917
 30
0.0
 10
88.965963
 20
205.277645
 30
0.0
 10
86.121269
 20
207.882737
 30
0.0
 10
84.969287
 20
207.882737
 30
0.0
 10
82.171619
 20
205.299907
 30
0.0
 10
82.171619
 20
198.174863
 30
0.0
 10
78.692161
 20
198.174863
 30
0.0
 10
78.692161
 20
211.178073
 30
0.0
 10
82.124598
 20
211.178073
 30
0.0
 10
82.124598
 20
209.508142
 30
0.0
 10
83.817307
 20
211.133541
 30
0.0
 10
87.296765
 20
211.133541
 30
0.0
 10
92.398400
 20
206.346400
 30
0.0
  0
LWPOLYLINE
  5
108
100
AcDbEntity
  8
Layer_1
 62
7
100
AcDbPolyline
 90
16
 70
1
 10
94.809136
 20
211.133633
 30
0.0
 10
94.809136
 20
202.873479
 30
0.0
 10
98.241582
 20
202.873479
 30
0.0
 10
98.241582
 20
207.816006
 30
0.0
 10
103.437484
 20
207.816006
 30
0.0
 10
103.437484
 20
204.164583
 30
0.0
 10
100.522450
 20
201.403121
 30
0.0
 10
98.241582
 20
201.403121
 30
0.0
 10
98.241582
 20
201.966557
 30
0.0
 10
94.809136
 20
201.966557
 30
0.0
 10
94.809136
 20
201.403121
 30
0.0
 10
94.809136
 20
198.152837
 30
0.0
 10
101.721020
 20
198.152837
 30
0.0
 10
106.869446
 20
203.028508
 30
0.0
 10
106.869446
 20
211.133633
 30
0.0
 10
94.809136
 20
211.133633
 30
0.0
  0
LWPOLYLINE
  5
109
100
AcDbEntity
  8
Layer_1
 62
7
100
AcDbPolyline
 90
10
 70
1
 10
109.274438
 20
207.259297
 30
0.0
 10
113.388661
 20
211.155811
 30
0.0
 10
121.593602
 20
211.155811
 30
0.0
 10
121.593602
 20
207.905005
 30
0.0
 10
114.564155
 20
207.905005
 30
0.0
 10
112.706878
 20
206.146010
 30
0.0
 10
112.706878
 20
201.425663
 30
0.0
 10
116.092295
 20
201.425663
 30
0.0
 10
116.092295
 20
198.174863
 30
0.0
 10
109.274438
 20
198.174863
 30
0.0
  0
LWPOLYLINE
  5
10a
100
AcDbEntity
  8
Layer_1
 62
7
100
AcDbPolyline
 90
6
 70
1
 10
126.940432
 20
211.155811
 30
0.0
 10
126.940432
 20
198.174863
 30
0.0
 10
122.638129
 20
198.174863
 30
0.0
 10
122.638129
 20
201.425663
 30
0.0
 10
123.507995
 20
201.425663
 30
0.0
 10
123.507995
 20
211.155811
 30
0.0
  0
LWPOLYLINE
  5
10b
100
AcDbEntity
  8
Layer_1
 62
7
100
AcDbPolyline
 90
10
 70
1
 10
139.827265
 20
211.155811
 30
0.0
 10
139.827265
 20
203.073332
 30
0.0
 10
134.655100
 20
198.174863
 30
0.0
 10
129.153793
 20
198.174863
 30
0.0
 10
129.153793
 20
211.155811
 30
0.0
 10
132.586230
 20
211.155811
 30
0.0
 10
132.586230
 20
201.403398
 30
0.0
 10
133.456098
 20
201.403398
 30
0.0
 10
136.347806
 20
204.119823
 30
0.0
 10
136.347806
 20
211.155811
 30
0.0
  0
LWPOLYLINE
  5
10c
100
AcDbEntity
  8
Layer_1
 62
7
100
AcDbPolyline
 90
11
 70
1
 10
142.095056
 20
211.155840
 30
0.0
 10
142.095056
 20
198.174762
 30
0.0
 10
153.920687
 20
198.174762
 30
0.0
 10
153.920687
 20
201.425626
 30
0.0
 10
148.630849
 20
201.425626
 30
0.0
 10
153.920687
 20
206.390778
 30
0.0
 10
150.488108
 20
207.281657
 30
0.0
 10
145.527636
 20
202.583408
 30
0.0
 10
145.527636
 20
207.904973
 30
0.0
 10
150.488108
 20
207.904973
 30
0.0
 10
153.920687
 20
211.155840
 30
0.0
  0
LWPOLYLINE
  5
10d
100
AcDbEntity
  8
Layer_1
 62
7
100
AcDbPolyline
 90
3
 70
1
 10
78.246433
 20
237.547673
 30
0.0
 10
101.148835
 20
237.609408
 30
0.0
 10
89.625614
 20
214.562964
 30
0.0
  0
LWPOLYLINE
  5
10e
100
AcDbEntity
  8
Layer_1
 62
7
100
AcDbPolyline
 90
4
 70
1
 10
65.804592
 20
237.750738
 30
0.0
 10
54.216041
 20
214.504475
 30
0.0
 10
25.802553
 20
214.539678
 30
0.0
 10
37.396854
 20
237.775717
 30
0.0
  0
LWPOLYLINE
  5
10f
100
AcDbEntity
  8
Layer_1
 62
7
100
AcDbPolyline
 90
4
 70
1
 10
114.107193
 20
237.750738
 30
0.0
 10
125.695744
 20
214.504475
 30
0.0
 10
154.109232
 20
214.539678
 30
0.0
 10
142.514931
 20
237.775717
 30
0.0
  0
ENDSEC
  0
SECTION
  2
OBJECTS
  0
DICTIONARY
  5
C
330
0
100
AcDbDictionary
  3
ACAD_GROUP
350
D
  3
ACAD_MLINESTYLE
350
17
  0
DICTIONARY
  5
D
330
C
100
AcDbDictionary
  0
DICTIONARY
  5
1A
330
C
100
AcDbDictionary
  0
DICTIONARY
  5
17
330
C
100
AcDbDictionary
  3
STANDARD
350
18
  0
DICTIONARY
  5
19
330
C
100
AcDbDictionary
  0
ENDSEC
  0
EOF
