  0
SECTION
  2
BLOCKS
  0
ENDSEC
  0
SECTION
  2
ENTITIES
  0
LINE
  8
0
 10
0.791138
 20
-37.5751
 11
1.57918
 21
-37.5006
  0
LINE
  8
0
 10
1.57918
 20
-37.5006
 11
2.36098
 21
-37.3768
  0
LINE
  8
0
 10
2.36098
 20
-37.3768
 11
3.13347
 21
-37.2041
  0
LINE
  8
0
 10
3.13347
 20
-37.2041
 11
3.89359
 21
-36.9833
  0
LINE
  8
0
 10
3.89359
 20
-36.9833
 11
4.63835
 21
-36.7152
  0
LINE
  8
0
 10
4.63835
 20
-36.7152
 11
5.36479
 21
-36.4008
  0
LINE
  8
0
 10
5.36479
 20
-36.4008
 11
6.07007
 21
-36.0415
  0
LINE
  8
0
 10
6.07007
 20
-36.0415
 11
6.75139
 21
-35.6385
  0
LINE
  8
0
 10
6.75139
 20
-35.6385
 11
7.40607
 21
-35.1936
  0
LINE
  8
0
 10
7.40607
 20
-35.1936
 11
8.03152
 21
-34.7085
  0
LINE
  8
0
 10
8.03152
 20
-34.7085
 11
8.62527
 21
-34.185
  0
LINE
  8
0
 10
8.62527
 20
-34.185
 11
9.18498
 21
-33.6253
  0
LINE
  8
0
 10
9.18498
 20
-33.6253
 11
9.70845
 21
-33.0315
  0
LINE
  8
0
 10
9.70845
 20
-33.0315
 11
10.1936
 21
-32.4061
  0
LINE
  8
0
 10
10.1936
 20
-32.4061
 11
10.6385
 21
-31.7514
  0
LINE
  8
0
 10
10.6385
 20
-31.7514
 11
11.0414
 21
-31.0701
  0
LINE
  8
0
 10
11.0414
 20
-31.0701
 11
11.4008
 21
-30.3648
  0
LINE
  8
0
 10
11.4008
 20
-30.3648
 11
11.7152
 21
-29.6384
  0
LINE
  8
0
 10
11.7152
 20
-29.6384
 11
11.9833
 21
-28.8936
  0
LINE
  8
0
 10
11.9833
 20
-28.8936
 11
12.2041
 21
-28.1335
  0
LINE
  8
0
 10
12.2041
 20
-28.1335
 11
12.3768
 21
-27.361
  0
LINE
  8
0
 10
12.3768
 20
-27.361
 11
12.5006
 21
-26.5792
  0
LINE
  8
0
 10
12.5006
 20
-26.5792
 11
12.5751
 21
-25.7912
  0
LINE
  8
0
 10
12.5751
 20
-25.7912
 11
12.6
 21
-25
  0
LINE
  8
0
 10
12.6
 20
-25
 11
12.5751
 21
-24.2088
  0
LINE
  8
0
 10
12.5751
 20
-24.2088
 11
12.5006
 21
-23.4208
  0
LINE
  8
0
 10
12.5006
 20
-23.4208
 11
12.3768
 21
-22.639
  0
LINE
  8
0
 10
12.3768
 20
-22.639
 11
12.2041
 21
-21.8665
  0
LINE
  8
0
 10
12.2041
 20
-21.8665
 11
11.9833
 21
-21.1064
  0
LINE
  8
0
 10
11.9833
 20
-21.1064
 11
11.7152
 21
-20.3616
  0
LINE
  8
0
 10
11.7152
 20
-20.3616
 11
11.4008
 21
-19.6352
  0
LINE
  8
0
 10
11.4008
 20
-19.6352
 11
11.0414
 21
-18.9299
  0
LINE
  8
0
 10
11.0414
 20
-18.9299
 11
10.6385
 21
-18.2486
  0
LINE
  8
0
 10
10.6385
 20
-18.2486
 11
10.1936
 21
-17.5939
  0
LINE
  8
0
 10
10.1936
 20
-17.5939
 11
9.70845
 21
-16.9685
  0
LINE
  8
0
 10
9.70845
 20
-16.9685
 11
9.18498
 21
-16.3747
  0
LINE
  8
0
 10
9.18498
 20
-16.3747
 11
8.62527
 21
-15.815
  0
LINE
  8
0
 10
8.62527
 20
-15.815
 11
8.20923
 21
-15.4482
  0
LINE
  8
0
 10
8.20923
 20
-15.4482
 11
8.43068
 21
-15.3354
  0
LINE
  8
0
 10
8.43068
 20
-15.3354
 11
9.37697
 21
-14.7757
  0
LINE
  8
0
 10
9.37697
 20
-14.7757
 11
10.2862
 21
-14.1578
  0
LINE
  8
0
 10
10.2862
 20
-14.1578
 11
11.1549
 21
-13.484
  0
LINE
  8
0
 10
11.1549
 20
-13.484
 11
11.9796
 21
-12.7569
  0
LINE
  8
0
 10
11.9796
 20
-12.7569
 11
12.7569
 21
-11.9796
  0
LINE
  8
0
 10
12.7569
 20
-11.9796
 11
13.484
 21
-11.1549
  0
LINE
  8
0
 10
13.484
 20
-11.1549
 11
14.1578
 21
-10.2862
  0
LINE
  8
0
 10
14.1578
 20
-10.2862
 11
14.7757
 21
-9.37697
  0
LINE
  8
0
 10
14.7757
 20
-9.37697
 11
15.3354
 21
-8.43068
  0
LINE
  8
0
 10
15.3354
 20
-8.43068
 11
15.4482
 21
-8.20923
  0
LINE
  8
0
 10
15.4482
 20
-8.20923
 11
15.815
 21
-8.62529
  0
LINE
  8
0
 10
15.815
 20
-8.62529
 11
16.3747
 21
-9.185
  0
LINE
  8
0
 10
16.3747
 20
-9.185
 11
16.9685
 21
-9.70847
  0
LINE
  8
0
 10
16.9685
 20
-9.70847
 11
17.5939
 21
-10.1936
  0
LINE
  8
0
 10
17.5939
 20
-10.1936
 11
18.2486
 21
-10.6385
  0
LINE
  8
0
 10
18.2486
 20
-10.6385
 11
18.9299
 21
-11.0415
  0
LINE
  8
0
 10
18.9299
 20
-11.0415
 11
19.6352
 21
-11.4008
  0
LINE
  8
0
 10
19.6352
 20
-11.4008
 11
20.3616
 21
-11.7152
  0
LINE
  8
0
 10
20.3616
 20
-11.7152
 11
21.1064
 21
-11.9833
  0
LINE
  8
0
 10
21.1064
 20
-11.9833
 11
21.8665
 21
-12.2041
  0
LINE
  8
0
 10
21.8665
 20
-12.2041
 11
22.639
 21
-12.3768
  0
LINE
  8
0
 10
22.639
 20
-12.3768
 11
23.4208
 21
-12.5006
  0
LINE
  8
0
 10
23.4208
 20
-12.5006
 11
24.2088
 21
-12.5751
  0
LINE
  8
0
 10
24.2088
 20
-12.5751
 11
25
 21
-12.6
  0
LINE
  8
0
 10
25
 20
-12.6
 11
25.7912
 21
-12.5751
  0
LINE
  8
0
 10
25.7912
 20
-12.5751
 11
26.5792
 21
-12.5006
  0
LINE
  8
0
 10
26.5792
 20
-12.5006
 11
27.361
 21
-12.3768
  0
LINE
  8
0
 10
27.361
 20
-12.3768
 11
28.1335
 21
-12.2041
  0
LINE
  8
0
 10
28.1335
 20
-12.2041
 11
28.8936
 21
-11.9833
  0
LINE
  8
0
 10
28.8936
 20
-11.9833
 11
29.6384
 21
-11.7152
  0
LINE
  8
0
 10
29.6384
 20
-11.7152
 11
30.3648
 21
-11.4008
  0
LINE
  8
0
 10
30.3648
 20
-11.4008
 11
31.0701
 21
-11.0415
  0
LINE
  8
0
 10
31.0701
 20
-11.0415
 11
31.7514
 21
-10.6385
  0
LINE
  8
0
 10
31.7514
 20
-10.6385
 11
32.4061
 21
-10.1936
  0
LINE
  8
0
 10
32.4061
 20
-10.1936
 11
33.0315
 21
-9.70847
  0
LINE
  8
0
 10
33.0315
 20
-9.70847
 11
33.6253
 21
-9.185
  0
LINE
  8
0
 10
33.6253
 20
-9.185
 11
34.185
 21
-8.62529
  0
LINE
  8
0
 10
34.185
 20
-8.62529
 11
34.7085
 21
-8.03154
  0
LINE
  8
0
 10
34.7085
 20
-8.03154
 11
35.1936
 21
-7.40608
  0
LINE
  8
0
 10
35.1936
 20
-7.40608
 11
35.6385
 21
-6.7514
  0
LINE
  8
0
 10
35.6385
 20
-6.7514
 11
36.0415
 21
-6.07008
  0
LINE
  8
0
 10
36.0415
 20
-6.07008
 11
36.4008
 21
-5.36481
  0
LINE
  8
0
 10
36.4008
 20
-5.36481
 11
36.7152
 21
-4.63837
  0
LINE
  8
0
 10
36.7152
 20
-4.63837
 11
36.9833
 21
-3.8936
  0
LINE
  8
0
 10
36.9833
 20
-3.8936
 11
37.2041
 21
-3.13348
  0
LINE
  8
0
 10
37.2041
 20
-3.13348
 11
37.3768
 21
-2.36099
  0
LINE
  8
0
 10
37.3768
 20
-2.36099
 11
37.5006
 21
-1.57919
  0
LINE
  8
0
 10
37.5006
 20
-1.57919
 11
37.5751
 21
-0.791153
  0
LINE
  8
0
 10
37.5751
 20
-0.791153
 11
37.6
 21
0
  0
LINE
  8
0
 10
37.6
 20
0
 11
37.5751
 21
0.791153
  0
LINE
  8
0
 10
37.5751
 20
0.791153
 11
37.5006
 21
1.57919
  0
LINE
  8
0
 10
37.5006
 20
1.57919
 11
37.3768
 21
2.36099
  0
LINE
  8
0
 10
37.3768
 20
2.36099
 11
37.2041
 21
3.13348
  0
LINE
  8
0
 10
37.2041
 20
3.13348
 11
36.9833
 21
3.8936
  0
LINE
  8
0
 10
36.9833
 20
3.8936
 11
36.7152
 21
4.63837
  0
LINE
  8
0
 10
36.7152
 20
4.63837
 11
36.4008
 21
5.36481
  0
LINE
  8
0
 10
36.4008
 20
5.36481
 11
36.0415
 21
6.07008
  0
LINE
  8
0
 10
36.0415
 20
6.07008
 11
35.6385
 21
6.7514
  0
LINE
  8
0
 10
35.6385
 20
6.7514
 11
35.1936
 21
7.40608
  0
LINE
  8
0
 10
35.1936
 20
7.40608
 11
34.7085
 21
8.03154
  0
LINE
  8
0
 10
34.7085
 20
8.03154
 11
34.185
 21
8.62529
  0
LINE
  8
0
 10
34.185
 20
8.62529
 11
33.6253
 21
9.185
  0
LINE
  8
0
 10
33.6253
 20
9.185
 11
33.0315
 21
9.70847
  0
LINE
  8
0
 10
33.0315
 20
9.70847
 11
32.4061
 21
10.1936
  0
LINE
  8
0
 10
32.4061
 20
10.1936
 11
31.7514
 21
10.6385
  0
LINE
  8
0
 10
31.7514
 20
10.6385
 11
31.0701
 21
11.0415
  0
LINE
  8
0
 10
31.0701
 20
11.0415
 11
30.3648
 21
11.4008
  0
LINE
  8
0
 10
30.3648
 20
11.4008
 11
29.6384
 21
11.7152
  0
LINE
  8
0
 10
29.6384
 20
11.7152
 11
28.8936
 21
11.9833
  0
LINE
  8
0
 10
28.8936
 20
11.9833
 11
28.1335
 21
12.2041
  0
LINE
  8
0
 10
28.1335
 20
12.2041
 11
27.361
 21
12.3768
  0
LINE
  8
0
 10
27.361
 20
12.3768
 11
26.5792
 21
12.5006
  0
LINE
  8
0
 10
26.5792
 20
12.5006
 11
25.7912
 21
12.5751
  0
LINE
  8
0
 10
25.7912
 20
12.5751
 11
25
 21
12.6
  0
LINE
  8
0
 10
25
 20
12.6
 11
24.2088
 21
12.5751
  0
LINE
  8
0
 10
24.2088
 20
12.5751
 11
23.4208
 21
12.5006
  0
LINE
  8
0
 10
23.4208
 20
12.5006
 11
22.639
 21
12.3768
  0
LINE
  8
0
 10
22.639
 20
12.3768
 11
21.8665
 21
12.2041
  0
LINE
  8
0
 10
21.8665
 20
12.2041
 11
21.1064
 21
11.9833
  0
LINE
  8
0
 10
21.1064
 20
11.9833
 11
20.3616
 21
11.7152
  0
LINE
  8
0
 10
20.3616
 20
11.7152
 11
19.6352
 21
11.4008
  0
LINE
  8
0
 10
19.6352
 20
11.4008
 11
18.9299
 21
11.0415
  0
LINE
  8
0
 10
18.9299
 20
11.0415
 11
18.2486
 21
10.6385
  0
LINE
  8
0
 10
18.2486
 20
10.6385
 11
17.5939
 21
10.1936
  0
LINE
  8
0
 10
17.5939
 20
10.1936
 11
16.9685
 21
9.70847
  0
LINE
  8
0
 10
16.9685
 20
9.70847
 11
16.3747
 21
9.185
  0
LINE
  8
0
 10
16.3747
 20
9.185
 11
15.815
 21
8.62529
  0
LINE
  8
0
 10
15.815
 20
8.62529
 11
15.4482
 21
8.20923
  0
LINE
  8
0
 10
15.4482
 20
8.20923
 11
15.3354
 21
8.43068
  0
LINE
  8
0
 10
15.3354
 20
8.43068
 11
14.7757
 21
9.37697
  0
LINE
  8
0
 10
14.7757
 20
9.37697
 11
14.1578
 21
10.2862
  0
LINE
  8
0
 10
14.1578
 20
10.2862
 11
13.484
 21
11.1549
  0
LINE
  8
0
 10
13.484
 20
11.1549
 11
12.7569
 21
11.9796
  0
LINE
  8
0
 10
12.7569
 20
11.9796
 11
11.9796
 21
12.7569
  0
LINE
  8
0
 10
11.9796
 20
12.7569
 11
11.1549
 21
13.484
  0
LINE
  8
0
 10
11.1549
 20
13.484
 11
10.2862
 21
14.1578
  0
LINE
  8
0
 10
10.2862
 20
14.1578
 11
9.37697
 21
14.7757
  0
LINE
  8
0
 10
9.37697
 20
14.7757
 11
8.43068
 21
15.3354
  0
LINE
  8
0
 10
8.43068
 20
15.3354
 11
8.20923
 21
15.4482
  0
LINE
  8
0
 10
8.20923
 20
15.4482
 11
8.62529
 21
15.815
  0
LINE
  8
0
 10
8.62529
 20
15.815
 11
9.185
 21
16.3747
  0
LINE
  8
0
 10
9.185
 20
16.3747
 11
9.70847
 21
16.9685
  0
LINE
  8
0
 10
9.70847
 20
16.9685
 11
10.1936
 21
17.5939
  0
LINE
  8
0
 10
10.1936
 20
17.5939
 11
10.6385
 21
18.2486
  0
LINE
  8
0
 10
10.6385
 20
18.2486
 11
11.0415
 21
18.9299
  0
LINE
  8
0
 10
11.0415
 20
18.9299
 11
11.4008
 21
19.6352
  0
LINE
  8
0
 10
11.4008
 20
19.6352
 11
11.7152
 21
20.3616
  0
LINE
  8
0
 10
11.7152
 20
20.3616
 11
11.9833
 21
21.1064
  0
LINE
  8
0
 10
11.9833
 20
21.1064
 11
12.2041
 21
21.8665
  0
LINE
  8
0
 10
12.2041
 20
21.8665
 11
12.3768
 21
22.639
  0
LINE
  8
0
 10
12.3768
 20
22.639
 11
12.5006
 21
23.4208
  0
LINE
  8
0
 10
12.5006
 20
23.4208
 11
12.5751
 21
24.2088
  0
LINE
  8
0
 10
12.5751
 20
24.2088
 11
12.6
 21
25
  0
LINE
  8
0
 10
12.6
 20
25
 11
12.5751
 21
25.7912
  0
LINE
  8
0
 10
12.5751
 20
25.7912
 11
12.5006
 21
26.5792
  0
LINE
  8
0
 10
12.5006
 20
26.5792
 11
12.3768
 21
27.361
  0
LINE
  8
0
 10
12.3768
 20
27.361
 11
12.2041
 21
28.1335
  0
LINE
  8
0
 10
12.2041
 20
28.1335
 11
11.9833
 21
28.8936
  0
LINE
  8
0
 10
11.9833
 20
28.8936
 11
11.7152
 21
29.6384
  0
LINE
  8
0
 10
11.7152
 20
29.6384
 11
11.4008
 21
30.3648
  0
LINE
  8
0
 10
11.4008
 20
30.3648
 11
11.0415
 21
31.0701
  0
LINE
  8
0
 10
11.0415
 20
31.0701
 11
10.6385
 21
31.7514
  0
LINE
  8
0
 10
10.6385
 20
31.7514
 11
10.1936
 21
32.4061
  0
LINE
  8
0
 10
10.1936
 20
32.4061
 11
9.70847
 21
33.0315
  0
LINE
  8
0
 10
9.70847
 20
33.0315
 11
9.185
 21
33.6253
  0
LINE
  8
0
 10
9.185
 20
33.6253
 11
8.62529
 21
34.185
  0
LINE
  8
0
 10
8.62529
 20
34.185
 11
8.03154
 21
34.7085
  0
LINE
  8
0
 10
8.03154
 20
34.7085
 11
7.40608
 21
35.1936
  0
LINE
  8
0
 10
7.40608
 20
35.1936
 11
6.7514
 21
35.6385
  0
LINE
  8
0
 10
6.7514
 20
35.6385
 11
6.07008
 21
36.0415
  0
LINE
  8
0
 10
6.07008
 20
36.0415
 11
5.36481
 21
36.4008
  0
LINE
  8
0
 10
5.36481
 20
36.4008
 11
4.63837
 21
36.7152
  0
LINE
  8
0
 10
4.63837
 20
36.7152
 11
3.8936
 21
36.9833
  0
LINE
  8
0
 10
3.8936
 20
36.9833
 11
3.13348
 21
37.2041
  0
LINE
  8
0
 10
3.13348
 20
37.2041
 11
2.36099
 21
37.3768
  0
LINE
  8
0
 10
2.36099
 20
37.3768
 11
1.57919
 21
37.5006
  0
LINE
  8
0
 10
1.57919
 20
37.5006
 11
0.791153
 21
37.5751
  0
LINE
  8
0
 10
0.791153
 20
37.5751
 11
0
 21
37.6
  0
LINE
  8
0
 10
0
 20
37.6
 11
-0.791138
 21
37.5751
  0
LINE
  8
0
 10
-0.791138
 20
37.5751
 11
-1.57918
 21
37.5006
  0
LINE
  8
0
 10
-1.57918
 20
37.5006
 11
-2.36098
 21
37.3768
  0
LINE
  8
0
 10
-2.36098
 20
37.3768
 11
-3.13347
 21
37.2041
  0
LINE
  8
0
 10
-3.13347
 20
37.2041
 11
-3.89359
 21
36.9833
  0
LINE
  8
0
 10
-3.89359
 20
36.9833
 11
-4.63835
 21
36.7152
  0
LINE
  8
0
 10
-4.63835
 20
36.7152
 11
-5.36479
 21
36.4008
  0
LINE
  8
0
 10
-5.36479
 20
36.4008
 11
-6.07007
 21
36.0415
  0
LINE
  8
0
 10
-6.07007
 20
36.0415
 11
-6.75139
 21
35.6385
  0
LINE
  8
0
 10
-6.75139
 20
35.6385
 11
-7.40607
 21
35.1936
  0
LINE
  8
0
 10
-7.40607
 20
35.1936
 11
-8.03152
 21
34.7085
  0
LINE
  8
0
 10
-8.03152
 20
34.7085
 11
-8.62527
 21
34.185
  0
LINE
  8
0
 10
-8.62527
 20
34.185
 11
-9.18498
 21
33.6253
  0
LINE
  8
0
 10
-9.18498
 20
33.6253
 11
-9.70845
 21
33.0315
  0
LINE
  8
0
 10
-9.70845
 20
33.0315
 11
-10.1936
 21
32.4061
  0
LINE
  8
0
 10
-10.1936
 20
32.4061
 11
-10.6385
 21
31.7514
  0
LINE
  8
0
 10
-10.6385
 20
31.7514
 11
-11.0414
 21
31.0701
  0
LINE
  8
0
 10
-11.0414
 20
31.0701
 11
-11.4008
 21
30.3648
  0
LINE
  8
0
 10
-11.4008
 20
30.3648
 11
-11.7152
 21
29.6384
  0
LINE
  8
0
 10
-11.7152
 20
29.6384
 11
-11.9833
 21
28.8936
  0
LINE
  8
0
 10
-11.9833
 20
28.8936
 11
-12.2041
 21
28.1335
  0
LINE
  8
0
 10
-12.2041
 20
28.1335
 11
-12.3768
 21
27.361
  0
LINE
  8
0
 10
-12.3768
 20
27.361
 11
-12.5006
 21
26.5792
  0
LINE
  8
0
 10
-12.5006
 20
26.5792
 11
-12.5751
 21
25.7912
  0
LINE
  8
0
 10
-12.5751
 20
25.7912
 11
-12.6
 21
25
  0
LINE
  8
0
 10
-12.6
 20
25
 11
-12.5751
 21
24.2088
  0
LINE
  8
0
 10
-12.5751
 20
24.2088
 11
-12.5006
 21
23.4208
  0
LINE
  8
0
 10
-12.5006
 20
23.4208
 11
-12.3768
 21
22.639
  0
LINE
  8
0
 10
-12.3768
 20
22.639
 11
-12.2041
 21
21.8665
  0
LINE
  8
0
 10
-12.2041
 20
21.8665
 11
-11.9833
 21
21.1064
  0
LINE
  8
0
 10
-11.9833
 20
21.1064
 11
-11.7152
 21
20.3616
  0
LINE
  8
0
 10
-11.7152
 20
20.3616
 11
-11.4008
 21
19.6352
  0
LINE
  8
0
 10
-11.4008
 20
19.6352
 11
-11.0414
 21
18.9299
  0
LINE
  8
0
 10
-11.0414
 20
18.9299
 11
-10.6385
 21
18.2486
  0
LINE
  8
0
 10
-10.6385
 20
18.2486
 11
-10.1936
 21
17.5939
  0
LINE
  8
0
 10
-10.1936
 20
17.5939
 11
-9.70845
 21
16.9685
  0
LINE
  8
0
 10
-9.70845
 20
16.9685
 11
-9.18498
 21
16.3747
  0
LINE
  8
0
 10
-9.18498
 20
16.3747
 11
-8.62527
 21
15.815
  0
LINE
  8
0
 10
-8.62527
 20
15.815
 11
-8.20923
 21
15.4482
  0
LINE
  8
0
 10
-8.20923
 20
15.4482
 11
-8.43068
 21
15.3354
  0
LINE
  8
0
 10
-8.43068
 20
15.3354
 11
-9.37697
 21
14.7757
  0
LINE
  8
0
 10
-9.37697
 20
14.7757
 11
-10.2862
 21
14.1578
  0
LINE
  8
0
 10
-10.2862
 20
14.1578
 11
-11.1549
 21
13.484
  0
LINE
  8
0
 10
-11.1549
 20
13.484
 11
-11.9796
 21
12.7569
  0
LINE
  8
0
 10
-11.9796
 20
12.7569
 11
-12.7569
 21
11.9796
  0
LINE
  8
0
 10
-12.7569
 20
11.9796
 11
-13.484
 21
11.1549
  0
LINE
  8
0
 10
-13.484
 20
11.1549
 11
-14.1578
 21
10.2862
  0
LINE
  8
0
 10
-14.1578
 20
10.2862
 11
-14.7757
 21
9.37697
  0
LINE
  8
0
 10
-14.7757
 20
9.37697
 11
-15.3354
 21
8.43068
  0
LINE
  8
0
 10
-15.3354
 20
8.43068
 11
-15.4482
 21
8.20924
  0
LINE
  8
0
 10
-15.4482
 20
8.20924
 11
-15.815
 21
8.62529
  0
LINE
  8
0
 10
-15.815
 20
8.62529
 11
-16.3747
 21
9.185
  0
LINE
  8
0
 10
-16.3747
 20
9.185
 11
-16.9685
 21
9.70847
  0
LINE
  8
0
 10
-16.9685
 20
9.70847
 11
-17.5939
 21
10.1936
  0
LINE
  8
0
 10
-17.5939
 20
10.1936
 11
-18.2486
 21
10.6385
  0
LINE
  8
0
 10
-18.2486
 20
10.6385
 11
-18.9299
 21
11.0415
  0
LINE
  8
0
 10
-18.9299
 20
11.0415
 11
-19.6352
 21
11.4008
  0
LINE
  8
0
 10
-19.6352
 20
11.4008
 11
-20.3616
 21
11.7152
  0
LINE
  8
0
 10
-20.3616
 20
11.7152
 11
-21.1064
 21
11.9833
  0
LINE
  8
0
 10
-21.1064
 20
11.9833
 11
-21.8665
 21
12.2041
  0
LINE
  8
0
 10
-21.8665
 20
12.2041
 11
-22.639
 21
12.3768
  0
LINE
  8
0
 10
-22.639
 20
12.3768
 11
-23.4208
 21
12.5006
  0
LINE
  8
0
 10
-23.4208
 20
12.5006
 11
-24.2088
 21
12.5751
  0
LINE
  8
0
 10
-24.2088
 20
12.5751
 11
-25
 21
12.6
  0
LINE
  8
0
 10
-25
 20
12.6
 11
-25.7912
 21
12.5751
  0
LINE
  8
0
 10
-25.7912
 20
12.5751
 11
-26.5792
 21
12.5006
  0
LINE
  8
0
 10
-26.5792
 20
12.5006
 11
-27.361
 21
12.3768
  0
LINE
  8
0
 10
-27.361
 20
12.3768
 11
-28.1335
 21
12.2041
  0
LINE
  8
0
 10
-28.1335
 20
12.2041
 11
-28.8936
 21
11.9833
  0
LINE
  8
0
 10
-28.8936
 20
11.9833
 11
-29.6384
 21
11.7152
  0
LINE
  8
0
 10
-29.6384
 20
11.7152
 11
-30.3648
 21
11.4008
  0
LINE
  8
0
 10
-30.3648
 20
11.4008
 11
-31.0701
 21
11.0415
  0
LINE
  8
0
 10
-31.0701
 20
11.0415
 11
-31.7514
 21
10.6385
  0
LINE
  8
0
 10
-31.7514
 20
10.6385
 11
-32.4061
 21
10.1936
  0
LINE
  8
0
 10
-32.4061
 20
10.1936
 11
-33.0315
 21
9.70847
  0
LINE
  8
0
 10
-33.0315
 20
9.70847
 11
-33.6253
 21
9.185
  0
LINE
  8
0
 10
-33.6253
 20
9.185
 11
-34.185
 21
8.62529
  0
LINE
  8
0
 10
-34.185
 20
8.62529
 11
-34.7085
 21
8.03154
  0
LINE
  8
0
 10
-34.7085
 20
8.03154
 11
-35.1936
 21
7.40608
  0
LINE
  8
0
 10
-35.1936
 20
7.40608
 11
-35.6385
 21
6.7514
  0
LINE
  8
0
 10
-35.6385
 20
6.7514
 11
-36.0415
 21
6.07008
  0
LINE
  8
0
 10
-36.0415
 20
6.07008
 11
-36.4008
 21
5.36481
  0
LINE
  8
0
 10
-36.4008
 20
5.36481
 11
-36.7152
 21
4.63837
  0
LINE
  8
0
 10
-36.7152
 20
4.63837
 11
-36.9833
 21
3.8936
  0
LINE
  8
0
 10
-36.9833
 20
3.8936
 11
-37.2041
 21
3.13348
  0
LINE
  8
0
 10
-37.2041
 20
3.13348
 11
-37.3768
 21
2.36099
  0
LINE
  8
0
 10
-37.3768
 20
2.36099
 11
-37.5006
 21
1.57919
  0
LINE
  8
0
 10
-37.5006
 20
1.57919
 11
-37.5751
 21
0.791153
  0
LINE
  8
0
 10
-37.5751
 20
0.791153
 11
-37.6
 21
0
  0
LINE
  8
0
 10
-37.6
 20
0
 11
-37.5751
 21
-0.791138
  0
LINE
  8
0
 10
-37.5751
 20
-0.791138
 11
-37.5006
 21
-1.57918
  0
LINE
  8
0
 10
-37.5006
 20
-1.57918
 11
-37.3768
 21
-2.36098
  0
LINE
  8
0
 10
-37.3768
 20
-2.36098
 11
-37.2041
 21
-3.13347
  0
LINE
  8
0
 10
-37.2041
 20
-3.13347
 11
-36.9833
 21
-3.89359
  0
LINE
  8
0
 10
-36.9833
 20
-3.89359
 11
-36.7152
 21
-4.63835
  0
LINE
  8
0
 10
-36.7152
 20
-4.63835
 11
-36.4008
 21
-5.36479
  0
LINE
  8
0
 10
-36.4008
 20
-5.36479
 11
-36.0415
 21
-6.07007
  0
LINE
  8
0
 10
-36.0415
 20
-6.07007
 11
-35.6385
 21
-6.75139
  0
LINE
  8
0
 10
-35.6385
 20
-6.75139
 11
-35.1936
 21
-7.40607
  0
LINE
  8
0
 10
-35.1936
 20
-7.40607
 11
-34.7085
 21
-8.03152
  0
LINE
  8
0
 10
-34.7085
 20
-8.03152
 11
-34.185
 21
-8.62527
  0
LINE
  8
0
 10
-34.185
 20
-8.62527
 11
-33.6253
 21
-9.18498
  0
LINE
  8
0
 10
-33.6253
 20
-9.18498
 11
-33.0315
 21
-9.70845
  0
LINE
  8
0
 10
-33.0315
 20
-9.70845
 11
-32.4061
 21
-10.1936
  0
LINE
  8
0
 10
-32.4061
 20
-10.1936
 11
-31.7514
 21
-10.6385
  0
LINE
  8
0
 10
-31.7514
 20
-10.6385
 11
-31.0701
 21
-11.0414
  0
LINE
  8
0
 10
-31.0701
 20
-11.0414
 11
-30.3648
 21
-11.4008
  0
LINE
  8
0
 10
-30.3648
 20
-11.4008
 11
-29.6384
 21
-11.7152
  0
LINE
  8
0
 10
-29.6384
 20
-11.7152
 11
-28.8936
 21
-11.9833
  0
LINE
  8
0
 10
-28.8936
 20
-11.9833
 11
-28.1335
 21
-12.2041
  0
LINE
  8
0
 10
-28.1335
 20
-12.2041
 11
-27.361
 21
-12.3768
  0
LINE
  8
0
 10
-27.361
 20
-12.3768
 11
-26.5792
 21
-12.5006
  0
LINE
  8
0
 10
-26.5792
 20
-12.5006
 11
-25.7912
 21
-12.5751
  0
LINE
  8
0
 10
-25.7912
 20
-12.5751
 11
-25
 21
-12.6
  0
LINE
  8
0
 10
-25
 20
-12.6
 11
-24.2088
 21
-12.5751
  0
LINE
  8
0
 10
-24.2088
 20
-12.5751
 11
-23.4208
 21
-12.5006
  0
LINE
  8
0
 10
-23.4208
 20
-12.5006
 11
-22.639
 21
-12.3768
  0
LINE
  8
0
 10
-22.639
 20
-12.3768
 11
-21.8665
 21
-12.2041
  0
LINE
  8
0
 10
-21.8665
 20
-12.2041
 11
-21.1064
 21
-11.9833
  0
LINE
  8
0
 10
-21.1064
 20
-11.9833
 11
-20.3616
 21
-11.7152
  0
LINE
  8
0
 10
-20.3616
 20
-11.7152
 11
-19.6352
 21
-11.4008
  0
LINE
  8
0
 10
-19.6352
 20
-11.4008
 11
-18.9299
 21
-11.0414
  0
LINE
  8
0
 10
-18.9299
 20
-11.0414
 11
-18.2486
 21
-10.6385
  0
LINE
  8
0
 10
-18.2486
 20
-10.6385
 11
-17.5939
 21
-10.1936
  0
LINE
  8
0
 10
-17.5939
 20
-10.1936
 11
-16.9685
 21
-9.70845
  0
LINE
  8
0
 10
-16.9685
 20
-9.70845
 11
-16.3747
 21
-9.18498
  0
LINE
  8
0
 10
-16.3747
 20
-9.18498
 11
-15.815
 21
-8.62527
  0
LINE
  8
0
 10
-15.815
 20
-8.62527
 11
-15.4482
 21
-8.20923
  0
LINE
  8
0
 10
-15.4482
 20
-8.20923
 11
-15.3354
 21
-8.43068
  0
LINE
  8
0
 10
-15.3354
 20
-8.43068
 11
-14.7757
 21
-9.37697
  0
LINE
  8
0
 10
-14.7757
 20
-9.37697
 11
-14.1578
 21
-10.2862
  0
LINE
  8
0
 10
-14.1578
 20
-10.2862
 11
-13.484
 21
-11.1549
  0
LINE
  8
0
 10
-13.484
 20
-11.1549
 11
-12.7569
 21
-11.9796
  0
LINE
  8
0
 10
-12.7569
 20
-11.9796
 11
-11.9796
 21
-12.7569
  0
LINE
  8
0
 10
-11.9796
 20
-12.7569
 11
-11.1549
 21
-13.484
  0
LINE
  8
0
 10
-11.1549
 20
-13.484
 11
-10.2862
 21
-14.1578
  0
LINE
  8
0
 10
-10.2862
 20
-14.1578
 11
-9.37697
 21
-14.7757
  0
LINE
  8
0
 10
-9.37697
 20
-14.7757
 11
-8.43068
 21
-15.3354
  0
LINE
  8
0
 10
-8.43068
 20
-15.3354
 11
-8.20924
 21
-15.4482
  0
LINE
  8
0
 10
-8.20924
 20
-15.4482
 11
-8.62529
 21
-15.815
  0
LINE
  8
0
 10
-8.62529
 20
-15.815
 11
-9.185
 21
-16.3747
  0
LINE
  8
0
 10
-9.185
 20
-16.3747
 11
-9.70847
 21
-16.9684
  0
LINE
  8
0
 10
-9.70847
 20
-16.9684
 11
-10.1936
 21
-17.5939
  0
LINE
  8
0
 10
-10.1936
 20
-17.5939
 11
-10.6385
 21
-18.2486
  0
LINE
  8
0
 10
-10.6385
 20
-18.2486
 11
-11.0415
 21
-18.9299
  0
LINE
  8
0
 10
-11.0415
 20
-18.9299
 11
-11.4008
 21
-19.6352
  0
LINE
  8
0
 10
-11.4008
 20
-19.6352
 11
-11.7152
 21
-20.3616
  0
LINE
  8
0
 10
-11.7152
 20
-20.3616
 11
-11.9833
 21
-21.1064
  0
LINE
  8
0
 10
-11.9833
 20
-21.1064
 11
-12.2041
 21
-21.8665
  0
LINE
  8
0
 10
-12.2041
 20
-21.8665
 11
-12.3768
 21
-22.639
  0
LINE
  8
0
 10
-12.3768
 20
-22.639
 11
-12.5006
 21
-23.4208
  0
LINE
  8
0
 10
-12.5006
 20
-23.4208
 11
-12.5751
 21
-24.2088
  0
LINE
  8
0
 10
-12.5751
 20
-24.2088
 11
-12.6
 21
-25
  0
LINE
  8
0
 10
-12.6
 20
-25
 11
-12.5751
 21
-25.7911
  0
LINE
  8
0
 10
-12.5751
 20
-25.7911
 11
-12.5006
 21
-26.5792
  0
LINE
  8
0
 10
-12.5006
 20
-26.5792
 11
-12.3768
 21
-27.361
  0
LINE
  8
0
 10
-12.3768
 20
-27.361
 11
-12.2041
 21
-28.1335
  0
LINE
  8
0
 10
-12.2041
 20
-28.1335
 11
-11.9833
 21
-28.8936
  0
LINE
  8
0
 10
-11.9833
 20
-28.8936
 11
-11.7152
 21
-29.6384
  0
LINE
  8
0
 10
-11.7152
 20
-29.6384
 11
-11.4008
 21
-30.3648
  0
LINE
  8
0
 10
-11.4008
 20
-30.3648
 11
-11.0415
 21
-31.0701
  0
LINE
  8
0
 10
-11.0415
 20
-31.0701
 11
-10.6385
 21
-31.7514
  0
LINE
  8
0
 10
-10.6385
 20
-31.7514
 11
-10.1936
 21
-32.4061
  0
LINE
  8
0
 10
-10.1936
 20
-32.4061
 11
-9.70847
 21
-33.0315
  0
LINE
  8
0
 10
-9.70847
 20
-33.0315
 11
-9.185
 21
-33.6253
  0
LINE
  8
0
 10
-9.185
 20
-33.6253
 11
-8.62529
 21
-34.185
  0
LINE
  8
0
 10
-8.62529
 20
-34.185
 11
-8.03154
 21
-34.7085
  0
LINE
  8
0
 10
-8.03154
 20
-34.7085
 11
-7.40608
 21
-35.1936
  0
LINE
  8
0
 10
-7.40608
 20
-35.1936
 11
-6.7514
 21
-35.6385
  0
LINE
  8
0
 10
-6.7514
 20
-35.6385
 11
-6.07008
 21
-36.0415
  0
LINE
  8
0
 10
-6.07008
 20
-36.0415
 11
-5.36481
 21
-36.4008
  0
LINE
  8
0
 10
-5.36481
 20
-36.4008
 11
-4.63837
 21
-36.7152
  0
LINE
  8
0
 10
-4.63837
 20
-36.7152
 11
-3.8936
 21
-36.9833
  0
LINE
  8
0
 10
-3.8936
 20
-36.9833
 11
-3.13348
 21
-37.2041
  0
LINE
  8
0
 10
-3.13348
 20
-37.2041
 11
-2.36099
 21
-37.3768
  0
LINE
  8
0
 10
-2.36099
 20
-37.3768
 11
-1.57919
 21
-37.5006
  0
LINE
  8
0
 10
-1.57919
 20
-37.5006
 11
-0.791153
 21
-37.5751
  0
LINE
  8
0
 10
-0.791153
 20
-37.5751
 11
0
 21
-37.6
  0
LINE
  8
0
 10
0
 20
-37.6
 11
0.791138
 21
-37.5751
  0
LINE
  8
0
 10
-0.354736
 20
19.3612
 11
-0.708115
 21
19.3946
  0
LINE
  8
0
 10
-0.708115
 20
19.3946
 11
-1.05869
 21
19.4501
  0
LINE
  8
0
 10
-1.05869
 20
19.4501
 11
-1.40508
 21
19.5275
  0
LINE
  8
0
 10
-1.40508
 20
19.5275
 11
-1.74593
 21
19.6265
  0
LINE
  8
0
 10
-1.74593
 20
19.6265
 11
-2.07988
 21
19.7468
  0
LINE
  8
0
 10
-2.07988
 20
19.7468
 11
-2.40562
 21
19.8877
  0
LINE
  8
0
 10
-2.40562
 20
19.8877
 11
-2.72188
 21
20.0489
  0
LINE
  8
0
 10
-2.72188
 20
20.0489
 11
-3.0274
 21
20.2296
  0
LINE
  8
0
 10
-3.0274
 20
20.2296
 11
-3.32097
 21
20.4291
  0
LINE
  8
0
 10
-3.32097
 20
20.4291
 11
-3.60143
 21
20.6466
  0
LINE
  8
0
 10
-3.60143
 20
20.6466
 11
-3.86768
 21
20.8813
  0
LINE
  8
0
 10
-3.86768
 20
20.8813
 11
-4.11865
 21
21.1323
  0
LINE
  8
0
 10
-4.11865
 20
21.1323
 11
-4.35338
 21
21.3986
  0
LINE
  8
0
 10
-4.35338
 20
21.3986
 11
-4.57092
 21
21.679
  0
LINE
  8
0
 10
-4.57092
 20
21.679
 11
-4.77043
 21
21.9726
  0
LINE
  8
0
 10
-4.77043
 20
21.9726
 11
-4.95111
 21
22.2781
  0
LINE
  8
0
 10
-4.95111
 20
22.2781
 11
-5.11224
 21
22.5944
  0
LINE
  8
0
 10
-5.11224
 20
22.5944
 11
-5.25322
 21
22.9201
  0
LINE
  8
0
 10
-5.25322
 20
22.9201
 11
-5.37344
 21
23.2541
  0
LINE
  8
0
 10
-5.37344
 20
23.2541
 11
-5.47247
 21
23.5949
  0
LINE
  8
0
 10
-5.47247
 20
23.5949
 11
-5.5499
 21
23.9413
  0
LINE
  8
0
 10
-5.5499
 20
23.9413
 11
-5.60542
 21
24.2919
  0
LINE
  8
0
 10
-5.60542
 20
24.2919
 11
-5.63882
 21
24.6452
  0
LINE
  8
0
 10
-5.63882
 20
24.6452
 11
-5.64998
 21
25
  0
LINE
  8
0
 10
-5.64998
 20
25
 11
-5.63882
 21
25.3548
  0
LINE
  8
0
 10
-5.63882
 20
25.3548
 11
-5.60542
 21
25.7081
  0
LINE
  8
0
 10
-5.60542
 20
25.7081
 11
-5.5499
 21
26.0587
  0
LINE
  8
0
 10
-5.5499
 20
26.0587
 11
-5.47247
 21
26.4051
  0
LINE
  8
0
 10
-5.47247
 20
26.4051
 11
-5.37344
 21
26.7459
  0
LINE
  8
0
 10
-5.37344
 20
26.7459
 11
-5.25322
 21
27.0799
  0
LINE
  8
0
 10
-5.25322
 20
27.0799
 11
-5.11224
 21
27.4056
  0
LINE
  8
0
 10
-5.11224
 20
27.4056
 11
-4.95111
 21
27.7219
  0
LINE
  8
0
 10
-4.95111
 20
27.7219
 11
-4.77043
 21
28.0274
  0
LINE
  8
0
 10
-4.77043
 20
28.0274
 11
-4.57092
 21
28.321
  0
LINE
  8
0
 10
-4.57092
 20
28.321
 11
-4.35338
 21
28.6014
  0
LINE
  8
0
 10
-4.35338
 20
28.6014
 11
-4.11865
 21
28.8677
  0
LINE
  8
0
 10
-4.11865
 20
28.8677
 11
-3.86768
 21
29.1187
  0
LINE
  8
0
 10
-3.86768
 20
29.1187
 11
-3.60143
 21
29.3534
  0
LINE
  8
0
 10
-3.60143
 20
29.3534
 11
-3.32097
 21
29.5709
  0
LINE
  8
0
 10
-3.32097
 20
29.5709
 11
-3.0274
 21
29.7704
  0
LINE
  8
0
 10
-3.0274
 20
29.7704
 11
-2.72188
 21
29.9511
  0
LINE
  8
0
 10
-2.72188
 20
29.9511
 11
-2.40562
 21
30.1123
  0
LINE
  8
0
 10
-2.40562
 20
30.1123
 11
-2.07988
 21
30.2532
  0
LINE
  8
0
 10
-2.07988
 20
30.2532
 11
-1.74593
 21
30.3735
  0
LINE
  8
0
 10
-1.74593
 20
30.3735
 11
-1.40508
 21
30.4725
  0
LINE
  8
0
 10
-1.40508
 20
30.4725
 11
-1.05869
 21
30.5499
  0
LINE
  8
0
 10
-1.05869
 20
30.5499
 11
-0.708115
 21
30.6054
  0
LINE
  8
0
 10
-0.708115
 20
30.6054
 11
-0.354736
 21
30.6388
  0
LINE
  8
0
 10
-0.354736
 20
30.6388
 11
0
 21
30.65
  0
LINE
  8
0
 10
0
 20
30.65
 11
0.354752
 21
30.6388
  0
LINE
  8
0
 10
0.354752
 20
30.6388
 11
0.70813
 21
30.6054
  0
LINE
  8
0
 10
0.70813
 20
30.6054
 11
1.0587
 21
30.5499
  0
LINE
  8
0
 10
1.0587
 20
30.5499
 11
1.40509
 21
30.4725
  0
LINE
  8
0
 10
1.40509
 20
30.4725
 11
1.74594
 21
30.3735
  0
LINE
  8
0
 10
1.74594
 20
30.3735
 11
2.0799
 21
30.2532
  0
LINE
  8
0
 10
2.0799
 20
30.2532
 11
2.40564
 21
30.1123
  0
LINE
  8
0
 10
2.40564
 20
30.1123
 11
2.72189
 21
29.9511
  0
LINE
  8
0
 10
2.72189
 20
29.9511
 11
3.02742
 21
29.7704
  0
LINE
  8
0
 10
3.02742
 20
29.7704
 11
3.32098
 21
29.5709
  0
LINE
  8
0
 10
3.32098
 20
29.5709
 11
3.60144
 21
29.3534
  0
LINE
  8
0
 10
3.60144
 20
29.3534
 11
3.86769
 21
29.1187
  0
LINE
  8
0
 10
3.86769
 20
29.1187
 11
4.11867
 21
28.8677
  0
LINE
  8
0
 10
4.11867
 20
28.8677
 11
4.35339
 21
28.6014
  0
LINE
  8
0
 10
4.35339
 20
28.6014
 11
4.57094
 21
28.321
  0
LINE
  8
0
 10
4.57094
 20
28.321
 11
4.77045
 21
28.0274
  0
LINE
  8
0
 10
4.77045
 20
28.0274
 11
4.95113
 21
27.7219
  0
LINE
  8
0
 10
4.95113
 20
27.7219
 11
5.11226
 21
27.4056
  0
LINE
  8
0
 10
5.11226
 20
27.4056
 11
5.25323
 21
27.0799
  0
LINE
  8
0
 10
5.25323
 20
27.0799
 11
5.37346
 21
26.7459
  0
LINE
  8
0
 10
5.37346
 20
26.7459
 11
5.47249
 21
26.4051
  0
LINE
  8
0
 10
5.47249
 20
26.4051
 11
5.54991
 21
26.0587
  0
LINE
  8
0
 10
5.54991
 20
26.0587
 11
5.60544
 21
25.7081
  0
LINE
  8
0
 10
5.60544
 20
25.7081
 11
5.63884
 21
25.3548
  0
LINE
  8
0
 10
5.63884
 20
25.3548
 11
5.64999
 21
25
  0
LINE
  8
0
 10
5.64999
 20
25
 11
5.63884
 21
24.6452
  0
LINE
  8
0
 10
5.63884
 20
24.6452
 11
5.60544
 21
24.2919
  0
LINE
  8
0
 10
5.60544
 20
24.2919
 11
5.54991
 21
23.9413
  0
LINE
  8
0
 10
5.54991
 20
23.9413
 11
5.47249
 21
23.5949
  0
LINE
  8
0
 10
5.47249
 20
23.5949
 11
5.37346
 21
23.2541
  0
LINE
  8
0
 10
5.37346
 20
23.2541
 11
5.25323
 21
22.9201
  0
LINE
  8
0
 10
5.25323
 20
22.9201
 11
5.11226
 21
22.5944
  0
LINE
  8
0
 10
5.11226
 20
22.5944
 11
4.95113
 21
22.2781
  0
LINE
  8
0
 10
4.95113
 20
22.2781
 11
4.77045
 21
21.9726
  0
LINE
  8
0
 10
4.77045
 20
21.9726
 11
4.57094
 21
21.679
  0
LINE
  8
0
 10
4.57094
 20
21.679
 11
4.35339
 21
21.3986
  0
LINE
  8
0
 10
4.35339
 20
21.3986
 11
4.11867
 21
21.1323
  0
LINE
  8
0
 10
4.11867
 20
21.1323
 11
3.86769
 21
20.8813
  0
LINE
  8
0
 10
3.86769
 20
20.8813
 11
3.60144
 21
20.6466
  0
LINE
  8
0
 10
3.60144
 20
20.6466
 11
3.32098
 21
20.4291
  0
LINE
  8
0
 10
3.32098
 20
20.4291
 11
3.02742
 21
20.2296
  0
LINE
  8
0
 10
3.02742
 20
20.2296
 11
2.72189
 21
20.0489
  0
LINE
  8
0
 10
2.72189
 20
20.0489
 11
2.40564
 21
19.8877
  0
LINE
  8
0
 10
2.40564
 20
19.8877
 11
2.0799
 21
19.7468
  0
LINE
  8
0
 10
2.0799
 20
19.7468
 11
1.74594
 21
19.6265
  0
LINE
  8
0
 10
1.74594
 20
19.6265
 11
1.40509
 21
19.5275
  0
LINE
  8
0
 10
1.40509
 20
19.5275
 11
1.0587
 21
19.4501
  0
LINE
  8
0
 10
1.0587
 20
19.4501
 11
0.70813
 21
19.3946
  0
LINE
  8
0
 10
0.70813
 20
19.3946
 11
0.354752
 21
19.3612
  0
LINE
  8
0
 10
0.354752
 20
19.3612
 11
0
 21
19.35
  0
LINE
  8
0
 10
0
 20
19.35
 11
-0.354736
 21
19.3612
  0
LINE
  8
0
 10
24.6452
 20
-5.63884
 11
24.2919
 21
-5.60544
  0
LINE
  8
0
 10
24.2919
 20
-5.60544
 11
23.9413
 21
-5.54991
  0
LINE
  8
0
 10
23.9413
 20
-5.54991
 11
23.5949
 21
-5.47249
  0
LINE
  8
0
 10
23.5949
 20
-5.47249
 11
23.2541
 21
-5.37346
  0
LINE
  8
0
 10
23.2541
 20
-5.37346
 11
22.9201
 21
-5.25323
  0
LINE
  8
0
 10
22.9201
 20
-5.25323
 11
22.5944
 21
-5.11226
  0
LINE
  8
0
 10
22.5944
 20
-5.11226
 11
22.2781
 21
-4.95113
  0
LINE
  8
0
 10
22.2781
 20
-4.95113
 11
21.9726
 21
-4.77045
  0
LINE
  8
0
 10
21.9726
 20
-4.77045
 11
21.679
 21
-4.57094
  0
LINE
  8
0
 10
21.679
 20
-4.57094
 11
21.3986
 21
-4.35339
  0
LINE
  8
0
 10
21.3986
 20
-4.35339
 11
21.1323
 21
-4.11867
  0
LINE
  8
0
 10
21.1323
 20
-4.11867
 11
20.8813
 21
-3.86769
  0
LINE
  8
0
 10
20.8813
 20
-3.86769
 11
20.6466
 21
-3.60144
  0
LINE
  8
0
 10
20.6466
 20
-3.60144
 11
20.4291
 21
-3.32098
  0
LINE
  8
0
 10
20.4291
 20
-3.32098
 11
20.2296
 21
-3.02742
  0
LINE
  8
0
 10
20.2296
 20
-3.02742
 11
20.0489
 21
-2.72189
  0
LINE
  8
0
 10
20.0489
 20
-2.72189
 11
19.8877
 21
-2.40564
  0
LINE
  8
0
 10
19.8877
 20
-2.40564
 11
19.7468
 21
-2.0799
  0
LINE
  8
0
 10
19.7468
 20
-2.0799
 11
19.6265
 21
-1.74594
  0
LINE
  8
0
 10
19.6265
 20
-1.74594
 11
19.5275
 21
-1.40509
  0
LINE
  8
0
 10
19.5275
 20
-1.40509
 11
19.4501
 21
-1.0587
  0
LINE
  8
0
 10
19.4501
 20
-1.0587
 11
19.3946
 21
-0.70813
  0
LINE
  8
0
 10
19.3946
 20
-0.70813
 11
19.3612
 21
-0.354752
  0
LINE
  8
0
 10
19.3612
 20
-0.354752
 11
19.35
 21
0
  0
LINE
  8
0
 10
19.35
 20
0
 11
19.3612
 21
0.354752
  0
LINE
  8
0
 10
19.3612
 20
0.354752
 11
19.3946
 21
0.70813
  0
LINE
  8
0
 10
19.3946
 20
0.70813
 11
19.4501
 21
1.0587
  0
LINE
  8
0
 10
19.4501
 20
1.0587
 11
19.5275
 21
1.40509
  0
LINE
  8
0
 10
19.5275
 20
1.40509
 11
19.6265
 21
1.74594
  0
LINE
  8
0
 10
19.6265
 20
1.74594
 11
19.7468
 21
2.0799
  0
LINE
  8
0
 10
19.7468
 20
2.0799
 11
19.8877
 21
2.40564
  0
LINE
  8
0
 10
19.8877
 20
2.40564
 11
20.0489
 21
2.72189
  0
LINE
  8
0
 10
20.0489
 20
2.72189
 11
20.2296
 21
3.02742
  0
LINE
  8
0
 10
20.2296
 20
3.02742
 11
20.4291
 21
3.32098
  0
LINE
  8
0
 10
20.4291
 20
3.32098
 11
20.6466
 21
3.60144
  0
LINE
  8
0
 10
20.6466
 20
3.60144
 11
20.8813
 21
3.86769
  0
LINE
  8
0
 10
20.8813
 20
3.86769
 11
21.1323
 21
4.11867
  0
LINE
  8
0
 10
21.1323
 20
4.11867
 11
21.3986
 21
4.35339
  0
LINE
  8
0
 10
21.3986
 20
4.35339
 11
21.679
 21
4.57094
  0
LINE
  8
0
 10
21.679
 20
4.57094
 11
21.9726
 21
4.77045
  0
LINE
  8
0
 10
21.9726
 20
4.77045
 11
22.2781
 21
4.95113
  0
LINE
  8
0
 10
22.2781
 20
4.95113
 11
22.5944
 21
5.11226
  0
LINE
  8
0
 10
22.5944
 20
5.11226
 11
22.9201
 21
5.25323
  0
LINE
  8
0
 10
22.9201
 20
5.25323
 11
23.2541
 21
5.37346
  0
LINE
  8
0
 10
23.2541
 20
5.37346
 11
23.5949
 21
5.47249
  0
LINE
  8
0
 10
23.5949
 20
5.47249
 11
23.9413
 21
5.54991
  0
LINE
  8
0
 10
23.9413
 20
5.54991
 11
24.2919
 21
5.60544
  0
LINE
  8
0
 10
24.2919
 20
5.60544
 11
24.6452
 21
5.63884
  0
LINE
  8
0
 10
24.6452
 20
5.63884
 11
25
 21
5.64999
  0
LINE
  8
0
 10
25
 20
5.64999
 11
25.3548
 21
5.63884
  0
LINE
  8
0
 10
25.3548
 20
5.63884
 11
25.7081
 21
5.60544
  0
LINE
  8
0
 10
25.7081
 20
5.60544
 11
26.0587
 21
5.54991
  0
LINE
  8
0
 10
26.0587
 20
5.54991
 11
26.4051
 21
5.47249
  0
LINE
  8
0
 10
26.4051
 20
5.47249
 11
26.7459
 21
5.37346
  0
LINE
  8
0
 10
26.7459
 20
5.37346
 11
27.0799
 21
5.25323
  0
LINE
  8
0
 10
27.0799
 20
5.25323
 11
27.4056
 21
5.11226
  0
LINE
  8
0
 10
27.4056
 20
5.11226
 11
27.7219
 21
4.95113
  0
LINE
  8
0
 10
27.7219
 20
4.95113
 11
28.0274
 21
4.77045
  0
LINE
  8
0
 10
28.0274
 20
4.77045
 11
28.321
 21
4.57094
  0
LINE
  8
0
 10
28.321
 20
4.57094
 11
28.6014
 21
4.35339
  0
LINE
  8
0
 10
28.6014
 20
4.35339
 11
28.8677
 21
4.11867
  0
LINE
  8
0
 10
28.8677
 20
4.11867
 11
29.1187
 21
3.86769
  0
LINE
  8
0
 10
29.1187
 20
3.86769
 11
29.3534
 21
3.60144
  0
LINE
  8
0
 10
29.3534
 20
3.60144
 11
29.5709
 21
3.32098
  0
LINE
  8
0
 10
29.5709
 20
3.32098
 11
29.7704
 21
3.02742
  0
LINE
  8
0
 10
29.7704
 20
3.02742
 11
29.9511
 21
2.72189
  0
LINE
  8
0
 10
29.9511
 20
2.72189
 11
30.1123
 21
2.40564
  0
LINE
  8
0
 10
30.1123
 20
2.40564
 11
30.2532
 21
2.0799
  0
LINE
  8
0
 10
30.2532
 20
2.0799
 11
30.3735
 21
1.74594
  0
LINE
  8
0
 10
30.3735
 20
1.74594
 11
30.4725
 21
1.40509
  0
LINE
  8
0
 10
30.4725
 20
1.40509
 11
30.5499
 21
1.0587
  0
LINE
  8
0
 10
30.5499
 20
1.0587
 11
30.6054
 21
0.70813
  0
LINE
  8
0
 10
30.6054
 20
0.70813
 11
30.6388
 21
0.354752
  0
LINE
  8
0
 10
30.6388
 20
0.354752
 11
30.65
 21
0
  0
LINE
  8
0
 10
30.65
 20
0
 11
30.6388
 21
-0.354752
  0
LINE
  8
0
 10
30.6388
 20
-0.354752
 11
30.6054
 21
-0.70813
  0
LINE
  8
0
 10
30.6054
 20
-0.70813
 11
30.5499
 21
-1.0587
  0
LINE
  8
0
 10
30.5499
 20
-1.0587
 11
30.4725
 21
-1.40509
  0
LINE
  8
0
 10
30.4725
 20
-1.40509
 11
30.3735
 21
-1.74594
  0
LINE
  8
0
 10
30.3735
 20
-1.74594
 11
30.2532
 21
-2.0799
  0
LINE
  8
0
 10
30.2532
 20
-2.0799
 11
30.1123
 21
-2.40564
  0
LINE
  8
0
 10
30.1123
 20
-2.40564
 11
29.9511
 21
-2.72189
  0
LINE
  8
0
 10
29.9511
 20
-2.72189
 11
29.7704
 21
-3.02742
  0
LINE
  8
0
 10
29.7704
 20
-3.02742
 11
29.5709
 21
-3.32098
  0
LINE
  8
0
 10
29.5709
 20
-3.32098
 11
29.3534
 21
-3.60144
  0
LINE
  8
0
 10
29.3534
 20
-3.60144
 11
29.1187
 21
-3.86769
  0
LINE
  8
0
 10
29.1187
 20
-3.86769
 11
28.8677
 21
-4.11867
  0
LINE
  8
0
 10
28.8677
 20
-4.11867
 11
28.6014
 21
-4.35339
  0
LINE
  8
0
 10
28.6014
 20
-4.35339
 11
28.321
 21
-4.57094
  0
LINE
  8
0
 10
28.321
 20
-4.57094
 11
28.0274
 21
-4.77045
  0
LINE
  8
0
 10
28.0274
 20
-4.77045
 11
27.7219
 21
-4.95113
  0
LINE
  8
0
 10
27.7219
 20
-4.95113
 11
27.4056
 21
-5.11226
  0
LINE
  8
0
 10
27.4056
 20
-5.11226
 11
27.0799
 21
-5.25323
  0
LINE
  8
0
 10
27.0799
 20
-5.25323
 11
26.7459
 21
-5.37346
  0
LINE
  8
0
 10
26.7459
 20
-5.37346
 11
26.4051
 21
-5.47249
  0
LINE
  8
0
 10
26.4051
 20
-5.47249
 11
26.0587
 21
-5.54991
  0
LINE
  8
0
 10
26.0587
 20
-5.54991
 11
25.7081
 21
-5.60544
  0
LINE
  8
0
 10
25.7081
 20
-5.60544
 11
25.3548
 21
-5.63884
  0
LINE
  8
0
 10
25.3548
 20
-5.63884
 11
25
 21
-5.64999
  0
LINE
  8
0
 10
25
 20
-5.64999
 11
24.6452
 21
-5.63884
  0
LINE
  8
0
 10
-25.3548
 20
-5.63882
 11
-25.7081
 21
-5.60542
  0
LINE
  8
0
 10
-25.7081
 20
-5.60542
 11
-26.0587
 21
-5.5499
  0
LINE
  8
0
 10
-26.0587
 20
-5.5499
 11
-26.4051
 21
-5.47247
  0
LINE
  8
0
 10
-26.4051
 20
-5.47247
 11
-26.7459
 21
-5.37344
  0
LINE
  8
0
 10
-26.7459
 20
-5.37344
 11
-27.0799
 21
-5.25322
  0
LINE
  8
0
 10
-27.0799
 20
-5.25322
 11
-27.4056
 21
-5.11224
  0
LINE
  8
0
 10
-27.4056
 20
-5.11224
 11
-27.7219
 21
-4.95111
  0
LINE
  8
0
 10
-27.7219
 20
-4.95111
 11
-28.0274
 21
-4.77043
  0
LINE
  8
0
 10
-28.0274
 20
-4.77043
 11
-28.321
 21
-4.57092
  0
LINE
  8
0
 10
-28.321
 20
-4.57092
 11
-28.6014
 21
-4.35338
  0
LINE
  8
0
 10
-28.6014
 20
-4.35338
 11
-28.8677
 21
-4.11865
  0
LINE
  8
0
 10
-28.8677
 20
-4.11865
 11
-29.1187
 21
-3.86768
  0
LINE
  8
0
 10
-29.1187
 20
-3.86768
 11
-29.3534
 21
-3.60143
  0
LINE
  8
0
 10
-29.3534
 20
-3.60143
 11
-29.5709
 21
-3.32097
  0
LINE
  8
0
 10
-29.5709
 20
-3.32097
 11
-29.7704
 21
-3.0274
  0
LINE
  8
0
 10
-29.7704
 20
-3.0274
 11
-29.9511
 21
-2.72188
  0
LINE
  8
0
 10
-29.9511
 20
-2.72188
 11
-30.1123
 21
-2.40562
  0
LINE
  8
0
 10
-30.1123
 20
-2.40562
 11
-30.2532
 21
-2.07988
  0
LINE
  8
0
 10
-30.2532
 20
-2.07988
 11
-30.3735
 21
-1.74593
  0
LINE
  8
0
 10
-30.3735
 20
-1.74593
 11
-30.4725
 21
-1.40508
  0
LINE
  8
0
 10
-30.4725
 20
-1.40508
 11
-30.5499
 21
-1.05869
  0
LINE
  8
0
 10
-30.5499
 20
-1.05869
 11
-30.6054
 21
-0.708115
  0
LINE
  8
0
 10
-30.6054
 20
-0.708115
 11
-30.6388
 21
-0.354736
  0
LINE
  8
0
 10
-30.6388
 20
-0.354736
 11
-30.65
 21
0
  0
LINE
  8
0
 10
-30.65
 20
0
 11
-30.6388
 21
0.354752
  0
LINE
  8
0
 10
-30.6388
 20
0.354752
 11
-30.6054
 21
0.70813
  0
LINE
  8
0
 10
-30.6054
 20
0.70813
 11
-30.5499
 21
1.0587
  0
LINE
  8
0
 10
-30.5499
 20
1.0587
 11
-30.4725
 21
1.40509
  0
LINE
  8
0
 10
-30.4725
 20
1.40509
 11
-30.3735
 21
1.74594
  0
LINE
  8
0
 10
-30.3735
 20
1.74594
 11
-30.2532
 21
2.0799
  0
LINE
  8
0
 10
-30.2532
 20
2.0799
 11
-30.1123
 21
2.40564
  0
LINE
  8
0
 10
-30.1123
 20
2.40564
 11
-29.9511
 21
2.72189
  0
LINE
  8
0
 10
-29.9511
 20
2.72189
 11
-29.7704
 21
3.02742
  0
LINE
  8
0
 10
-29.7704
 20
3.02742
 11
-29.5709
 21
3.32098
  0
LINE
  8
0
 10
-29.5709
 20
3.32098
 11
-29.3534
 21
3.60144
  0
LINE
  8
0
 10
-29.3534
 20
3.60144
 11
-29.1187
 21
3.86769
  0
LINE
  8
0
 10
-29.1187
 20
3.86769
 11
-28.8677
 21
4.11867
  0
LINE
  8
0
 10
-28.8677
 20
4.11867
 11
-28.6014
 21
4.35339
  0
LINE
  8
0
 10
-28.6014
 20
4.35339
 11
-28.321
 21
4.57094
  0
LINE
  8
0
 10
-28.321
 20
4.57094
 11
-28.0274
 21
4.77045
  0
LINE
  8
0
 10
-28.0274
 20
4.77045
 11
-27.7219
 21
4.95113
  0
LINE
  8
0
 10
-27.7219
 20
4.95113
 11
-27.4056
 21
5.11226
  0
LINE
  8
0
 10
-27.4056
 20
5.11226
 11
-27.0799
 21
5.25323
  0
LINE
  8
0
 10
-27.0799
 20
5.25323
 11
-26.7459
 21
5.37346
  0
LINE
  8
0
 10
-26.7459
 20
5.37346
 11
-26.4051
 21
5.47249
  0
LINE
  8
0
 10
-26.4051
 20
5.47249
 11
-26.0587
 21
5.54991
  0
LINE
  8
0
 10
-26.0587
 20
5.54991
 11
-25.7081
 21
5.60544
  0
LINE
  8
0
 10
-25.7081
 20
5.60544
 11
-25.3548
 21
5.63884
  0
LINE
  8
0
 10
-25.3548
 20
5.63884
 11
-25
 21
5.64999
  0
LINE
  8
0
 10
-25
 20
5.64999
 11
-24.6452
 21
5.63884
  0
LINE
  8
0
 10
-24.6452
 20
5.63884
 11
-24.2919
 21
5.60544
  0
LINE
  8
0
 10
-24.2919
 20
5.60544
 11
-23.9413
 21
5.54991
  0
LINE
  8
0
 10
-23.9413
 20
5.54991
 11
-23.5949
 21
5.47249
  0
LINE
  8
0
 10
-23.5949
 20
5.47249
 11
-23.2541
 21
5.37346
  0
LINE
  8
0
 10
-23.2541
 20
5.37346
 11
-22.9201
 21
5.25323
  0
LINE
  8
0
 10
-22.9201
 20
5.25323
 11
-22.5944
 21
5.11226
  0
LINE
  8
0
 10
-22.5944
 20
5.11226
 11
-22.2781
 21
4.95113
  0
LINE
  8
0
 10
-22.2781
 20
4.95113
 11
-21.9726
 21
4.77045
  0
LINE
  8
0
 10
-21.9726
 20
4.77045
 11
-21.679
 21
4.57094
  0
LINE
  8
0
 10
-21.679
 20
4.57094
 11
-21.3986
 21
4.35339
  0
LINE
  8
0
 10
-21.3986
 20
4.35339
 11
-21.1323
 21
4.11867
  0
LINE
  8
0
 10
-21.1323
 20
4.11867
 11
-20.8813
 21
3.86769
  0
LINE
  8
0
 10
-20.8813
 20
3.86769
 11
-20.6466
 21
3.60144
  0
LINE
  8
0
 10
-20.6466
 20
3.60144
 11
-20.4291
 21
3.32098
  0
LINE
  8
0
 10
-20.4291
 20
3.32098
 11
-20.2296
 21
3.02742
  0
LINE
  8
0
 10
-20.2296
 20
3.02742
 11
-20.0489
 21
2.72189
  0
LINE
  8
0
 10
-20.0489
 20
2.72189
 11
-19.8877
 21
2.40564
  0
LINE
  8
0
 10
-19.8877
 20
2.40564
 11
-19.7468
 21
2.0799
  0
LINE
  8
0
 10
-19.7468
 20
2.0799
 11
-19.6265
 21
1.74594
  0
LINE
  8
0
 10
-19.6265
 20
1.74594
 11
-19.5275
 21
1.40509
  0
LINE
  8
0
 10
-19.5275
 20
1.40509
 11
-19.4501
 21
1.0587
  0
LINE
  8
0
 10
-19.4501
 20
1.0587
 11
-19.3946
 21
0.70813
  0
LINE
  8
0
 10
-19.3946
 20
0.70813
 11
-19.3612
 21
0.354752
  0
LINE
  8
0
 10
-19.3612
 20
0.354752
 11
-19.35
 21
0
  0
LINE
  8
0
 10
-19.35
 20
0
 11
-19.3612
 21
-0.354736
  0
LINE
  8
0
 10
-19.3612
 20
-0.354736
 11
-19.3946
 21
-0.708115
  0
LINE
  8
0
 10
-19.3946
 20
-0.708115
 11
-19.4501
 21
-1.05869
  0
LINE
  8
0
 10
-19.4501
 20
-1.05869
 11
-19.5275
 21
-1.40508
  0
LINE
  8
0
 10
-19.5275
 20
-1.40508
 11
-19.6265
 21
-1.74593
  0
LINE
  8
0
 10
-19.6265
 20
-1.74593
 11
-19.7468
 21
-2.07988
  0
LINE
  8
0
 10
-19.7468
 20
-2.07988
 11
-19.8877
 21
-2.40562
  0
LINE
  8
0
 10
-19.8877
 20
-2.40562
 11
-20.0489
 21
-2.72188
  0
LINE
  8
0
 10
-20.0489
 20
-2.72188
 11
-20.2296
 21
-3.0274
  0
LINE
  8
0
 10
-20.2296
 20
-3.0274
 11
-20.4291
 21
-3.32097
  0
LINE
  8
0
 10
-20.4291
 20
-3.32097
 11
-20.6466
 21
-3.60143
  0
LINE
  8
0
 10
-20.6466
 20
-3.60143
 11
-20.8813
 21
-3.86768
  0
LINE
  8
0
 10
-20.8813
 20
-3.86768
 11
-21.1323
 21
-4.11865
  0
LINE
  8
0
 10
-21.1323
 20
-4.11865
 11
-21.3986
 21
-4.35338
  0
LINE
  8
0
 10
-21.3986
 20
-4.35338
 11
-21.679
 21
-4.57092
  0
LINE
  8
0
 10
-21.679
 20
-4.57092
 11
-21.9726
 21
-4.77043
  0
LINE
  8
0
 10
-21.9726
 20
-4.77043
 11
-22.2781
 21
-4.95111
  0
LINE
  8
0
 10
-22.2781
 20
-4.95111
 11
-22.5944
 21
-5.11224
  0
LINE
  8
0
 10
-22.5944
 20
-5.11224
 11
-22.9201
 21
-5.25322
  0
LINE
  8
0
 10
-22.9201
 20
-5.25322
 11
-23.2541
 21
-5.37344
  0
LINE
  8
0
 10
-23.2541
 20
-5.37344
 11
-23.5949
 21
-5.47247
  0
LINE
  8
0
 10
-23.5949
 20
-5.47247
 11
-23.9413
 21
-5.5499
  0
LINE
  8
0
 10
-23.9413
 20
-5.5499
 11
-24.2919
 21
-5.60542
  0
LINE
  8
0
 10
-24.2919
 20
-5.60542
 11
-24.6452
 21
-5.63882
  0
LINE
  8
0
 10
-24.6452
 20
-5.63882
 11
-25
 21
-5.64998
  0
LINE
  8
0
 10
-25
 20
-5.64998
 11
-25.3548
 21
-5.63882
  0
LINE
  8
0
 10
-0.317276
 20
-5.04315
 11
-0.633316
 21
-5.01328
  0
LINE
  8
0
 10
-0.633316
 20
-5.01328
 11
-0.946854
 21
-4.96361
  0
LINE
  8
0
 10
-0.946854
 20
-4.96361
 11
-1.25665
 21
-4.89436
  0
LINE
  8
0
 10
-1.25665
 20
-4.89436
 11
-1.56149
 21
-4.8058
  0
LINE
  8
0
 10
-1.56149
 20
-4.8058
 11
-1.86017
 21
-4.69827
  0
LINE
  8
0
 10
-1.86017
 20
-4.69827
 11
-2.1515
 21
-4.57219
  0
LINE
  8
0
 10
-2.1515
 20
-4.57219
 11
-2.43436
 21
-4.42809
  0
LINE
  8
0
 10
-2.43436
 20
-4.42809
 11
-2.7076
 21
-4.26648
  0
LINE
  8
0
 10
-2.7076
 20
-4.26648
 11
-2.97014
 21
-4.08806
  0
LINE
  8
0
 10
-2.97014
 20
-4.08806
 11
-3.22098
 21
-3.89349
  0
LINE
  8
0
 10
-3.22098
 20
-3.89349
 11
-3.45909
 21
-3.68356
  0
LINE
  8
0
 10
-3.45909
 20
-3.68356
 11
-3.68356
 21
-3.45909
  0
LINE
  8
0
 10
-3.68356
 20
-3.45909
 11
-3.89349
 21
-3.22098
  0
LINE
  8
0
 10
-3.89349
 20
-3.22098
 11
-4.08806
 21
-2.97014
  0
LINE
  8
0
 10
-4.08806
 20
-2.97014
 11
-4.26648
 21
-2.7076
  0
LINE
  8
0
 10
-4.26648
 20
-2.7076
 11
-4.42809
 21
-2.43436
  0
LINE
  8
0
 10
-4.42809
 20
-2.43436
 11
-4.57219
 21
-2.1515
  0
LINE
  8
0
 10
-4.57219
 20
-2.1515
 11
-4.69827
 21
-1.86017
  0
LINE
  8
0
 10
-4.69827
 20
-1.86017
 11
-4.8058
 21
-1.56149
  0
LINE
  8
0
 10
-4.8058
 20
-1.56149
 11
-4.89436
 21
-1.25665
  0
LINE
  8
0
 10
-4.89436
 20
-1.25665
 11
-4.96361
 21
-0.946854
  0
LINE
  8
0
 10
-4.96361
 20
-0.946854
 11
-5.01328
 21
-0.633316
  0
LINE
  8
0
 10
-5.01328
 20
-0.633316
 11
-5.04315
 21
-0.317276
  0
LINE
  8
0
 10
-5.04315
 20
-0.317276
 11
-5.05312
 21
0
  0
LINE
  8
0
 10
-5.05312
 20
0
 11
-5.04315
 21
0.317276
  0
LINE
  8
0
 10
-5.04315
 20
0.317276
 11
-5.01328
 21
0.633316
  0
LINE
  8
0
 10
-5.01328
 20
0.633316
 11
-4.96361
 21
0.946854
  0
LINE
  8
0
 10
-4.96361
 20
0.946854
 11
-4.89436
 21
1.25665
  0
LINE
  8
0
 10
-4.89436
 20
1.25665
 11
-4.8058
 21
1.56149
  0
LINE
  8
0
 10
-4.8058
 20
1.56149
 11
-4.69827
 21
1.86017
  0
LINE
  8
0
 10
-4.69827
 20
1.86017
 11
-4.57219
 21
2.1515
  0
LINE
  8
0
 10
-4.57219
 20
2.1515
 11
-4.42809
 21
2.43436
  0
LINE
  8
0
 10
-4.42809
 20
2.43436
 11
-4.26648
 21
2.7076
  0
LINE
  8
0
 10
-4.26648
 20
2.7076
 11
-4.08806
 21
2.97014
  0
LINE
  8
0
 10
-4.08806
 20
2.97014
 11
-3.89349
 21
3.22098
  0
LINE
  8
0
 10
-3.89349
 20
3.22098
 11
-3.68356
 21
3.45909
  0
LINE
  8
0
 10
-3.68356
 20
3.45909
 11
-3.45909
 21
3.68356
  0
LINE
  8
0
 10
-3.45909
 20
3.68356
 11
-3.22098
 21
3.89349
  0
LINE
  8
0
 10
-3.22098
 20
3.89349
 11
-2.97014
 21
4.08806
  0
LINE
  8
0
 10
-2.97014
 20
4.08806
 11
-2.7076
 21
4.26648
  0
LINE
  8
0
 10
-2.7076
 20
4.26648
 11
-2.43436
 21
4.42809
  0
LINE
  8
0
 10
-2.43436
 20
4.42809
 11
-2.1515
 21
4.57219
  0
LINE
  8
0
 10
-2.1515
 20
4.57219
 11
-1.86017
 21
4.69827
  0
LINE
  8
0
 10
-1.86017
 20
4.69827
 11
-1.56149
 21
4.8058
  0
LINE
  8
0
 10
-1.56149
 20
4.8058
 11
-1.25665
 21
4.89436
  0
LINE
  8
0
 10
-1.25665
 20
4.89436
 11
-0.946854
 21
4.96361
  0
LINE
  8
0
 10
-0.946854
 20
4.96361
 11
-0.633316
 21
5.01328
  0
LINE
  8
0
 10
-0.633316
 20
5.01328
 11
-0.317276
 21
5.04315
  0
LINE
  8
0
 10
-0.317276
 20
5.04315
 11
0
 21
5.05312
  0
LINE
  8
0
 10
0
 20
5.05312
 11
0.317276
 21
5.04315
  0
LINE
  8
0
 10
0.317276
 20
5.04315
 11
0.633316
 21
5.01328
  0
LINE
  8
0
 10
0.633316
 20
5.01328
 11
0.946854
 21
4.96361
  0
LINE
  8
0
 10
0.946854
 20
4.96361
 11
1.25665
 21
4.89436
  0
LINE
  8
0
 10
1.25665
 20
4.89436
 11
1.56149
 21
4.8058
  0
LINE
  8
0
 10
1.56149
 20
4.8058
 11
1.86017
 21
4.69827
  0
LINE
  8
0
 10
1.86017
 20
4.69827
 11
2.1515
 21
4.57219
  0
LINE
  8
0
 10
2.1515
 20
4.57219
 11
2.43436
 21
4.42809
  0
LINE
  8
0
 10
2.43436
 20
4.42809
 11
2.7076
 21
4.26648
  0
LINE
  8
0
 10
2.7076
 20
4.26648
 11
2.97014
 21
4.08806
  0
LINE
  8
0
 10
2.97014
 20
4.08806
 11
3.22098
 21
3.89349
  0
LINE
  8
0
 10
3.22098
 20
3.89349
 11
3.45909
 21
3.68356
  0
LINE
  8
0
 10
3.45909
 20
3.68356
 11
3.68356
 21
3.45909
  0
LINE
  8
0
 10
3.68356
 20
3.45909
 11
3.89349
 21
3.22098
  0
LINE
  8
0
 10
3.89349
 20
3.22098
 11
4.08806
 21
2.97014
  0
LINE
  8
0
 10
4.08806
 20
2.97014
 11
4.26648
 21
2.7076
  0
LINE
  8
0
 10
4.26648
 20
2.7076
 11
4.42809
 21
2.43436
  0
LINE
  8
0
 10
4.42809
 20
2.43436
 11
4.57219
 21
2.1515
  0
LINE
  8
0
 10
4.57219
 20
2.1515
 11
4.69827
 21
1.86017
  0
LINE
  8
0
 10
4.69827
 20
1.86017
 11
4.8058
 21
1.56149
  0
LINE
  8
0
 10
4.8058
 20
1.56149
 11
4.89436
 21
1.25665
  0
LINE
  8
0
 10
4.89436
 20
1.25665
 11
4.96361
 21
0.946854
  0
LINE
  8
0
 10
4.96361
 20
0.946854
 11
5.01328
 21
0.633316
  0
LINE
  8
0
 10
5.01328
 20
0.633316
 11
5.04315
 21
0.317276
  0
LINE
  8
0
 10
5.04315
 20
0.317276
 11
5.05312
 21
0
  0
LINE
  8
0
 10
5.05312
 20
0
 11
5.04315
 21
-0.317276
  0
LINE
  8
0
 10
5.04315
 20
-0.317276
 11
5.01328
 21
-0.633316
  0
LINE
  8
0
 10
5.01328
 20
-0.633316
 11
4.96361
 21
-0.946854
  0
LINE
  8
0
 10
4.96361
 20
-0.946854
 11
4.89436
 21
-1.25665
  0
LINE
  8
0
 10
4.89436
 20
-1.25665
 11
4.8058
 21
-1.56149
  0
LINE
  8
0
 10
4.8058
 20
-1.56149
 11
4.69827
 21
-1.86017
  0
LINE
  8
0
 10
4.69827
 20
-1.86017
 11
4.57219
 21
-2.1515
  0
LINE
  8
0
 10
4.57219
 20
-2.1515
 11
4.42809
 21
-2.43436
  0
LINE
  8
0
 10
4.42809
 20
-2.43436
 11
4.26648
 21
-2.7076
  0
LINE
  8
0
 10
4.26648
 20
-2.7076
 11
4.08806
 21
-2.97014
  0
LINE
  8
0
 10
4.08806
 20
-2.97014
 11
3.89349
 21
-3.22098
  0
LINE
  8
0
 10
3.89349
 20
-3.22098
 11
3.68356
 21
-3.45909
  0
LINE
  8
0
 10
3.68356
 20
-3.45909
 11
3.45909
 21
-3.68356
  0
LINE
  8
0
 10
3.45909
 20
-3.68356
 11
3.22098
 21
-3.89349
  0
LINE
  8
0
 10
3.22098
 20
-3.89349
 11
2.97014
 21
-4.08806
  0
LINE
  8
0
 10
2.97014
 20
-4.08806
 11
2.7076
 21
-4.26648
  0
LINE
  8
0
 10
2.7076
 20
-4.26648
 11
2.43436
 21
-4.42809
  0
LINE
  8
0
 10
2.43436
 20
-4.42809
 11
2.1515
 21
-4.57219
  0
LINE
  8
0
 10
2.1515
 20
-4.57219
 11
1.86017
 21
-4.69827
  0
LINE
  8
0
 10
1.86017
 20
-4.69827
 11
1.56149
 21
-4.8058
  0
LINE
  8
0
 10
1.56149
 20
-4.8058
 11
1.25665
 21
-4.89436
  0
LINE
  8
0
 10
1.25665
 20
-4.89436
 11
0.946854
 21
-4.96361
  0
LINE
  8
0
 10
0.946854
 20
-4.96361
 11
0.633316
 21
-5.01328
  0
LINE
  8
0
 10
0.633316
 20
-5.01328
 11
0.317276
 21
-5.04315
  0
LINE
  8
0
 10
0.317276
 20
-5.04315
 11
0
 21
-5.05312
  0
LINE
  8
0
 10
0
 20
-5.05312
 11
-0.317276
 21
-5.04315
  0
LINE
  8
0
 10
-0.354752
 20
-30.6388
 11
-0.70813
 21
-30.6054
  0
LINE
  8
0
 10
-0.70813
 20
-30.6054
 11
-1.0587
 21
-30.5499
  0
LINE
  8
0
 10
-1.0587
 20
-30.5499
 11
-1.40509
 21
-30.4725
  0
LINE
  8
0
 10
-1.40509
 20
-30.4725
 11
-1.74594
 21
-30.3735
  0
LINE
  8
0
 10
-1.74594
 20
-30.3735
 11
-2.0799
 21
-30.2532
  0
LINE
  8
0
 10
-2.0799
 20
-30.2532
 11
-2.40564
 21
-30.1123
  0
LINE
  8
0
 10
-2.40564
 20
-30.1123
 11
-2.72189
 21
-29.9511
  0
LINE
  8
0
 10
-2.72189
 20
-29.9511
 11
-3.02742
 21
-29.7704
  0
LINE
  8
0
 10
-3.02742
 20
-29.7704
 11
-3.32098
 21
-29.5709
  0
LINE
  8
0
 10
-3.32098
 20
-29.5709
 11
-3.60144
 21
-29.3534
  0
LINE
  8
0
 10
-3.60144
 20
-29.3534
 11
-3.86769
 21
-29.1187
  0
LINE
  8
0
 10
-3.86769
 20
-29.1187
 11
-4.11867
 21
-28.8677
  0
LINE
  8
0
 10
-4.11867
 20
-28.8677
 11
-4.35339
 21
-28.6014
  0
LINE
  8
0
 10
-4.35339
 20
-28.6014
 11
-4.57094
 21
-28.321
  0
LINE
  8
0
 10
-4.57094
 20
-28.321
 11
-4.77045
 21
-28.0274
  0
LINE
  8
0
 10
-4.77045
 20
-28.0274
 11
-4.95113
 21
-27.7219
  0
LINE
  8
0
 10
-4.95113
 20
-27.7219
 11
-5.11226
 21
-27.4056
  0
LINE
  8
0
 10
-5.11226
 20
-27.4056
 11
-5.25323
 21
-27.0799
  0
LINE
  8
0
 10
-5.25323
 20
-27.0799
 11
-5.37346
 21
-26.7459
  0
LINE
  8
0
 10
-5.37346
 20
-26.7459
 11
-5.47249
 21
-26.4051
  0
LINE
  8
0
 10
-5.47249
 20
-26.4051
 11
-5.54991
 21
-26.0587
  0
LINE
  8
0
 10
-5.54991
 20
-26.0587
 11
-5.60544
 21
-25.7081
  0
LINE
  8
0
 10
-5.60544
 20
-25.7081
 11
-5.63884
 21
-25.3548
  0
LINE
  8
0
 10
-5.63884
 20
-25.3548
 11
-5.64999
 21
-25
  0
LINE
  8
0
 10
-5.64999
 20
-25
 11
-5.63884
 21
-24.6452
  0
LINE
  8
0
 10
-5.63884
 20
-24.6452
 11
-5.60544
 21
-24.2919
  0
LINE
  8
0
 10
-5.60544
 20
-24.2919
 11
-5.54991
 21
-23.9413
  0
LINE
  8
0
 10
-5.54991
 20
-23.9413
 11
-5.47249
 21
-23.5949
  0
LINE
  8
0
 10
-5.47249
 20
-23.5949
 11
-5.37346
 21
-23.2541
  0
LINE
  8
0
 10
-5.37346
 20
-23.2541
 11
-5.25323
 21
-22.9201
  0
LINE
  8
0
 10
-5.25323
 20
-22.9201
 11
-5.11226
 21
-22.5944
  0
LINE
  8
0
 10
-5.11226
 20
-22.5944
 11
-4.95113
 21
-22.2781
  0
LINE
  8
0
 10
-4.95113
 20
-22.2781
 11
-4.77045
 21
-21.9726
  0
LINE
  8
0
 10
-4.77045
 20
-21.9726
 11
-4.57094
 21
-21.679
  0
LINE
  8
0
 10
-4.57094
 20
-21.679
 11
-4.35339
 21
-21.3986
  0
LINE
  8
0
 10
-4.35339
 20
-21.3986
 11
-4.11867
 21
-21.1323
  0
LINE
  8
0
 10
-4.11867
 20
-21.1323
 11
-3.86769
 21
-20.8813
  0
LINE
  8
0
 10
-3.86769
 20
-20.8813
 11
-3.60144
 21
-20.6466
  0
LINE
  8
0
 10
-3.60144
 20
-20.6466
 11
-3.32098
 21
-20.4291
  0
LINE
  8
0
 10
-3.32098
 20
-20.4291
 11
-3.02742
 21
-20.2296
  0
LINE
  8
0
 10
-3.02742
 20
-20.2296
 11
-2.72189
 21
-20.0489
  0
LINE
  8
0
 10
-2.72189
 20
-20.0489
 11
-2.40564
 21
-19.8877
  0
LINE
  8
0
 10
-2.40564
 20
-19.8877
 11
-2.0799
 21
-19.7468
  0
LINE
  8
0
 10
-2.0799
 20
-19.7468
 11
-1.74594
 21
-19.6265
  0
LINE
  8
0
 10
-1.74594
 20
-19.6265
 11
-1.40509
 21
-19.5275
  0
LINE
  8
0
 10
-1.40509
 20
-19.5275
 11
-1.0587
 21
-19.4501
  0
LINE
  8
0
 10
-1.0587
 20
-19.4501
 11
-0.70813
 21
-19.3946
  0
LINE
  8
0
 10
-0.70813
 20
-19.3946
 11
-0.354752
 21
-19.3612
  0
LINE
  8
0
 10
-0.354752
 20
-19.3612
 11
0
 21
-19.35
  0
LINE
  8
0
 10
0
 20
-19.35
 11
0.354736
 21
-19.3612
  0
LINE
  8
0
 10
0.354736
 20
-19.3612
 11
0.708115
 21
-19.3946
  0
LINE
  8
0
 10
0.708115
 20
-19.3946
 11
1.05869
 21
-19.4501
  0
LINE
  8
0
 10
1.05869
 20
-19.4501
 11
1.40508
 21
-19.5275
  0
LINE
  8
0
 10
1.40508
 20
-19.5275
 11
1.74593
 21
-19.6265
  0
LINE
  8
0
 10
1.74593
 20
-19.6265
 11
2.07988
 21
-19.7468
  0
LINE
  8
0
 10
2.07988
 20
-19.7468
 11
2.40562
 21
-19.8877
  0
LINE
  8
0
 10
2.40562
 20
-19.8877
 11
2.72188
 21
-20.0489
  0
LINE
  8
0
 10
2.72188
 20
-20.0489
 11
3.0274
 21
-20.2296
  0
LINE
  8
0
 10
3.0274
 20
-20.2296
 11
3.32097
 21
-20.4291
  0
LINE
  8
0
 10
3.32097
 20
-20.4291
 11
3.60143
 21
-20.6466
  0
LINE
  8
0
 10
3.60143
 20
-20.6466
 11
3.86768
 21
-20.8813
  0
LINE
  8
0
 10
3.86768
 20
-20.8813
 11
4.11865
 21
-21.1323
  0
LINE
  8
0
 10
4.11865
 20
-21.1323
 11
4.35338
 21
-21.3986
  0
LINE
  8
0
 10
4.35338
 20
-21.3986
 11
4.57092
 21
-21.679
  0
LINE
  8
0
 10
4.57092
 20
-21.679
 11
4.77043
 21
-21.9726
  0
LINE
  8
0
 10
4.77043
 20
-21.9726
 11
4.95111
 21
-22.2781
  0
LINE
  8
0
 10
4.95111
 20
-22.2781
 11
5.11224
 21
-22.5944
  0
LINE
  8
0
 10
5.11224
 20
-22.5944
 11
5.25322
 21
-22.9201
  0
LINE
  8
0
 10
5.25322
 20
-22.9201
 11
5.37344
 21
-23.2541
  0
LINE
  8
0
 10
5.37344
 20
-23.2541
 11
5.47247
 21
-23.5949
  0
LINE
  8
0
 10
5.47247
 20
-23.5949
 11
5.5499
 21
-23.9413
  0
LINE
  8
0
 10
5.5499
 20
-23.9413
 11
5.60542
 21
-24.2919
  0
LINE
  8
0
 10
5.60542
 20
-24.2919
 11
5.63882
 21
-24.6452
  0
LINE
  8
0
 10
5.63882
 20
-24.6452
 11
5.64998
 21
-25
  0
LINE
  8
0
 10
5.64998
 20
-25
 11
5.63882
 21
-25.3548
  0
LINE
  8
0
 10
5.63882
 20
-25.3548
 11
5.60542
 21
-25.7081
  0
LINE
  8
0
 10
5.60542
 20
-25.7081
 11
5.5499
 21
-26.0587
  0
LINE
  8
0
 10
5.5499
 20
-26.0587
 11
5.47247
 21
-26.4051
  0
LINE
  8
0
 10
5.47247
 20
-26.4051
 11
5.37344
 21
-26.7459
  0
LINE
  8
0
 10
5.37344
 20
-26.7459
 11
5.25322
 21
-27.0799
  0
LINE
  8
0
 10
5.25322
 20
-27.0799
 11
5.11224
 21
-27.4056
  0
LINE
  8
0
 10
5.11224
 20
-27.4056
 11
4.95111
 21
-27.7219
  0
LINE
  8
0
 10
4.95111
 20
-27.7219
 11
4.77043
 21
-28.0274
  0
LINE
  8
0
 10
4.77043
 20
-28.0274
 11
4.57092
 21
-28.321
  0
LINE
  8
0
 10
4.57092
 20
-28.321
 11
4.35338
 21
-28.6014
  0
LINE
  8
0
 10
4.35338
 20
-28.6014
 11
4.11865
 21
-28.8677
  0
LINE
  8
0
 10
4.11865
 20
-28.8677
 11
3.86768
 21
-29.1187
  0
LINE
  8
0
 10
3.86768
 20
-29.1187
 11
3.60143
 21
-29.3534
  0
LINE
  8
0
 10
3.60143
 20
-29.3534
 11
3.32097
 21
-29.5709
  0
LINE
  8
0
 10
3.32097
 20
-29.5709
 11
3.0274
 21
-29.7704
  0
LINE
  8
0
 10
3.0274
 20
-29.7704
 11
2.72188
 21
-29.9511
  0
LINE
  8
0
 10
2.72188
 20
-29.9511
 11
2.40562
 21
-30.1123
  0
LINE
  8
0
 10
2.40562
 20
-30.1123
 11
2.07988
 21
-30.2532
  0
LINE
  8
0
 10
2.07988
 20
-30.2532
 11
1.74593
 21
-30.3735
  0
LINE
  8
0
 10
1.74593
 20
-30.3735
 11
1.40508
 21
-30.4725
  0
LINE
  8
0
 10
1.40508
 20
-30.4725
 11
1.05869
 21
-30.5499
  0
LINE
  8
0
 10
1.05869
 20
-30.5499
 11
0.708115
 21
-30.6054
  0
LINE
  8
0
 10
0.708115
 20
-30.6054
 11
0.354736
 21
-30.6388
  0
LINE
  8
0
 10
0.354736
 20
-30.6388
 11
0
 21
-30.65
  0
LINE
  8
0
 10
0
 20
-30.65
 11
-0.354752
 21
-30.6388
  0
ENDSEC
  0
SECTION
  2
OBJECTS
  0
DICTIONARY
  0
ENDSEC
  0
EOF
